STARTFONT 2.1
FONT -FontForge-Amatic SC-Bold-R-Normal--80-770-75-75-P-253-ISO10646-1
SIZE 77 75 75
FONTBOUNDINGBOX 122 112 -37 -21
COMMENT "Generated by fontforge, http://fontforge.sourceforge.net"
COMMENT "Copyright 2015 The Amatic SC Project Authors (https://github.com/googlefonts/AmaticSC)"
STARTPROPERTIES 40
FOUNDRY "FontForge"
FAMILY_NAME "Amatic SC"
WEIGHT_NAME "Bold"
SLANT "R"
SETWIDTH_NAME "Normal"
ADD_STYLE_NAME ""
PIXEL_SIZE 80
POINT_SIZE 770
RESOLUTION_X 75
RESOLUTION_Y 75
SPACING "P"
AVERAGE_WIDTH 253
CHARSET_REGISTRY "ISO10646"
CHARSET_ENCODING "1"
FONTNAME_REGISTRY ""
CHARSET_COLLECTIONS "ISO8859-2 ISO8859-5 ISO8859-9 ISO8859-8 ISO8859-4 ISO10646-1"
FONT_NAME "AmaticSC-Bold"
FACE_NAME "Amatic SC Bold"
COPYRIGHT "Copyright 2015 The Amatic SC Project Authors (https://github.com/googlefonts/AmaticSC)"
FONT_VERSION "2.505"
FONT_ASCENT 64
FONT_DESCENT 16
UNDERLINE_POSITION -8
UNDERLINE_THICKNESS 4
X_HEIGHT 51
CAP_HEIGHT 60
DEFAULT_CHAR 1
RAW_ASCENT 800
RAW_DESCENT 200
NORM_SPACE 15
RELATIVE_WEIGHT 70
RELATIVE_SETWIDTH 50
SUPERSCRIPT_X 0
SUPERSCRIPT_Y 28
SUPERSCRIPT_SIZE 48
SUBSCRIPT_X 0
SUBSCRIPT_Y 6
SUBSCRIPT_SIZE 48
AVG_LOWERCASE_WIDTH 268
AVG_UPPERCASE_WIDTH 276
ENDPROPERTIES
CHARS 839
STARTCHAR NULL.dup1
ENCODING 0
SWIDTH 0 0
DWIDTH 0 0
BBX 1 1 0 0
BITMAP
00
ENDCHAR
STARTCHAR nonmarkingreturn
ENCODING 13
SWIDTH 183 0
DWIDTH 15 0
BBX 1 1 0 0
BITMAP
00
ENDCHAR
STARTCHAR space
ENCODING 32
SWIDTH 183 0
DWIDTH 15 0
BBX 1 1 0 0
BITMAP
00
ENDCHAR
STARTCHAR exclam
ENCODING 33
SWIDTH 207 0
DWIDTH 17 0
BBX 7 63 5 -2
BITMAP
1C
3E
3E
3E
3E
3E
3E
3E
3E
3E
3E
3E
3E
3C
3C
3C
3C
3C
3C
3C
3C
3C
3C
3C
3C
3C
3C
3C
3C
38
38
38
38
38
38
38
38
38
38
38
38
38
38
38
38
38
38
38
18
00
00
00
00
00
00
00
78
FC
FC
FC
FC
FC
78
ENDCHAR
STARTCHAR quotedbl
ENCODING 34
SWIDTH 333 0
DWIDTH 27 0
BBX 11 15 8 46
BITMAP
60E0
F0E0
F0E0
F0E0
F0E0
F0E0
F0E0
E0E0
E0E0
E0E0
E0C0
E0C0
C0C0
40C0
40C0
ENDCHAR
STARTCHAR numbersign
ENCODING 35
SWIDTH 421 0
DWIDTH 34 0
BBX 26 64 4 -3
BITMAP
00300300
00700780
00780780
00780780
00700F80
00700F80
00700F00
00700F00
00700F00
00700F00
00700F00
00F01E00
00F01E00
00F01E00
00E01E00
00E01E00
00E01C00
00E03C00
01E03C00
01E03F80
3FFFFFC0
7FFFFFC0
7FFFFFC0
3FF0FC00
01C03800
01C03800
01C07800
01C07800
03C07800
03C07800
03C07800
03807800
03807800
03807E00
FFFFFF80
FFFFFF80
FFFFFF00
7F807000
0780F000
0780F000
0780F000
0780F000
0F80F000
0F80F000
0F80F000
0F80E000
0F00E000
0F00E000
0F01E000
1F01E000
1F01E000
1F01E000
1F01E000
1F01E000
1F01E000
1F03C000
1E03C000
1E03C000
1E03C000
1E03C000
3E03C000
3C03C000
1C03C000
1C018000
ENDCHAR
STARTCHAR dollar
ENCODING 36
SWIDTH 413 0
DWIDTH 33 0
BBX 21 75 6 -10
BITMAP
004000
00E000
00E000
00E000
00EFC0
00FFF0
01FFF8
07FFF0
0FE010
1FE000
3F6000
3E6000
7C6000
787000
787000
707000
F07000
F07000
707000
787000
787000
787000
787000
3C7000
3C7000
1E7000
1E7000
0F7000
0FF000
07F000
03F000
03F000
01F000
00F000
007800
007C00
007E00
007E00
007F00
007F80
007F80
007FC0
003BC0
0039E0
0039E0
0039F0
0038F0
0038F0
0038F0
003870
003870
003878
003878
003878
003870
0038F0
0038F0
003CF0
003DF0
003DE0
003FE0
003FC0
083FC0
1F3F80
1FFF00
1FFE00
07FC00
003C00
003C00
003C00
003C00
003C00
003C00
003C00
001C00
ENDCHAR
STARTCHAR percent
ENCODING 37
SWIDTH 576 0
DWIDTH 46 0
BBX 39 61 3 0
BITMAP
0780000000
0FE0007000
1FF000F000
3FF800F000
3CF800F000
7C7C00F000
783C01F000
781E01F000
781E01E000
781E03E000
F01E03E000
F01E03E000
F00E03E000
F00E07C000
F00E07C000
F00E07C000
F00E07C000
F00E0FC000
F00E0F8000
F00E0F8000
F00E1F8000
F00E1F8000
F00E1F0000
F01E1F0000
701E3F0000
781E3F0000
781E3E0000
781E3E0000
3C3C7E0000
3C7C7C0F80
1FFC7C1FE0
1FF87C3FF0
0FF0FC3FF8
0000F87CF8
0000F8787C
0000F8F03C
0001F8F03C
0001F0F03C
0001F0F03E
0001F0F01E
0003F1E01E
0003E1E01E
0003E1E01E
0003E1E01E
0007E1E01E
0007C1E01E
0007C1E01E
0007C1E01E
000FC1E01E
000F81E01E
000F81E01E
000F80F03C
000F80F03C
001F80F03C
001F00F03C
001F007878
001F0078F8
001F007FF0
001E003FF0
001E001FC0
000C000F80
ENDCHAR
STARTCHAR ampersand
ENCODING 38
SWIDTH 483 0
DWIDTH 39 0
BBX 32 59 4 0
BITMAP
007C0000
00FF0000
01FFC000
01F7C000
01E3E000
01C1F000
01C1F000
01C0F000
01C0F000
01C0F000
01C0F000
01C0E000
01C1E000
01C1E000
01C1E000
01C3C000
01C7C000
01C78000
01CF8000
01CF0000
01DE0000
01FE0000
01FC0000
01F80000
03F80000
03F00000
07E00000
07E00000
0FE00000
0FE00000
1EF00000
1EF00000
1C70003E
3C700FFF
38780FFF
387807FE
78780380
70380380
703C0380
703C0380
F01C0380
F01E0380
F00E0780
F00F0780
F00F0780
F0070780
F0078780
F0038F00
F003CF00
F001CF00
7801FF00
7800FE00
3C007E00
3E007C00
1F00FF00
0FC7FFC0
07FFFFFF
03FFC3FF
00FE007E
ENDCHAR
STARTCHAR quotesingle
ENCODING 39
SWIDTH 263 0
DWIDTH 21 0
BBX 5 15 8 46
BITMAP
70
F8
F8
F8
F8
F8
F0
F0
70
70
70
60
60
60
40
ENDCHAR
STARTCHAR parenleft
ENCODING 40
SWIDTH 291 0
DWIDTH 23 0
BBX 13 78 7 -14
BITMAP
0180
03C0
07C0
07C0
0FC0
0F80
0F80
1F80
1F00
1F00
3E00
3E00
3C00
3C00
3C00
7C00
7800
7800
7800
7800
7800
7000
F000
F000
F000
F000
F000
F000
F000
F000
F000
F000
F000
F000
F000
F000
F000
F000
F000
F000
F000
F000
7000
7000
7000
7000
7000
7800
7800
7800
3800
3800
3800
3800
3C00
3C00
3C00
1C00
1C00
1E00
1E00
1E00
0E00
0F00
0F00
0F00
0F80
0780
0780
07C0
03C0
03E0
03E0
01F0
01F0
00F8
00F8
0070
ENDCHAR
STARTCHAR parenright
ENCODING 41
SWIDTH 306 0
DWIDTH 24 0
BBX 14 76 3 -12
BITMAP
0600
0F00
0F80
0F80
0FC0
07C0
07C0
03E0
03E0
01E0
01E0
01F0
00F0
00F0
00F0
0070
0078
0078
0078
0078
0078
0038
0038
003C
003C
003C
003C
003C
003C
003C
003C
003C
003C
003C
003C
003C
003C
003C
003C
003C
003C
0038
0038
0078
0078
0078
0078
0070
0070
00F0
00F0
00F0
00F0
00E0
01E0
01E0
01E0
01E0
03C0
03C0
03C0
03C0
0780
0780
0780
0F80
0F00
1F00
1F00
3E00
3E00
7C00
7C00
F800
F800
7000
ENDCHAR
STARTCHAR asterisk
ENCODING 42
SWIDTH 456 0
DWIDTH 36 0
BBX 31 33 2 28
BITMAP
01801C00
03C03C00
03E03E00
01E07C00
01F07C00
01F0FC00
00F0F800
00F8F800
0079F000
007DF000
003DE000
003FE000
001FC000
001FC000
7FFFFFFC
FFFFFFFE
FFFFFFFE
000FC000
000FC000
001FC000
001FE000
003FF000
003CF000
007CF800
007C7800
00F87C00
00F83C00
01F03C00
01F03E00
03F01E00
03E01E00
03E01E00
01C00400
ENDCHAR
STARTCHAR plus
ENCODING 43
SWIDTH 439 0
DWIDTH 35 0
BBX 22 25 6 13
BITMAP
007000
007000
00F800
00F800
00F800
00F800
00F800
00F800
00F800
00F800
007800
7FFFF8
FFFFFC
FFFFFC
7FFFFC
00F800
00F800
00F800
00F800
00F800
00F800
007C00
007C00
007C00
007800
ENDCHAR
STARTCHAR comma
ENCODING 44
SWIDTH 199 0
DWIDTH 16 0
BBX 7 13 5 -7
BITMAP
3C
7E
FE
7E
7E
3E
1C
1C
1C
38
30
70
E0
ENDCHAR
STARTCHAR hyphen
ENCODING 45
SWIDTH 377 0
DWIDTH 30 0
BBX 18 5 6 26
BITMAP
0FFF80
7FFFC0
FFFFC0
7FFF80
7FFC00
ENDCHAR
STARTCHAR period
ENCODING 46
SWIDTH 289 0
DWIDTH 23 0
BBX 6 6 8 -1
BITMAP
38
7C
FC
FC
7C
38
ENDCHAR
STARTCHAR slash
ENCODING 47
SWIDTH 368 0
DWIDTH 29 0
BBX 18 63 6 -2
BITMAP
000080
0001C0
0001C0
000180
000380
000380
000380
000700
000700
000700
000700
000F00
000E00
000E00
000E00
001E00
001C00
001C00
001C00
003C00
003800
003800
003800
007800
007000
007000
007000
00F000
00E000
00E000
00E000
01E000
01C000
01C000
01C000
03C000
038000
038000
038000
078000
070000
070000
070000
0F0000
0E0000
0E0000
0E0000
1C0000
1C0000
1C0000
1C0000
380000
380000
380000
300000
700000
700000
700000
600000
E00000
C00000
C00000
C00000
ENDCHAR
STARTCHAR zero
ENCODING 48
SWIDTH 321 0
DWIDTH 26 0
BBX 18 61 4 0
BITMAP
0F8000
3FC000
39E000
70F000
707800
E03800
E03C00
E03C00
E01C00
E01E00
E01E00
E00E00
E00E00
E00F00
F00F00
F00F00
F00700
F00700
F00780
F00780
F00780
F00780
F00780
F00780
F00380
F00380
F00380
F00380
F00380
F00380
F003C0
F003C0
F003C0
F803C0
F803C0
F803C0
F803C0
F803C0
F803C0
F803C0
7803C0
7803C0
7803C0
7803C0
7803C0
7803C0
7803C0
780380
3C0780
3C0780
3C0780
3C0780
1C0780
1E0F00
1E0F00
0E0F00
0F1E00
079E00
07FC00
03F800
01F000
ENDCHAR
STARTCHAR one
ENCODING 49
SWIDTH 269 0
DWIDTH 22 0
BBX 19 61 1 0
BITMAP
7F8000
FFC000
FFC000
0FC000
03C000
03C000
03C000
03C000
03C000
03C000
03C000
03C000
03C000
03C000
03E000
03E000
03E000
01E000
01E000
01E000
01E000
01E000
01E000
01E000
01E000
01E000
01E000
01E000
01E000
01E000
01E000
01E000
01E000
00E000
00E000
00F000
00F000
00F000
00F000
00F000
00F000
00F000
00F000
00F000
00F000
00F000
00F000
00F000
007000
007000
007000
007000
007800
007800
007800
007800
007800
00FFC0
07FFE0
07FFE0
07FF00
ENDCHAR
STARTCHAR two
ENCODING 50
SWIDTH 343 0
DWIDTH 27 0
BBX 17 62 4 0
BITMAP
01F000
07FC00
07FE00
0FBE00
0F8F00
0F0F00
1F0700
1F0780
0E0780
0E0780
000780
000780
000780
000780
000780
000780
000780
000780
000780
000780
000780
000780
000780
000700
000700
000F00
000F00
000F00
000F00
000E00
001E00
001E00
001E00
001C00
003C00
003C00
003800
007800
007800
007000
00F000
00F000
00E000
01E000
01C000
03C000
03C000
038000
078000
070000
0F0000
0F0000
1E0000
1E0000
1C0000
3C0000
3C0000
780000
79FE00
FFFF00
FFFF00
7FFF00
ENDCHAR
STARTCHAR three
ENCODING 51
SWIDTH 334 0
DWIDTH 27 0
BBX 19 62 2 -1
BITMAP
07C000
0FF000
3FF800
3EFC00
7C3C00
F83C00
781E00
701E00
001E00
000F00
000F00
000F00
000F00
000F00
000F00
000F00
000F00
000F00
000F00
001F00
001E00
003E00
003C00
007C00
00F800
01F800
01FC00
00FE00
001F00
001F00
000F80
000780
000780
0007C0
0003C0
0003C0
0003C0
0003C0
0001E0
0001E0
0001E0
0001E0
0001E0
0001E0
0001E0
0001E0
0001E0
0001E0
0001E0
0001E0
0001E0
0001E0
0001E0
0001E0
0001E0
0003C0
0003C0
0707C0
07DF80
07FF00
03FF00
00FC00
ENDCHAR
STARTCHAR four
ENCODING 52
SWIDTH 303 0
DWIDTH 24 0
BBX 16 61 6 -2
BITMAP
7000
7800
7800
7800
7800
7800
7800
7800
7800
7800
7800
7800
7800
78C0
78E0
78E0
78E0
78E0
78E0
78E0
79E0
79E0
79E0
79E0
F9E0
F1E0
F1E0
F1E0
F1E0
F1E0
F1E0
F1E0
F1E0
F1E0
F1E0
F1E0
F1E0
FFFE
FFFF
FFFE
7FE0
01E0
01E0
01E0
01E0
01E0
01E0
01E0
00E0
00E0
00E0
00E0
00F0
00F0
00F0
00F0
00F0
00F0
00F0
00F0
0060
ENDCHAR
STARTCHAR five
ENCODING 53
SWIDTH 330 0
DWIDTH 26 0
BBX 17 63 5 -2
BITMAP
7FC000
FFE000
FFE000
F00000
F00000
F00000
700000
700000
700000
700000
700000
780000
780000
780000
380000
380000
380000
380000
380000
380000
780000
780000
7F0000
7FF000
7FF800
3FFC00
0FFC00
00FC00
007E00
003E00
001E00
001F00
000F00
000F00
000F00
000F00
000780
000780
000780
000780
000780
000780
000780
000780
000780
000780
000780
000780
000780
000780
000780
000780
000780
000780
000F00
000F00
000F00
001E00
001E00
07FC00
07F800
07F000
03E000
ENDCHAR
STARTCHAR six
ENCODING 54
SWIDTH 283 0
DWIDTH 23 0
BBX 15 62 4 0
BITMAP
03C0
07C0
0FC0
1F80
1E00
1E00
3C00
3C00
3C00
7C00
7800
7800
7800
7800
7800
F800
F000
F000
F000
F000
F000
F000
F000
F000
F400
FF00
FF80
FBC0
F1E0
F0E0
F0F0
F070
F070
F078
F078
F078
F038
F03C
F03C
F03C
F03C
F03C
F03C
F03C
F01C
F01E
F81E
781E
781E
781E
781E
781E
781E
7C1E
3C1E
3C1E
3E1C
1E3C
1F7C
0FFC
07F8
03E0
ENDCHAR
STARTCHAR seven
ENCODING 55
SWIDTH 300 0
DWIDTH 24 0
BBX 16 61 3 0
BITMAP
3FFC
FFFE
FFFF
7F1E
001E
001E
001E
001E
001E
001C
001C
001C
001C
001C
001C
001C
001C
0018
0018
0038
0038
0038
0038
0038
0038
0038
0030
0030
0070
0070
0070
0070
0070
0070
00F0
00E0
00E0
00E0
00E0
00E0
01E0
01E0
01E0
01C0
03C0
03C0
03C0
03C0
0380
0780
0780
0780
0780
0F00
0F00
0F00
1E00
1E00
1E00
1E00
0C00
ENDCHAR
STARTCHAR eight
ENCODING 56
SWIDTH 314 0
DWIDTH 25 0
BBX 15 65 5 -3
BITMAP
3F00
7F80
7FC0
F1E0
F1E0
F0F0
F0F0
F0F0
F0F0
F0F0
F0F0
F0F0
70F0
70F0
78F0
78F0
38F0
38E0
18E0
1DE0
1DE0
0DE0
0DC0
0FC0
07C0
07C0
07C0
0780
0780
07C0
07C0
07C0
07E0
06E0
06E0
0EF0
0EF0
0C70
0C78
0C78
1C78
1C38
1C3C
1C3C
1C3C
381C
381C
381E
381E
381E
381E
381E
780E
780E
780E
380E
380E
3C0E
3C1E
3C1E
1E1E
1E7C
1FFC
0FF0
03E0
ENDCHAR
STARTCHAR nine
ENCODING 57
SWIDTH 281 0
DWIDTH 22 0
BBX 14 64 2 -1
BITMAP
07E0
0FF8
1FF8
3EFC
7C3C
783C
783C
F83C
F03C
F03C
F03C
F03C
F03C
F03C
F03C
F03C
F03C
F03C
F03C
783C
7C3C
3E3C
1F3C
0FFC
07FC
01FC
003C
003C
003C
003C
003C
003C
003C
003C
003C
003C
003C
003C
003C
0038
0038
0038
0038
0038
0038
0038
0038
0038
0038
0038
0038
0038
0038
0038
0038
0038
0038
0038
0078
0078
0078
0078
0070
0030
ENDCHAR
STARTCHAR colon
ENCODING 58
SWIDTH 289 0
DWIDTH 23 0
BBX 7 36 8 7
BITMAP
38
7C
7E
7E
7C
38
00
00
00
00
00
00
00
00
00
00
00
00
00
00
00
00
00
00
00
00
00
00
00
00
70
F8
FC
FC
F8
70
ENDCHAR
STARTCHAR semicolon
ENCODING 59
SWIDTH 298 0
DWIDTH 24 0
BBX 7 42 10 1
BITMAP
38
7C
FC
FC
7C
78
00
00
00
00
00
00
00
00
00
00
00
00
00
00
00
00
00
00
00
00
00
00
7C
FC
FE
FE
7E
7C
1C
1C
18
38
70
60
E0
80
ENDCHAR
STARTCHAR less
ENCODING 60
SWIDTH 378 0
DWIDTH 30 0
BBX 18 57 6 -1
BITMAP
000800
001C00
001E00
003E00
003C00
007C00
007C00
00F800
00F800
01F800
01F000
03F000
03E000
03E000
07C000
07C000
0F8000
0F8000
0F0000
1F0000
1E0000
1E0000
3C0000
3C0000
7C0000
780000
780000
780000
F80000
F80000
780000
7C0000
3C0000
3E0000
3E0000
1F0000
1F0000
1F8000
0F8000
0FC000
07C000
07E000
03E000
03E000
03F000
01F800
01F800
00F800
00FC00
007C00
007E00
003F00
001F00
001F80
000FC0
0007C0
000380
ENDCHAR
STARTCHAR equal
ENCODING 61
SWIDTH 431 0
DWIDTH 34 0
BBX 22 11 6 23
BITMAP
7FFFF8
FFFFFC
FFFFFC
3FFFF0
000000
000000
000000
000000
FFFFF8
FFFFFC
7FFFFC
ENDCHAR
STARTCHAR greater
ENCODING 62
SWIDTH 378 0
DWIDTH 30 0
BBX 17 57 6 -1
BITMAP
080000
1C0000
1E0000
1F0000
1F0000
0F8000
0F8000
0FC000
07C000
07E000
07E000
03E000
03F000
01F000
01F800
00F800
00FC00
007C00
007C00
003E00
003E00
001E00
001F00
000F00
000F00
000F80
000780
000780
000780
000780
000F80
000F00
001F00
001E00
003E00
003C00
007C00
007800
00F800
01F000
01F000
03E000
03E000
07C000
07C000
0F8000
0F8000
1F0000
1F0000
3E0000
3E0000
7C0000
7C0000
780000
F80000
F00000
700000
ENDCHAR
STARTCHAR question
ENCODING 63
SWIDTH 266 0
DWIDTH 21 0
BBX 12 61 5 0
BITMAP
1F00
7F80
7FC0
FBE0
F1E0
F1E0
F1F0
F0F0
F0F0
F0F0
F0F0
F0F0
60F0
00F0
00F0
01F0
01F0
01F0
01E0
01E0
01E0
01E0
01E0
03C0
03C0
03C0
03C0
0380
0380
0780
0780
0700
0700
0700
0700
0700
0F00
0F00
0E00
0E00
0E00
0E00
0E00
0E00
1E00
1E00
1E00
1E00
1E00
1E00
1E00
0E00
0000
0000
0000
0E00
1F00
3F00
3F00
1F00
0E00
ENDCHAR
STARTCHAR at
ENCODING 64
SWIDTH 571 0
DWIDTH 46 0
BBX 37 71 4 -4
BITMAP
0007FC0000
003FFF0000
00FFFFC000
03FFFFF000
07F807F800
0FE001FC00
0F8000FC00
1F00003E00
1F00003F00
3E00001F00
3C00000F80
7C00000F80
7C000007C0
78000007C0
7801F803C0
F807FC03E0
F80FFE03E0
F80FFF01E0
F81F8F81F0
F01F0F81F0
F03E07C1F0
F03E03C0F0
F03E03E0F0
F03C03E0F0
F07C01E0F8
F07C01E0F8
F07C01F0F8
F07C01F0F8
F07801F078
F07801F078
F07801F078
F07800F078
F07800F878
F07800F878
F07800F878
F07800F878
F07800F878
F07800F878
F07800F878
F07800F878
F07C00F878
F87C00F878
F87C00FCF8
F83C00FCF8
F83C01FCF8
F83E01FDF0
F83E03DFF0
783E03DFE0
781F078FE0
781F8F8780
780FFF0000
7C07FE0000
7C03FC0000
7C01F00000
3C00000000
3C00000000
3E00000000
3E00000000
1E00000000
1F00000000
0F000000C0
0F000001C0
0F80000780
0780000F80
07C0001F00
03E0007E00
01F001FC00
00FE1FF800
007FFFE000
003FFF8000
0007F80000
ENDCHAR
STARTCHAR A
ENCODING 65
SWIDTH 350 0
DWIDTH 28 0
BBX 22 60 1 0
BITMAP
000380
000780
0007C0
000FC0
000FC0
001FC0
001FC0
001FC0
003FC0
003FC0
003FC0
003FC0
007FE0
007FE0
0079E0
0079E0
00F9E0
00F1E0
00F1E0
00F1E0
00F1F0
01F1F0
01E1F0
01E1F0
01E1F0
01E1F0
01E0F0
03C0F0
03C0F0
03C0F0
03C0F8
03C0F8
07C0F8
0780F8
0780F8
0780F8
078078
078078
0F8078
0F8078
0F0078
0F0078
0FC078
0FFFF8
1FFFF8
1FFFFC
1E01FC
1E007C
1E007C
3E007C
3C007C
3C007C
3C007C
3C007C
7C007C
78007C
78007C
F8007C
70007C
000038
ENDCHAR
STARTCHAR B
ENCODING 66
SWIDTH 314 0
DWIDTH 25 0
BBX 17 60 5 0
BITMAP
7C0000
FF8000
FFC000
FFF000
F1F000
F0F800
F07C00
F03C00
F03C00
F01E00
F01E00
F01E00
F01E00
F01E00
F01E00
F03E00
F03C00
F03C00
F07C00
F07800
F0F800
F0F000
F1F000
F3E000
F7C000
FF8000
FF8000
FFC000
FFE000
F1F000
F07800
F03C00
F03C00
F01E00
F00E00
F00F00
F00F00
F80F00
F80780
F80780
F80780
F80780
F80780
F80780
F80780
F80780
F80780
F80780
F80780
F80F00
F80F00
F81F00
F81E00
F83E00
F8FC00
FBF800
FFF000
FFE000
FFC000
7E0000
ENDCHAR
STARTCHAR C
ENCODING 67
SWIDTH 337 0
DWIDTH 27 0
BBX 22 62 4 -1
BITMAP
007E00
03FF80
0FFFC0
1FFFC0
3FFFC0
7F83C0
7E0000
FC0000
F80000
F80000
F80000
F00000
F00000
F00000
F00000
F00000
F00000
F00000
F00000
F00000
F00000
F00000
F00000
F00000
F00000
F00000
F00000
F00000
F00000
F00000
F00000
F00000
F00000
F00000
F00000
F00000
F00000
F00000
F00000
F00000
F00000
F00000
F00000
F00000
F00000
F80000
F80000
780000
780000
7C0000
7C0000
7C0000
3E0000
3E0000
3F0030
1F80FC
1FC1FC
0FFFF8
07FFF8
03FFF0
01FFE0
007F00
ENDCHAR
STARTCHAR D
ENCODING 68
SWIDTH 379 0
DWIDTH 30 0
BBX 21 61 4 0
BITMAP
3FC000
FFF800
FFFC00
FFFE00
FFFF00
F8FF80
F83FC0
781FC0
780FE0
7807E0
7803E0
7803F0
7801F0
7801F0
7800F0
7800F8
7800F8
7800F8
780078
780078
780078
780078
780078
780078
780078
780078
7C0078
7C0078
7C0078
7C0078
3C0078
3C0078
3C0078
3C0078
3C0078
3C0078
3C0078
3C00F8
3C00F8
3C00F8
3C00F0
3C00F0
3C01F0
1C01F0
1C01E0
1E03E0
1E03E0
1E03C0
1E07C0
1E0780
1E0F80
1E1F00
1E1F00
3E3E00
3E7C00
3EFC00
3FF800
7FF000
7FE000
7FC000
1F0000
ENDCHAR
STARTCHAR E
ENCODING 69
SWIDTH 278 0
DWIDTH 22 0
BBX 15 61 4 0
BITMAP
0FC0
3FF0
7FF0
FFF0
FFE0
F800
7800
7800
7800
7800
7800
7800
7800
7C00
7C00
7C00
7C00
7C00
7C00
7C00
7C00
7C00
7C00
7C00
7800
7800
7800
79C0
7FE0
7FE0
7FE0
7FE0
7C00
7C00
7C00
7C00
7C00
7C00
7C00
7C00
7C00
7C00
7C00
7C00
7C00
7C00
7C00
7C00
7C00
7C00
7C00
7C00
7C00
7C00
7C00
7C00
7FF8
7FFE
7FFE
3FFC
1FF0
ENDCHAR
STARTCHAR F
ENCODING 70
SWIDTH 265 0
DWIDTH 21 0
BBX 13 61 4 0
BITMAP
1FE0
7FE0
7FE0
FFE0
F800
7800
7800
7800
7800
7800
7800
7800
7800
7800
7800
7C00
7C00
7C00
3C00
3C00
3C00
3C00
3C00
3C00
3C00
3C00
3DF0
3FF8
3FF8
3FF0
3FC0
3C00
3C00
3C00
3C00
3C00
3C00
3C00
3E00
3E00
3E00
3E00
3E00
3E00
3E00
1E00
1E00
1E00
1E00
1E00
1E00
1F00
1F00
1F00
1F00
1F00
1F00
1F00
1F00
1F00
0E00
ENDCHAR
STARTCHAR G
ENCODING 71
SWIDTH 371 0
DWIDTH 30 0
BBX 24 64 4 -2
BITMAP
003F00
00FF00
03FF80
07FF00
0FC000
0F0000
1F0000
1E0000
3E0000
3C0000
7C0000
7C0000
7C0000
780000
780000
F80000
F80000
F80000
F80000
F00000
F00000
F00000
F00000
F00000
F00000
F00000
F00000
F00000
F00000
F00000
F00000
F00000
F00000
F00000
F00000
F00000
F00000
F00000
F00000
F00000
F00000
F00000
F00000
F001F8
F007FC
F00FFC
F00FFC
F007FC
F0003E
78001E
78001E
78001E
78001E
3C001E
3C001E
3E001E
1E001F
1F001F
0F803F
07E0FF
07FFFF
03FFFF
00FFCF
003F0E
ENDCHAR
STARTCHAR H
ENCODING 72
SWIDTH 330 0
DWIDTH 26 0
BBX 17 62 4 -1
BITMAP
E00C00
F00E00
F00E00
F00E00
F00F00
F00F00
F00F00
F00F00
F00F00
F00F00
F00F00
F00F00
F00F00
F00F00
F00F00
F00F00
F00F00
F00F00
F00F00
F00F00
F00F00
F00F00
F00F00
F00F00
F00F00
F00F00
F00F00
F00F00
F00F00
FFFF00
FFFF00
FC0F00
F80F00
F80F00
F80F00
F80F00
F80F80
F80F80
780F80
780F80
780F80
780F80
780F80
780780
780780
780780
780780
780780
7C0780
7C0780
7C0780
3C0780
3C0780
3C0780
3C0780
3C0780
3C0780
3C0780
1C0780
1C0780
080780
000700
ENDCHAR
STARTCHAR I
ENCODING 73
SWIDTH 257 0
DWIDTH 21 0
BBX 14 61 3 0
BITMAP
0FE0
7FF0
FFF0
FFE0
7F00
0E00
0E00
0E00
0E00
0E00
0E00
0E00
0E00
0E00
0E00
0F00
0F00
0F00
0F00
0F00
0F00
0F00
0F00
0F00
0F00
0F00
0F00
0F00
0F00
0F00
0F00
0F00
0F80
0F80
0F80
0F80
0F80
0F80
0780
0780
0780
0780
0780
0780
0780
0780
0780
0780
0780
0780
0780
0780
0780
0780
0780
0780
0780
FFFC
FFFC
FFFC
3FF8
ENDCHAR
STARTCHAR J
ENCODING 74
SWIDTH 268 0
DWIDTH 21 0
BBX 14 67 2 -6
BITMAP
1FF8
FFFC
FFFC
FFF8
4780
0780
0780
0780
0780
0380
03C0
03C0
03C0
03C0
03C0
03C0
03C0
03C0
03C0
03C0
03C0
03C0
03C0
03C0
03C0
01C0
01C0
01C0
01C0
01E0
01E0
01E0
01E0
01E0
01E0
01E0
01E0
01E0
01E0
01E0
01E0
01E0
01E0
01E0
01E0
01E0
01E0
01E0
01E0
01E0
01E0
01E0
01E0
01E0
01E0
01E0
03E0
03E0
03E0
07E0
07C0
0FC0
1F80
7F80
7F00
7E00
7C00
ENDCHAR
STARTCHAR K
ENCODING 75
SWIDTH 356 0
DWIDTH 28 0
BBX 21 64 5 -2
BITMAP
000080
0001E0
4001E0
F003E0
F007C0
F807C0
F80F80
F80F80
F81F00
F81F00
F81E00
F83E00
F83C00
F87C00
787C00
787800
78F800
78F000
79F000
79E000
7BE000
7BC000
7BC000
7FC000
7FC000
7FC000
7FC000
7FC000
7FE000
7CE000
7CE000
78F000
787000
787000
703800
703800
703800
701C00
701C00
701C00
700E00
700E00
700E00
F00F00
F80700
F80700
F80780
F80780
F80380
F80380
F803C0
F803C0
F801C0
F801E0
F801E0
F801E0
F801F0
F800F0
F800F0
F800F8
F000F8
7000F8
000078
000070
ENDCHAR
STARTCHAR L
ENCODING 76
SWIDTH 250 0
DWIDTH 20 0
BBX 13 62 5 -1
BITMAP
E000
F000
F000
F000
F000
F000
F000
F000
F000
F000
F000
F000
F000
F000
F000
F000
F800
F800
F800
F800
F800
F800
F800
F800
F800
F800
F800
F800
F800
7800
7800
7800
7800
7800
7800
7800
7800
7800
7800
7800
7800
7800
7800
7800
7800
7800
7800
7800
7800
7800
7800
7800
7800
7800
7800
7800
7FF0
7FF8
7FF8
7FF8
7FF0
3800
ENDCHAR
STARTCHAR M
ENCODING 77
SWIDTH 453 0
DWIDTH 36 0
BBX 27 64 4 -2
BITMAP
00000100
00000780
700007C0
700007C0
780007C0
F80007C0
FC000FC0
FC000FC0
FE000FC0
FE000FC0
FE000FC0
FE000FC0
FF000FC0
FF000FC0
FF001FC0
FF001FC0
FF801FC0
F7801FC0
F7801FC0
F7801FC0
F3C03FC0
F3C03FC0
73C03FC0
73C03FC0
71C03FC0
71E07BC0
71E07BC0
71E07BC0
70E07BC0
70E073C0
70F0F3C0
70F0F3C0
7070F3C0
7070E3C0
7071E3C0
7079E3C0
7879E3C0
7839E3C0
7839C3C0
783BC3E0
783FC3E0
783FC3E0
783F83E0
783F83E0
783F83E0
783F83E0
783F83E0
783F83E0
783F83E0
781F03E0
F81F03E0
F81F03E0
F80E03E0
F80403E0
F80003E0
F80003E0
F80003E0
F80003E0
F80003E0
780003E0
780003E0
300003E0
000003C0
00000180
ENDCHAR
STARTCHAR N
ENCODING 78
SWIDTH 412 0
DWIDTH 33 0
BBX 24 63 4 -1
BITMAP
00000E
20001F
70001F
78001F
78001F
7C001E
7C001E
7C001E
7E001E
7E001E
7F001E
7F001E
77001E
77801E
F7801E
F7801E
F3801E
F3C01E
F3C01E
F3C01E
F1E01E
F1E01E
F1E01E
F1F01E
F0F01E
F0F01E
F0F01E
F0781E
F0781E
F0781E
F0781E
F03C1E
F03C1E
F03C1E
F03C1E
F01E1E
701E1E
701E1E
700E1E
700F1E
700F1E
700F1E
70071E
78079E
78079E
78039E
78039E
78039E
7801DE
7801DE
7801DE
7801DE
7800FE
7800FE
7800FE
78007E
78007E
78003E
78003E
78003E
7C001E
78001C
00000C
ENDCHAR
STARTCHAR O
ENCODING 79
SWIDTH 355 0
DWIDTH 28 0
BBX 20 64 4 -2
BITMAP
03E000
0FF800
1FFC00
3FFE00
3E3F00
7C1F00
7C0F80
780780
780780
F807C0
F803C0
F003C0
F003E0
F001E0
F001E0
F001E0
F001E0
F001E0
F001F0
E000F0
E000F0
E000F0
E000F0
E000F0
E000F0
E000F0
E000F0
E000F0
E000F0
E000F0
E000F0
E000F0
E000F0
E000F0
E000F0
F000F0
F000F0
F000F0
F000F0
F000F0
F000F0
F000F0
F000F0
F000F0
7800F0
7800F0
7800E0
7800E0
7800E0
7800E0
3C00E0
3C01E0
3C01E0
3E01E0
1E01E0
1E01E0
1F03E0
0F03C0
0F87C0
07C780
07FF80
03FF00
01FE00
007800
ENDCHAR
STARTCHAR P
ENCODING 80
SWIDTH 288 0
DWIDTH 23 0
BBX 16 61 4 0
BITMAP
7C00
7F80
FFC0
FFE0
FFF0
F7F8
71F8
70FC
707C
703E
783E
781E
781E
781E
781E
381F
381E
381E
381E
381E
381E
381E
383C
383C
387C
3878
38F8
39F0
3BE0
3FE0
3FC0
3F00
3E00
3C00
3C00
3C00
3C00
3C00
3C00
3C00
3C00
3C00
3C00
3C00
3C00
3C00
3C00
3C00
3C00
3C00
3C00
3C00
3C00
3C00
3C00
3C00
3C00
3C00
3C00
3C00
3800
ENDCHAR
STARTCHAR Q
ENCODING 81
SWIDTH 398 0
DWIDTH 32 0
BBX 23 72 4 -11
BITMAP
03F000
07FC00
0FFE00
1FFF00
3E3F80
3C0F80
7C07C0
7C07C0
7C03C0
7803E0
F803E0
F801E0
F801F0
F801F0
F801F0
F001F0
F000F0
F000F0
F000F0
F000F0
F000F0
F000F0
F000F0
F000F8
F000F8
F000F8
F000F8
F000F8
F000F8
F000F8
F000F8
F000F8
E000F8
E000F8
E000F0
E000F0
E000F0
E000F0
E000F0
F000F0
F000F0
F000F0
F000F0
F000F0
F000F0
F000F0
F000F0
F000F0
F800F0
7800F0
7800F0
7800E0
3C00E0
3C01E0
3C01C0
1E01C0
0F0380
078F00
03FF00
01FF00
001F00
000F00
000F00
000F00
000F80
000F80
000780
0007C0
0007FC
0003FE
0001FE
00007C
ENDCHAR
STARTCHAR R
ENCODING 82
SWIDTH 289 0
DWIDTH 23 0
BBX 18 61 4 0
BITMAP
7C0000
7F0000
7F8000
7FC000
7BE000
79E000
79F000
78F000
78F000
78F800
78F800
787800
787800
78F800
78F800
78F800
78F800
78F800
70F000
71F000
71F000
73E000
7BE000
7FE000
7FC000
7FC000
7F8000
7F8000
7F8000
7FC000
7BC000
7BC000
7BC000
79C000
79C000
79E000
79E000
78E000
78E000
78F000
787000
787000
787800
783800
783800
783800
783C00
781C00
781C00
781E00
781E00
780F00
780F00
F80F00
F80F00
F80F80
F80F80
F807C0
F80780
780780
700380
ENDCHAR
STARTCHAR S
ENCODING 83
SWIDTH 307 0
DWIDTH 25 0
BBX 17 63 3 -2
BITMAP
01F000
03FC00
0FFE00
0FFC00
1F8C00
3F0000
3E0000
3C0000
7C0000
7C0000
7C0000
7C0000
7C0000
7C0000
7C0000
7C0000
3C0000
3E0000
3E0000
3E0000
1E0000
1F0000
1F0000
0F8000
0F8000
07C000
07C000
03E000
03E000
01F000
01F000
00F800
00F800
007C00
007C00
003E00
003E00
003F00
001F00
001F00
001F00
000F80
000F80
000F80
000F80
000F80
000F80
000780
000F80
000F80
000F80
000F80
000F80
000F00
001F00
001F00
003E00
003E00
607C00
FDFC00
FFF800
7FE000
1F8000
ENDCHAR
STARTCHAR T
ENCODING 84
SWIDTH 262 0
DWIDTH 21 0
BBX 17 60 0 0
BITMAP
0FFF00
7FFF80
FFFF80
FFFF80
7FE000
01E000
00F000
00F000
00F000
00F000
00F000
00F000
00F000
00F000
00F000
00F000
00F000
00F000
00F000
00F000
00F000
00F000
00F000
00F000
00F000
00F000
00F000
00F000
00F000
00F000
00F000
00F000
00F000
00F000
00F000
007000
007000
007000
007000
007000
007000
007000
007000
007000
007800
007800
007800
007800
007800
007800
00F800
00F800
00F800
00F800
00F800
00F800
00F800
00F800
007800
007000
ENDCHAR
STARTCHAR U
ENCODING 85
SWIDTH 401 0
DWIDTH 32 0
BBX 23 61 4 -2
BITMAP
600030
F00078
F8007C
F8007C
F8007C
F80078
F80078
F80078
F80078
F80078
F80078
F80078
F80078
F80078
F80078
F80078
F80078
F80078
F80078
F80078
F80038
F8003C
F8003C
F8003C
F8003C
F8003C
FC003C
FC003C
FC003C
7C003C
7C003C
7C003C
7C003C
7C003C
7C001C
7C001C
7C001C
7C001C
7E001C
7E001C
7E001C
3E001C
3E001E
3E001E
3E001E
3E001E
1E001E
1F001E
1F001E
1F001E
0F801E
0F801E
0F803C
07C03C
07E03C
03E03C
01F078
01FEF8
00FFF0
003FE0
000FC0
ENDCHAR
STARTCHAR V
ENCODING 86
SWIDTH 350 0
DWIDTH 28 0
BBX 21 62 2 -1
BITMAP
C00070
E000F8
E000F8
F000F8
F000F0
F000F0
F000F0
7800F0
7800F0
7800F0
7800F0
7800F0
3C00F0
3C00F0
3C00E0
3C00E0
3C01E0
3E01E0
1E01E0
1E01E0
1E01E0
1E01E0
1E01E0
1F01C0
0F03C0
0F03C0
0F03C0
0F03C0
0F03C0
0F83C0
0783C0
078380
078780
078780
078780
07C780
07C780
03C780
03C700
03CF00
03CF00
03CF00
01EF00
01EF00
01EF00
01EF00
01FE00
01FE00
00FE00
00FE00
00FE00
00FE00
00FC00
00FC00
007C00
007C00
007C00
007C00
003800
003800
003800
001800
ENDCHAR
STARTCHAR W
ENCODING 87
SWIDTH 494 0
DWIDTH 40 0
BBX 33 63 2 -1
BITMAP
0000000700
0000000F80
7000000F80
7800000F80
F800000F80
7800000F80
7C00000F80
7C00000F80
7C03800F80
7C07C00F00
3E07C00F00
3E07C00F00
3E07C00F00
3E07C00F00
3E07C00F00
3E07C01F00
1E07C01F00
1F07E01F00
1F07E01F00
1F07E01F00
1F07E01E00
1F07E01E00
1F0FE01E00
0F0FF01E00
0F0FF03E00
0F8FF03E00
0F8FF03E00
0F8FF03C00
0F8FF83C00
0F8FF83C00
078F783C00
078F783C00
079E7C7C00
079E7C7800
079E7C7800
07DE7C7800
07DE3C7800
03DE3E7800
03DE3E7800
03DE3E7000
03FC3EF000
03FC3FF000
03FC3FF000
03FC1FF000
01FC1FF000
01FC1FF000
01FC1FE000
01FC1FE000
01FC1FE000
01FC0FE000
01F80FE000
01F80FE000
01F80FE000
00F80FE000
00F807E000
00F807E000
00F807E000
00F807E000
00F803E000
00F803E000
00F803E000
007801C000
007001C000
ENDCHAR
STARTCHAR X
ENCODING 88
SWIDTH 304 0
DWIDTH 24 0
BBX 17 61 3 0
BITMAP
000300
300380
380780
380780
380780
3C0F00
3C0F00
3C0F00
1C0F00
1E0E00
1E1E00
1E1E00
0E1E00
0E1C00
0F1C00
0F3C00
0F3C00
073800
073800
07B800
07F800
07F000
03F000
03F000
03F000
03F000
03E000
03E000
01E000
03E000
03E000
03E000
03E000
03F000
03F000
07F000
07F000
077000
077800
077800
0F3800
0E3800
0E3800
0E3C00
1E3C00
1E1C00
1C1C00
1C1C00
3C1E00
3C1E00
381E00
380E00
780F00
780F00
700F00
700F00
F00700
F00780
E00700
E00000
E00000
ENDCHAR
STARTCHAR Y
ENCODING 89
SWIDTH 265 0
DWIDTH 21 0
BBX 16 62 1 -1
BITMAP
6004
F00F
F01F
F01E
F81E
783E
783E
7C3E
7C3E
7C3E
3C3C
3E3C
3E7C
3E7C
1E7C
1E78
1F78
0F78
0F78
0F78
0778
07F0
07F0
07F0
03F0
03F0
03F0
03F0
03F0
03F0
03E0
03E0
03E0
01E0
01E0
01E0
01F0
01F0
01F0
01F0
00F0
00F0
00F0
00F0
00F0
00F0
00F0
00F0
00F0
00F0
00F0
00F0
00F0
00F0
00F0
00F0
00F0
00F0
00F0
01F0
00F0
00E0
ENDCHAR
STARTCHAR Z
ENCODING 90
SWIDTH 261 0
DWIDTH 21 0
BBX 14 61 2 0
BITMAP
00F8
7FFC
7FFC
7FFC
003C
007C
007C
007C
007C
007C
0078
0078
0078
0078
0078
00F8
00F8
00F8
00F8
00F8
00F0
00F0
00F0
01F0
01F0
01F0
01F0
01E0
01E0
01E0
03E0
03E0
03E0
03C0
03C0
03C0
07C0
07C0
0780
0780
0780
0780
0F00
0F00
0F00
0F00
0F00
1E00
1E00
1E00
1E00
3C00
3C00
3C00
3C00
7800
7800
7800
FFF8
FFF8
7FF8
ENDCHAR
STARTCHAR bracketleft
ENCODING 91
SWIDTH 315 0
DWIDTH 25 0
BBX 16 65 6 -4
BITMAP
0FF8
0FFE
0FFF
0F1E
0F00
0F00
0E00
0E00
0E00
0E00
0E00
0E00
1E00
1E00
1E00
1E00
1E00
1E00
1E00
1E00
1E00
1E00
1E00
1E00
1E00
1C00
1C00
3C00
3C00
3C00
3C00
3C00
3C00
3C00
3C00
3C00
3800
3800
3800
3800
3800
3800
3800
3800
3800
3800
3800
7800
7800
7800
7800
7800
7800
7800
7000
7000
F000
F000
F000
F000
FFC0
FFF0
FFF0
7FF0
0FF0
ENDCHAR
STARTCHAR backslash
ENCODING 92
SWIDTH 359 0
DWIDTH 29 0
BBX 17 62 5 -1
BITMAP
600000
F00000
F00000
F80000
F80000
7C0000
7C0000
7C0000
3E0000
3E0000
3E0000
3E0000
3F0000
1F0000
1F0000
1F0000
1F8000
1F8000
1F8000
0F8000
0FC000
0FC000
0FC000
0FC000
07E000
07E000
07E000
07E000
07F000
03F000
03F000
03F000
03F000
03F800
01F800
01F800
01F800
01F800
01FC00
00FC00
00FC00
00FC00
00FC00
007E00
007E00
007E00
007E00
003E00
003F00
003F00
003F00
001F00
001F00
001F00
001F80
000F80
000F80
000780
000780
000780
000380
000100
ENDCHAR
STARTCHAR bracketright
ENCODING 93
SWIDTH 319 0
DWIDTH 26 0
BBX 15 65 4 -4
BITMAP
3FE0
FFE0
FFE0
7CE0
00E0
00E0
00E0
00E0
00E0
00F0
00F0
00F0
00F0
00F0
00F0
00F0
00F0
00F0
00F0
00F0
00F0
00F0
00F0
00F8
0078
0078
0078
0078
0078
0078
0078
0078
0078
0078
0078
0078
0078
007C
003C
003C
003C
003C
003C
003C
003C
003C
003C
003C
003C
003C
003C
003C
003C
001E
001E
001E
001E
001E
001E
001E
07FE
1FFE
1FFE
1FFC
0FE0
ENDCHAR
STARTCHAR asciicircum
ENCODING 94
SWIDTH 363 0
DWIDTH 29 0
BBX 17 42 7 13
BITMAP
004000
01C000
03E000
03E000
03E000
03E000
076000
076000
076000
07E000
07E000
07E000
07E000
07F000
0E7000
0E7000
0E7000
0E7000
1E7000
1E7000
1C3800
1C3800
1C3800
3C3800
3C3800
3C3C00
3C1C00
381C00
381C00
381C00
781E00
780E00
700E00
700F00
700F00
F00F00
F00700
F00780
E00780
E00380
E00380
C00180
ENDCHAR
STARTCHAR underscore
ENCODING 95
SWIDTH 526 0
DWIDTH 42 0
BBX 33 3 10 -3
BITMAP
FFFFFFFF80
FFFFFFFF80
FFFFFFFF00
ENDCHAR
STARTCHAR grave
ENCODING 96
SWIDTH 378 0
DWIDTH 30 0
BBX 15 8 10 54
BITMAP
7000
7C00
FF00
FFC0
1FF0
07F8
007E
000E
ENDCHAR
STARTCHAR a
ENCODING 97
SWIDTH 299 0
DWIDTH 24 0
BBX 21 53 1 0
BITMAP
003C00
007E00
007E00
007E00
007E00
007E00
007E00
00FF00
00FF00
00FF00
00FF00
00FF00
00EF00
00EF00
00E700
01E700
01E780
01E780
01C780
01C780
01C780
03C780
03C780
038780
0383C0
0383C0
0383C0
0783C0
0783C0
0703C0
0703C0
0703C0
0F03C0
0F03C0
0F03E0
0F03E0
0E03E0
1F83E0
1FFFE0
1FFFE0
1E1FE0
3E01E0
3C01F0
3C01F0
3C01F0
7C00F0
7C00F0
7C00F0
7800F8
F800F8
F800F8
F800F8
700070
ENDCHAR
STARTCHAR b
ENCODING 98
SWIDTH 285 0
DWIDTH 23 0
BBX 14 54 5 -1
BITMAP
7C00
7F00
FFC0
FFE0
F9E0
78F0
78F0
78F8
78F8
7878
7878
7878
7878
7878
7878
7878
7878
7878
7878
78F8
78F8
78F8
79F0
7BF0
7FE0
7FE0
7FC0
FFE0
FFF0
F9F0
F9F8
F8F8
F8F8
F87C
F87C
F87C
F87C
F83C
F83C
F83C
F83C
F03C
F03C
F03C
F078
F078
F078
F0F0
F1F0
F3E0
FFE0
FFC0
FF00
7C00
ENDCHAR
STARTCHAR c
ENCODING 99
SWIDTH 279 0
DWIDTH 22 0
BBX 16 54 4 -1
BITMAP
007E
01FF
07FF
0FFE
1F80
1F00
3E00
3E00
7C00
7C00
7C00
7C00
F800
F800
F800
F800
F800
F800
F800
F800
F800
F800
F800
F800
F800
F800
F800
F800
F800
F000
F000
F000
F000
F000
F000
F000
F000
F000
F000
F000
F000
F800
F800
F800
F800
7C00
7C00
7E00
3E00
3F84
1FFF
0FFF
07FF
00FC
ENDCHAR
STARTCHAR d
ENCODING 100
SWIDTH 346 0
DWIDTH 28 0
BBX 19 53 5 0
BITMAP
7C0000
FF0000
FFC000
FFE000
F8F000
F87800
F83C00
F81E00
F81E00
F80F00
F80F00
F80780
F80780
F807C0
F807C0
7803C0
7803C0
7803E0
7803E0
7803E0
7803E0
7803E0
7803E0
7801E0
7801E0
7801E0
7801E0
7801E0
7801E0
7801E0
F801E0
F801E0
FC01E0
FC03E0
FC03E0
FC03E0
FC03C0
FC03C0
FC03C0
FC03C0
FC07C0
FC07C0
FC0780
FC0F80
FC0F80
FC1F00
FC1F00
7C3E00
7CFC00
7FF800
7FF000
7FE000
3F8000
ENDCHAR
STARTCHAR e
ENCODING 101
SWIDTH 284 0
DWIDTH 23 0
BBX 14 54 5 -1
BITMAP
3F00
7FE0
7FF8
7FF8
FFF8
F870
F800
F800
7800
7800
7800
7800
7800
7800
7800
7800
7800
7800
7800
7800
7800
7FE0
7FF0
7FF0
FFE0
F800
F800
F800
F800
F800
F800
F800
F800
F800
F800
F800
F800
F800
F800
F800
F800
F800
7800
7800
7800
7800
7800
7800
7800
7800
7FF8
7FFC
7FFC
3FF8
ENDCHAR
STARTCHAR f
ENCODING 102
SWIDTH 247 0
DWIDTH 20 0
BBX 15 53 4 0
BITMAP
1FE0
3FFC
3FFE
3FFE
3FFE
3C38
3C00
7C00
7C00
7C00
7C00
7C00
7C00
7C00
7C00
7C00
7800
7800
7800
7800
7800
7800
7800
7FC0
7FE0
7FE0
7FC0
7800
7800
7800
7800
7800
7800
7800
7800
7800
7800
F800
F800
F800
F800
F800
F800
F800
F800
F800
F800
F800
F800
F800
F800
F000
7000
ENDCHAR
STARTCHAR g
ENCODING 103
SWIDTH 346 0
DWIDTH 28 0
BBX 21 53 4 0
BITMAP
00FC00
03FE00
07FE00
0FFC00
1F8000
1F0000
3F0000
3E0000
3E0000
7E0000
7C0000
7C0000
7C0000
7C0000
FC0000
F80000
F80000
F80000
F80000
F80000
F80000
F80000
F80000
F80000
F80000
F80000
F80000
F80000
F81FE0
F83FF8
F83FF8
F81FF8
F800F8
F800F8
F800F0
F800F0
F800F0
F800F0
F800F0
F800F0
FC00F0
7C00F0
7C00F0
7C00F0
7E01F0
3E01F0
3F01F0
3F83F0
1FC3F0
0FFFE0
07FFC0
03FF80
00FE00
ENDCHAR
STARTCHAR h
ENCODING 104
SWIDTH 331 0
DWIDTH 26 0
BBX 17 53 5 0
BITMAP
601E00
F01E00
F01E00
F01E00
F81E00
F81E00
F81E00
F01E00
F01E00
F01E00
F01E00
F01E00
F01E00
F01E00
F01E00
F01E00
F01F00
F01F00
F01F00
F01F00
F00F00
F00F00
F00F00
F00F00
F00F00
FE0F00
FFFF00
FFFF00
F3FF00
F01F00
F01F00
F01F00
F01F00
F01F00
F01F00
F01F00
F01F00
F01F00
F01F00
F01F00
F81F00
F81F00
F81F00
F81F80
F81F80
F81F80
F81F80
F80F80
F80F80
F80F80
780F80
780F80
700700
ENDCHAR
STARTCHAR i
ENCODING 105
SWIDTH 226 0
DWIDTH 18 0
BBX 14 53 2 0
BITMAP
07E0
7FF0
FFF0
FFF0
7F00
0E00
0E00
0E00
0E00
0E00
0E00
0E00
0E00
0F00
0F00
0F00
0F00
0F00
0F00
0F00
0F00
0F00
0F00
0F00
0F00
0F00
0F00
0F00
0F00
0F00
0F00
0F00
0F80
0F80
0F80
0F80
0780
0780
0780
0780
0780
0780
0780
0780
0780
0780
0780
0780
0780
FFFC
FFFC
FFFC
3FF8
ENDCHAR
STARTCHAR j
ENCODING 106
SWIDTH 254 0
DWIDTH 20 0
BBX 18 59 0 -6
BITMAP
3FF000
3FFFC0
3FFFC0
07FF80
00F000
00F000
00F000
00F000
00F000
00F000
00F000
00F000
00F000
00F000
00F000
00F000
00F000
00F000
00F000
00F000
00F000
00F800
00F800
00F800
00F800
00F800
00F800
00F800
00F800
00F800
00F800
00F800
00F800
00F800
00F800
00F800
00F800
00F800
00F800
00F800
00F800
00F800
00F800
00F800
00F800
00F800
00F800
00F800
00F800
00F800
00F000
00F000
01F000
03E000
07E000
0FC000
7F8000
FF0000
FC0000
ENDCHAR
STARTCHAR k
ENCODING 107
SWIDTH 350 0
DWIDTH 28 0
BBX 21 54 5 -1
BITMAP
3800E0
3C01F0
3C03F0
3C03E0
3C07E0
3C07C0
7C0FC0
7C0F80
7C1F00
7C1F00
7C3E00
783E00
787C00
787800
78F800
78F000
79F000
79E000
7BE000
FBE000
FFE000
FFE000
FFE000
FFE000
FFE000
FCE000
FCF000
FCF000
F8F000
F8F000
F87800
F87800
F87800
F87800
F03C00
F03C00
F03C00
F03E00
F01E00
F01E00
F01F00
F01F00
F00F00
F00F80
F00F80
F007C0
F007C0
F003E0
F003F0
F001F0
F001F8
F000F8
F000F8
700070
ENDCHAR
STARTCHAR l
ENCODING 108
SWIDTH 268 0
DWIDTH 21 0
BBX 15 54 5 -1
BITMAP
3800
7800
7800
7800
7800
7800
7800
7800
7800
7800
7800
7800
7800
7800
7800
7800
7800
7800
7800
7800
7800
7800
7800
7800
7800
7800
7800
7800
7800
7800
7800
7800
7800
7800
7800
F800
F800
F800
F000
F000
F000
F000
F000
F000
F000
F000
F800
F800
F800
FC00
FFFC
FFFE
FFFE
703C
ENDCHAR
STARTCHAR m
ENCODING 109
SWIDTH 561 0
DWIDTH 45 0
BBX 35 57 5 -4
BITMAP
1800000700
3C00000F80
3E00000F80
3E00001F80
3E00001F80
3F00001F80
3F00003F80
3F80003F80
3F80007F80
3F80007F80
3FC0007F80
3FC0007F80
3FC000FF80
3DE000F780
3DE000F780
3DE000F780
3CF001F780
3CF001E780
3CF001E780
7CF803EF80
7C7803EFC0
787803CFC0
787803CFC0
787C07CFC0
783C07C7C0
783C0787C0
783E0787C0
783E0787C0
781E0F87C0
781E0F07C0
781F0F07C0
781F0F07C0
780F1F07C0
780F9E07C0
F80F9E07C0
F80F9E07C0
F807BE07C0
F807FC07C0
F807FC03C0
F807FC03C0
F807F803C0
F803F803C0
F803F803C0
F803F003C0
F803F003C0
F803F003C0
F803E003C0
F801E003C0
F800C003C0
F8000003C0
F8000003C0
F8000003C0
F8000003C0
F0000003E0
70000003E0
00000003E0
00000003C0
ENDCHAR
STARTCHAR n
ENCODING 110
SWIDTH 479 0
DWIDTH 38 0
BBX 26 53 6 0
BITMAP
380001C0
7C0003C0
7C0003C0
FE0003C0
FE0003C0
FF0003C0
FF0003C0
FF8003C0
FF8003C0
F7C003C0
F7C003C0
F7C003C0
F3E003C0
F3E003C0
F1E003C0
F1F003C0
F1F003C0
F0F003C0
F0F803C0
F0F803C0
F07803C0
F07C03C0
F03C03C0
F03C03C0
F03E03C0
F01E03C0
F01E03C0
F01E03C0
F00F03C0
F00F03C0
F00F03C0
F00783C0
F00783C0
F00783C0
F00387C0
F003C7C0
F001C780
F001C780
F001E780
F000E780
F000E780
F000E780
F000F780
F0007780
F0007780
F0007F80
F0003F80
F0003F80
F0003F00
F8003F00
F8003F00
F8001F00
70001E00
ENDCHAR
STARTCHAR o
ENCODING 111
SWIDTH 360 0
DWIDTH 29 0
BBX 21 55 4 -2
BITMAP
0FC000
1FF000
1FFC00
3FFE00
3E1F00
3C0780
7C0380
7803C0
7801C0
7801E0
7801E0
7800E0
F800F0
F800F0
F800F0
F800F0
F800F0
F800F8
F800F8
F800F8
F800F8
F800F8
F000F8
F000F8
F000F8
F000F8
F000F8
F000F8
F00078
F00078
F00078
F00078
F00078
F80078
F80078
F800F8
F800F8
F800F8
7800F8
7800F8
7800F0
7800F0
7800F0
7C00F0
7C01F0
3C01F0
3C01E0
3E03E0
1E03E0
1E07C0
0F07C0
0F9F80
07FF00
03FE00
00F800
ENDCHAR
STARTCHAR p
ENCODING 112
SWIDTH 281 0
DWIDTH 22 0
BBX 15 55 5 -2
BITMAP
3F80
7FE0
7FF0
7FF8
78F8
787C
783C
783C
783C
783C
783C
783E
783E
783E
783C
783C
783C
783C
783C
787C
787C
787C
78F8
78F8
79F0
FFE0
7F80
7F00
7800
7800
7800
7800
7800
7800
7800
7800
7800
7800
7800
7800
7800
7800
7C00
7C00
7C00
7C00
7C00
7C00
7C00
7C00
7C00
7C00
7C00
3C00
3800
ENDCHAR
STARTCHAR q
ENCODING 113
SWIDTH 358 0
DWIDTH 29 0
BBX 21 70 4 -17
BITMAP
01E000
07FC00
0FFE00
0F3F00
1E0F80
1E07C0
3C03C0
3C01E0
3C01E0
7801E0
7800F0
7800F0
7800F0
7800F0
7800F0
F800F0
F000F8
F000F8
F000F8
F000F8
F000F8
F000F8
F000F8
F000F8
F000F8
F000F8
F000F8
F000F8
F000F8
F000F8
F000F8
F000F8
F000F0
F000F0
F000F0
F000F0
F000F0
F000F0
F000F0
F000F0
F000F0
F801F0
F801E0
7801E0
7801E0
7801E0
7803E0
7C03C0
3C03C0
3C03C0
1E0780
1E0780
0F0F00
07FF00
01FE00
007C00
003C00
003C00
003C00
003C00
001C00
001E00
001E00
001E00
001E00
001F00
001FC0
001FE0
000FE0
0003E0
ENDCHAR
STARTCHAR r
ENCODING 114
SWIDTH 295 0
DWIDTH 24 0
BBX 16 54 5 -1
BITMAP
7C00
FF00
FFC0
F7E0
F1E0
F1F0
F0F0
F0F0
F0F0
F0F0
F0F0
F0F0
F0F0
F0F0
F0F0
F0F0
F1F0
F1F0
F1E0
F3E0
F3C0
F7C0
FF80
FF80
FF00
FF00
F780
F780
7780
7380
7380
73C0
73C0
73C0
71C0
71C0
71E0
71E0
70E0
70E0
70E0
70F0
70F0
7070
7078
7078
7078
703C
783C
783E
781E
781F
380F
0006
ENDCHAR
STARTCHAR s
ENCODING 115
SWIDTH 247 0
DWIDTH 20 0
BBX 13 54 3 -1
BITMAP
0780
1FC0
3FE0
3FE0
7C00
7800
7800
F000
F000
F000
F000
F000
F000
F000
F000
F000
F000
7800
7800
7C00
3C00
3E00
1E00
1F00
0F00
0F80
0780
03C0
03E0
01E0
01E0
00F0
00F0
00F0
0078
0078
0078
0078
0078
0078
0078
0078
0078
0078
0078
00F0
00F0
00F0
01E0
03E0
E7C0
FF80
FF00
7C00
ENDCHAR
STARTCHAR t
ENCODING 116
SWIDTH 256 0
DWIDTH 20 0
BBX 17 53 0 0
BITMAP
7FFF80
FFFF80
7FFF80
3FFF00
01E000
01E000
01E000
01E000
01E000
01E000
01E000
01E000
01E000
01E000
01E000
01E000
00E000
00E000
00E000
00F000
00F000
00F000
00F000
00F000
00F000
00F000
00F000
00F000
00F000
00F000
00F000
00F800
00F800
007800
007800
007800
007800
007800
007800
007800
007800
007800
007800
007800
007800
007800
007800
007800
007800
007800
007C00
007800
003000
ENDCHAR
STARTCHAR u
ENCODING 117
SWIDTH 361 0
DWIDTH 29 0
BBX 21 55 4 -1
BITMAP
0000F0
6000F0
E000F8
F000F8
F000F8
F000F0
F000F0
F000F0
F000F0
F000F0
F000F0
F000F0
F000F0
F000F0
F000F0
F000F0
F000F0
F000F0
F000F0
F000F0
F000F0
F000F0
F000F0
F000F0
F000F0
F000F0
F000F0
F000F0
F001F0
F001F0
F001E0
F001E0
F001E0
F001E0
F801E0
F801E0
F801E0
F801E0
7801E0
7803E0
7803C0
7803C0
7803C0
7803C0
7803C0
780780
780780
3C0780
3C0F00
3F1F00
1FFE00
1FFE00
0FFC00
07F800
01F000
ENDCHAR
STARTCHAR v
ENCODING 118
SWIDTH 352 0
DWIDTH 28 0
BBX 23 55 2 -1
BITMAP
00001C
E0001E
F0001E
F0001E
F8001E
F8003E
78003E
7C003C
7C003C
3C003C
3C003C
3E003C
3E0078
1E0078
1E0078
1F0070
1F0070
0F0070
0F0070
0F00E0
0F80E0
0F80E0
0780E0
0780E0
0780C0
0781C0
03C1C0
03C1C0
03C1C0
03C1C0
03C1C0
01C3C0
01C3C0
01E3C0
01E3C0
01E3C0
00E780
00E780
00E780
00E780
00F780
00F780
00FF80
00FF00
007F00
007F00
007F00
007F00
007E00
007E00
007E00
007C00
007C00
007800
003000
ENDCHAR
STARTCHAR w
ENCODING 119
SWIDTH 429 0
DWIDTH 34 0
BBX 28 55 2 -2
BITMAP
000000F0
000000F0
700000F0
F80000F0
780000F0
780000F0
780200F0
780700F0
780F80E0
380F81E0
380F81E0
380F81E0
380FC1E0
3C0FC1E0
3C0FC1E0
3C0FC1E0
3C0FC1E0
3C0FE1E0
3C0FE1E0
3C0EE1E0
1C1EE1E0
1C1EE1E0
1E1EE1E0
1E1EE1E0
1E1EF1E0
1E1EF1E0
1E1E71E0
1E1E71E0
1E1E71C0
1F1C71C0
1F3C73C0
1F3C73C0
1F3C33C0
0F3C3BC0
0F3C3BC0
0F3C3BC0
0F3C3B80
0F7C3B80
0FFC3B80
0FF81B80
0FF81F80
0FF81F80
07F81F80
07F81F80
07F81F80
07F01F80
07F01F80
07F01F80
03F01F80
03F01F80
03E01F00
03E00F00
01E00F00
01C00000
00C00000
ENDCHAR
STARTCHAR x
ENCODING 120
SWIDTH 243 0
DWIDTH 19 0
BBX 15 52 2 0
BITMAP
2018
F03C
F07C
F878
7878
7878
7878
7C78
3C78
3C78
3C70
1E70
1E70
1EF0
1EE0
0EE0
0EE0
0FE0
0FE0
0FE0
07C0
07C0
07C0
07C0
07C0
03C0
03C0
03C0
03C0
07C0
07C0
07C0
07C0
07E0
0FE0
0FE0
0EF0
0EF0
1EF0
1EF8
1E78
1E78
3E7C
3E7C
3C7C
3C3E
7C3E
7C3E
7C1E
7C1E
781E
380E
ENDCHAR
STARTCHAR y
ENCODING 121
SWIDTH 283 0
DWIDTH 23 0
BBX 18 54 1 -1
BITMAP
000180
2003C0
F007C0
F007C0
7807C0
780F80
7C0F80
7C0F80
3C0F80
3E1F80
1E1F00
1E1F00
1F1F00
0F1E00
0F3E00
0FBE00
07BE00
07BC00
03BC00
03FC00
03FC00
01F800
01F800
00F800
00F800
00F800
00F800
00F800
00F800
00F800
00F800
007800
007800
007800
007800
007800
007800
007800
007800
007800
007800
007800
007800
007800
007800
007800
007800
007800
007800
007800
007800
00F800
00F000
007000
ENDCHAR
STARTCHAR z
ENCODING 122
SWIDTH 292 0
DWIDTH 23 0
BBX 16 53 4 0
BITMAP
03FE
0FFF
1FFF
1FFF
0FFF
001E
001E
001E
001E
003C
003C
003C
0078
0078
0078
0070
00F0
00F0
00F0
01F0
01E0
01E0
03E0
03E0
03E0
07C0
07C0
07C0
07C0
0F80
0F80
0F80
1F80
1F00
1F00
1F00
3F00
3E00
3E00
3E00
7E00
7C00
7C00
7C00
7C00
F800
F800
F800
F800
FFF0
FFF0
FFF0
7000
ENDCHAR
STARTCHAR braceleft
ENCODING 123
SWIDTH 320 0
DWIDTH 26 0
BBX 19 60 4 -2
BITMAP
003F00
00FFC0
01FFE0
01F7C0
03E000
03C000
07C000
078000
078000
078000
078000
078000
078000
078000
078000
078000
078000
078000
078000
078000
078000
078000
078000
078000
078000
078000
1F8000
FF0000
FF0000
FF0000
0F8000
078000
078000
078000
078000
078000
078000
078000
078000
078000
078000
078000
078000
078000
078000
078000
078000
078000
078000
078000
078000
078000
078000
038000
03C000
03C000
03F7C0
01FFC0
00FFC0
003F00
ENDCHAR
STARTCHAR bar
ENCODING 124
SWIDTH 174 0
DWIDTH 14 0
BBX 4 64 5 -3
BITMAP
70
F0
F0
F0
F0
F0
F0
F0
F0
F0
F0
F0
F0
F0
F0
F0
F0
F0
F0
F0
F0
F0
F0
F0
F0
F0
F0
F0
F0
F0
F0
F0
F0
F0
F0
F0
F0
F0
F0
F0
F0
F0
F0
F0
F0
F0
F0
F0
F0
F0
F0
F0
F0
F0
F0
F0
F0
F0
F0
F0
F0
F0
70
70
ENDCHAR
STARTCHAR braceright
ENCODING 125
SWIDTH 315 0
DWIDTH 25 0
BBX 18 60 3 -2
BITMAP
3F8000
7FE000
7FE000
79F000
00F000
007800
007800
007800
007800
003800
003800
003800
003800
003800
003800
003800
003800
003800
003800
003800
003800
007800
007800
007800
007800
007800
003C00
003E00
003FC0
001FC0
003FC0
003F00
003C00
003800
007800
007800
007800
007800
007800
007800
007800
007800
003C00
003C00
003C00
003C00
003C00
003C00
003800
003800
003800
007800
007800
007800
007800
00F800
F9F000
FFE000
FFC000
3F0000
ENDCHAR
STARTCHAR asciitilde
ENCODING 126
SWIDTH 475 0
DWIDTH 38 0
BBX 25 6 6 41
BITMAP
3FE00780
7FFC0780
FFFFCF80
F1FFFF80
F03FFF00
7007FE00
ENDCHAR
STARTCHAR uni00A0
ENCODING 160
SWIDTH 183 0
DWIDTH 15 0
BBX 1 1 0 0
BITMAP
00
ENDCHAR
STARTCHAR exclamdown
ENCODING 161
SWIDTH 217 0
DWIDTH 17 0
BBX 8 63 5 -10
BITMAP
3C
7E
7F
7F
7E
3E
1C
00
00
00
00
00
00
00
10
38
38
38
3C
3C
3C
3C
3C
3C
3C
3C
3C
3C
3C
3C
3C
38
38
38
38
38
38
38
38
78
78
78
7C
7C
7C
7C
7C
7C
7C
7C
7C
7C
7C
7C
7C
7C
7C
FC
FC
FC
FC
F8
70
ENDCHAR
STARTCHAR cent
ENCODING 162
SWIDTH 413 0
DWIDTH 33 0
BBX 20 58 7 -1
BITMAP
010000
038000
038000
038000
038000
038000
038000
038000
03C000
07F800
0FFE00
1FFF00
3FCF80
3FC700
7FC300
79C000
79C000
F9C000
F1C000
F1C000
F1C000
F1C000
F0E000
F0E000
F0E000
F0E000
F0E000
F0E000
F0E000
F0E000
F0E000
F0F000
F0F000
F0F000
F0F000
F0F000
78F000
78F020
78F070
3CF070
3EF0F0
1FF1F0
0FFFE0
07FFC0
01FF00
007800
007000
007000
007000
007000
007000
007000
007000
007000
007800
007800
007800
003000
ENDCHAR
STARTCHAR sterling
ENCODING 163
SWIDTH 396 0
DWIDTH 32 0
BBX 26 63 5 0
BITMAP
01F00000
07F80000
07FC0000
0FBC0000
1F1E0000
1E0F0000
1E0F0000
1C0F0000
3C070000
3C070000
3C000000
3C000000
3C000000
3C000000
3C000000
3C000000
3C000000
3C000000
3C000000
3C000000
3C000000
3C000000
1C000000
1C000000
1C000000
FFFF0000
FFFF0000
FFFF0000
1E000000
0E000000
0F000000
0F000000
07000000
07000000
07800000
07800000
03800000
03800000
03C00000
03C00000
01C00000
01C00000
01E00000
01E00000
01E00000
01E00000
00E00000
00E00000
00E00000
01E00000
01E00000
01E00000
01E00000
01E00000
01C00000
03C00000
07C00000
0FF80000
3FFFC7C0
7FFFFFC0
FF3FFFC0
FC00FF00
60000000
ENDCHAR
STARTCHAR currency
ENCODING 164
SWIDTH 492 0
DWIDTH 39 0
BBX 28 45 5 8
BITMAP
000000E0
000001F0
000001F0
301F03F0
783FE7E0
7C7FFFC0
7EFFFFC0
3FF87F80
1FE03F00
0FC01F00
0FC01F80
07C00780
0FC00780
0F800380
1F0003C0
1F0003C0
1E0003C0
1E0001E0
1E0001E0
1E0001E0
3E0001F0
3E0001F0
3E0001F0
3C0001F0
3C0001F0
3C0001F0
3C0001E0
3E0001E0
3C0001E0
3C0001E0
3C0003C0
3C0003C0
3E0003C0
3E0003C0
3E000780
3F000780
1F000F80
1F800F80
3F801FC0
7FC03FC0
FFE07FE0
FFFFFFF0
F9FFF9F0
707FC1F0
000000E0
ENDCHAR
STARTCHAR yen
ENCODING 165
SWIDTH 483 0
DWIDTH 39 0
BBX 33 72 2 0
BITMAP
0000001000
0000003800
0000007C00
6000007C00
F80000F800
F80000F800
7C0000F800
3E0001F000
3F0001F000
1F0003F000
0F8003E000
07C003E000
07C003E000
03E007C000
03F007C000
01F007C000
01F80F8000
00F80F8000
00FC0F8000
007E1F0000
007E1F0000
003F1F0000
003F1E0000
001FBE0000
001FFE0000
000FFE0000
0007FC0000
0007FC0000
0003F80000
0001F80000
0000F83C00
07FFFFFF00
07FFFFFF80
07FFFFFF00
0000F00000
0000F00000
0000F00000
0000FFFC00
0FFFFFFF00
0FFFFFFF00
0FFFFFFF00
07FFFFFF00
0001F00000
0001F00000
0001F00000
0001F00000
0001F00000
0001F00000
0001F00000
0001F00000
0001F00000
0001F00000
0001F00000
0001F00000
0001F00000
0001F00000
0001E00000
0001E00000
0001E00000
0001E00000
0001E00000
0001E00000
0001E00000
0001E00000
0001E00000
0003E00000
0003E00000
0003E00000
0003E00000
0003E00000
0003E00000
0001C00000
ENDCHAR
STARTCHAR brokenbar
ENCODING 166
SWIDTH 174 0
DWIDTH 14 0
BBX 4 64 5 -3
BITMAP
60
F0
F0
F0
F0
F0
F0
F0
F0
F0
F0
F0
F0
F0
F0
F0
F0
F0
F0
F0
F0
F0
F0
F0
F0
F0
F0
70
60
00
00
00
00
00
60
F0
F0
F0
F0
F0
F0
F0
F0
F0
F0
F0
F0
F0
F0
F0
F0
F0
F0
F0
F0
F0
F0
F0
F0
F0
F0
F0
F0
70
ENDCHAR
STARTCHAR section
ENCODING 167
SWIDTH 264 0
DWIDTH 21 0
BBX 14 56 3 0
BITMAP
07C0
1FF0
3FF0
3E00
3800
7800
7800
7800
7800
3800
3800
3C00
3C00
3E00
1E00
1F00
0F80
1F80
3FC0
7FC0
7FE0
7BF0
F9F0
F0F8
F0F8
F078
F07C
F03C
783C
783C
783C
3C3C
3E3C
1E3C
0F7C
0FF8
07F8
03F0
03E0
01E0
00F0
00F0
0078
0078
0038
003C
003C
003C
0078
0078
00F8
00F8
1FF0
3FE0
1FC0
0F80
ENDCHAR
STARTCHAR dieresis
ENCODING 168
SWIDTH 352 0
DWIDTH 28 0
BBX 19 6 4 53
BITMAP
3803C0
7C07C0
FC07E0
FC07E0
7C07E0
7803C0
ENDCHAR
STARTCHAR copyright
ENCODING 169
SWIDTH 633 0
DWIDTH 51 0
BBX 40 71 5 -1
BITMAP
0003F80000
001FFF0000
003FFFC000
007F9FE000
00FC03F800
01F801FC00
03E000FC00
03E0007E00
07C0003F00
0780001F00
0F80000F80
0F000007C0
1F007C07C0
1F01FF03E0
1E03FF83E0
3E07FFE1E0
3E0FC7E1F0
3C0F83F0F0
3C1F01F8F8
7C1F01F8F8
7C3E00F8F8
7C3E007878
7C3E00007C
783E00007C
787C00007C
787C00003C
787C00003E
F87C00003E
F87C00003E
F87C00003E
F87C00001E
F87C00001E
F87C00001E
F87C00001F
F87C00001F
F87800001F
F87800001F
F87800001F
F87800001F
F87800001F
F87800001F
787800001F
787800001F
787800001F
787800001F
787800001F
7C7C00001F
7C7C00001E
7C7C00001E
7C7C00001E
7C3C00001E
7C3E00003E
7C3E00003E
7C1E00383E
3C1F007C3C
3C0F80FC3C
3E0FC1FC7C
3E07FFF878
3E07FFF0F8
1E00FFC0F8
1F003F01F0
1F000001F0
0F800003E0
0F800007E0
07C0000FC0
07F0003F80
03FC01FF00
01FFFFFE00
007FFFF800
001FFFE000
0003FF0000
ENDCHAR
STARTCHAR ordfeminine
ENCODING 170
SWIDTH 299 0
DWIDTH 24 0
BBX 15 30 4 30
BITMAP
03E0
03E0
03E0
03E0
07E0
07F0
07F0
0770
0770
0770
0670
0670
0E70
0E78
0E78
0C78
1C78
1C78
1C78
1C38
3C3C
3FFC
3FFC
78FC
783C
783C
783C
F83E
F01E
701E
ENDCHAR
STARTCHAR guillemotleft
ENCODING 171
SWIDTH 447 0
DWIDTH 36 0
BBX 28 60 4 -2
BITMAP
00040000
000E0000
000F0300
001F0780
001E0780
003E0F80
003E0F80
003C0F00
007C0F00
00781F00
00F81E00
00F81E00
01F03E00
01F03C00
01F07C00
03E07800
03E0F800
07C0F000
07C0F000
07C1E000
0F81E000
0F83C000
1F83C000
1F078000
1F078000
3E0F8000
3E0F0000
7E0F0000
7C1F0000
7C1E0000
F81E0000
F81E0000
F81F0000
780F0000
780F8000
3C0F8000
3C078000
1E07C000
1E03C000
0F03E000
0F01E000
0781F000
07C0F000
03C0F800
03E07800
01E07C00
01F03C00
00F83E00
00F81F00
007C1F00
007C0F80
003E0F80
003F07C0
001F07C0
000F83E0
000F83E0
0007C1F0
0007C0F0
0003C0E0
0001C000
ENDCHAR
STARTCHAR logicalnot
ENCODING 172
SWIDTH 536 0
DWIDTH 43 0
BBX 31 15 5 18
BITMAP
000003FC
3FFFFFFE
FFFFFFFE
FFFFFFFE
FFFFFFFE
0000001C
0000001C
0000001C
0000001C
0000001C
0000001E
0000001E
0000001E
0000001E
0000000C
ENDCHAR
STARTCHAR uni00AD
ENCODING 173
SWIDTH 283 0
DWIDTH 23 0
BBX 12 3 5 27
BITMAP
7FF0
FFF0
7FC0
ENDCHAR
STARTCHAR registered
ENCODING 174
SWIDTH 592 0
DWIDTH 47 0
BBX 39 83 4 -7
BITMAP
0000FF0000
0007FFC000
001FFFF000
003FFFF800
00FF81FC00
01FE00FE00
01F8003F00
03F0001F80
07E0000FC0
07C00007C0
0FC00007E0
0F800003E0
1F03F803E0
1F0FFE01E0
1F1FFF01F0
3E3FFF80F0
3E3F0FC0F0
3E3E07C0F0
7C3E03E0F8
7C3C03E078
7C3C03E078
7C3C03E078
783C01E078
783C01E078
F83C01E03C
F83E01E03C
F83E01E03C
F83E01E03C
F83E03E03C
F81E03E03C
F01E03E03C
F01E03E03C
F01E07C03C
F01E0FC03C
F01E1F803E
F01E3F001E
F01EFE001E
F01FFC001E
F01FFC001E
F01FFC001E
F01FBC001E
F01F3E001E
F01F3E001E
F01E1E001E
F01E1E001E
F01E1F001E
F01E1F001E
F01E0F001E
F01E0F801E
F01F0F801E
F01F0F801E
F81F07801E
F81F07C01E
F81F07C03E
F81F07C03E
F81F03E03E
F80F03E03E
F80F03E03E
F80F03E03E
F80F81F03C
F80F81F03C
F80F81F03C
7C0F81F83C
7C0F80F87C
7C0F80FC7C
7C0F807C78
7C0F807C78
3C0F803CF8
3E0F803CF8
3E07001CF0
1E000001F0
1F000001F0
1F000003E0
0F800007E0
07C0000FC0
07E0001FC0
03F0003F80
01F800FF00
00FF03FE00
007FFFFC00
003FFFF800
000FFFE000
0000FF0000
ENDCHAR
STARTCHAR macron
ENCODING 175
SWIDTH 439 0
DWIDTH 35 0
BBX 22 4 6 55
BITMAP
7FFFF8
FFFFFC
FFFFFC
7FFFFC
ENDCHAR
STARTCHAR degree
ENCODING 176
SWIDTH 431 0
DWIDTH 34 0
BBX 20 21 7 39
BITMAP
03F000
0FFE00
1FFF80
3E07C0
7801E0
7000E0
F00070
E00070
E00030
E00030
E00030
E00070
E00070
E00070
7000E0
7801E0
7C03C0
3F1F80
1FFF00
0FFE00
03F800
ENDCHAR
STARTCHAR plusminus
ENCODING 177
SWIDTH 439 0
DWIDTH 35 0
BBX 22 32 6 5
BITMAP
007000
00F800
00F800
00F800
00F800
00F800
00F800
00F800
00F800
007800
7FFFF8
FFFFFC
FFFFFC
7FFFFC
007C00
007800
007800
007800
007800
007800
007C00
007C00
007C00
007C00
007800
000000
000000
000000
7FFFF8
FFFFFC
FFFFFC
7FFFFC
ENDCHAR
STARTCHAR uni00B2
ENCODING 178
SWIDTH 264 0
DWIDTH 21 0
BBX 11 34 3 27
BITMAP
0F00
7F80
73C0
71C0
71E0
21E0
01E0
01E0
01E0
01E0
01E0
01E0
01E0
01C0
01C0
01C0
03C0
03C0
0380
0380
0780
0780
0F00
0F00
0E00
1E00
1E00
3C00
3C00
3800
7800
7FE0
FFE0
FFE0
ENDCHAR
STARTCHAR uni00B3
ENCODING 179
SWIDTH 270 0
DWIDTH 22 0
BBX 13 35 2 26
BITMAP
1E00
3F80
73C0
F3C0
E1C0
E1E0
01E0
01E0
01E0
01E0
01E0
01E0
03C0
0380
07C0
0FC0
07E0
01E0
01F0
00F0
00F0
0070
0070
0078
0078
0078
0078
0078
0078
0070
10F0
39E0
3FE0
1FC0
0700
ENDCHAR
STARTCHAR acute
ENCODING 180
SWIDTH 343 0
DWIDTH 27 0
BBX 14 11 8 51
BITMAP
0018
007C
00FC
01FC
03F8
07F0
0FC0
1F80
7E00
F800
E000
ENDCHAR
STARTCHAR uni00B5
ENCODING 181
SWIDTH 361 0
DWIDTH 29 0
BBX 21 65 4 -11
BITMAP
0000E0
6000F0
F000F0
F000F8
F000F8
F000F8
F000F0
F000F0
F000F0
F000F0
F000F0
F000F0
F000F0
F000F0
F000F0
F000F0
F000F0
F000F0
F000F0
F000F0
F000F0
F000F0
F000F0
F000F0
F000F0
F000F0
F000F0
F000F0
F001F0
F001F0
F001E0
F001E0
F001E0
F001E0
F001E0
F801E0
F801E0
F801E0
F801E0
F801E0
F803C0
F803C0
F803C0
F803C0
F803C0
F80780
F80780
FC0780
FC0F00
FF1F00
FFFE00
FFFE00
FFFC00
F7F800
F1F000
F00000
F00000
F00000
F00000
F00000
F00000
F00000
F00000
700000
700000
ENDCHAR
STARTCHAR paragraph
ENCODING 182
SWIDTH 478 0
DWIDTH 38 0
BBX 32 74 1 -1
BITMAP
00000F20
0001FFFE
003FFFFF
01FFFFFF
03FFFCFF
0FE03CF8
0FC03C78
1F003C78
3E003C78
3E003C78
7C003C78
7C003C78
78003C78
F8003C78
F8003C78
F0003C78
F0003C78
F0003C78
F0003C78
F8003C78
F8003C78
F8003C78
7C003C78
7C003E78
3E003E7C
3F003E7C
1FE03E7C
07FFFE7C
03FFFE7C
003FFE7C
00003E7C
00003E7C
00003E7C
00003E7C
00003E7C
00003E7C
00003E78
00003E78
00003E78
00003E78
00003E78
00003E78
00003E78
00003E78
00003E78
00003E78
00003E78
00003C78
00003C78
00003C78
00003C78
00003C78
00003C78
00003C78
00007C78
00007C78
00007C78
00007CF8
00007CF8
00007CF8
00007CF8
00007CF8
00007CF8
00007CF8
00007CF8
00007CF8
00007CF8
000078F8
000078F8
000078F8
000078FC
0000787C
00003878
00000038
ENDCHAR
STARTCHAR periodcentered
ENCODING 183
SWIDTH 289 0
DWIDTH 23 0
BBX 6 6 8 25
BITMAP
38
7C
FC
FC
7C
38
ENDCHAR
STARTCHAR cedilla
ENCODING 184
SWIDTH 378 0
DWIDTH 30 0
BBX 9 18 9 -17
BITMAP
3000
3000
3000
7000
7C00
7F00
3F00
0380
0380
0380
0380
0380
0380
0380
0780
CF00
FE00
7800
ENDCHAR
STARTCHAR uni00B9
ENCODING 185
SWIDTH 238 0
DWIDTH 19 0
BBX 12 34 2 27
BITMAP
7E00
FE00
FE00
1E00
0E00
0E00
0F00
0F00
0F00
0F00
0F00
0F00
0F00
0F00
0F00
0F00
0F00
0F00
0700
0700
0700
0700
0700
0700
0780
0780
0780
0780
0780
0780
0780
1FF0
1FF0
1FE0
ENDCHAR
STARTCHAR ordmasculine
ENCODING 186
SWIDTH 292 0
DWIDTH 23 0
BBX 15 30 4 31
BITMAP
1F00
7FE0
7FF0
7DF8
7878
F03C
F03C
F03C
F03C
F03C
F03E
F03E
F03E
F01E
F01E
F01E
F01E
F01E
F01E
F01E
F01E
F03C
F83C
783C
783C
787C
7CF8
3FF8
1FF0
0FE0
ENDCHAR
STARTCHAR guillemotright
ENCODING 187
SWIDTH 456 0
DWIDTH 36 0
BBX 28 60 4 -2
BITMAP
00060000
000F0000
080F8000
1E0F8000
1E078000
1E03C000
1F03C000
1F01E000
0F01E000
0F81E000
0F80F000
0780F000
07C07800
03C07800
03E07C00
01E03C00
01E03C00
00F03E00
00F01E00
00781F00
00781F00
003C0F00
003C0F80
001E0F80
001E07C0
000F07C0
000F07C0
000F03E0
000F83E0
000781E0
000781F0
000F81F0
000F81E0
000F01E0
001F03C0
001E03C0
003E07C0
003C0780
007C0F80
00780F00
00F81F00
00F01E00
01F03E00
01E07C00
03E07C00
03C0F800
07C0F800
0781F000
0F83E000
0F03E000
1F07C000
1E07C000
3E0F8000
3C1F8000
7C1F0000
F83E0000
F83E0000
F03C0000
F0780000
00380000
ENDCHAR
STARTCHAR onequarter
ENCODING 188
SWIDTH 653 0
DWIDTH 52 0
BBX 46 61 2 -1
BITMAP
7E00000C0000
FE00001E0000
FE00001E0000
1E00001E0000
0E00001E0000
0E00003E0000
0F00003C0000
0F00003C0000
0F00003C0000
0F0000780000
0F0000780000
0F0000780000
0F0000780000
0F0000F00000
0F0000F00000
0F0000F00000
0F0001F00000
070001F00000
070001E00000
070001E00000
070003E00000
070003E00000
070003C00000
070003C00000
078007C00000
078007C00000
078007800000
07800F800000
07800F807000
07800F807800
1FF00F807000
1FF01F007000
1FF01F007000
00001F007000
00001F007000
00003E007870
00003E0078F0
00003E0078F0
00003E0078F0
00007C0070F0
00007C0070F0
00007C00F0F0
00007C00F0F0
0000FC00F0F0
0000F800F0F0
0000F800F0F0
0000F800F0F0
0001F800FFFC
0001F000FFFC
0001F000FFFC
0001F00010F0
0001F00000F0
0003F00000F0
0003E00000F0
0003E00000F0
0003E00000F0
0003E0000070
0003C0000070
0003C0000070
0003C00000F0
000380000070
ENDCHAR
STARTCHAR onehalf
ENCODING 189
SWIDTH 661 0
DWIDTH 53 0
BBX 45 62 2 -1
BITMAP
7E00000E0000
FE00000F0000
FE00001F0000
1E00001E0000
0E00001E0000
0E00001E0000
0F00001E0000
0F00003C0000
0F00003C0000
0F00003C0000
0F00003C0000
0F0000780000
0F0000780000
0F0000780000
0F0000780000
0F0000F80000
0F0000F00000
0F0000F00000
070000F00000
070001F00000
070001E00000
070001E00000
070003E00000
070003E00000
078003C00000
078003C00000
078007C00000
078007C007C0
078007C01FE0
07800F801CF0
07800F803CF0
1FF00F801C70
1FF00F800870
1FE01F000078
00001F000078
00001F000078
00001F000078
00003F000078
00003E000070
00003E000070
00003E000070
00007E000070
00007C0000F0
00007C0000F0
00007C0000F0
0000FC0000E0
0000F80001E0
0000F80001E0
0000F80001C0
0000F80003C0
0001F80003C0
0001F0000380
0001F0000780
0001F0000700
0001F0000F00
0001F0000F00
0003E0001E00
0003E0001C00
0003E0001FF8
0003C0003FF8
0003C0003FF8
000180000000
ENDCHAR
STARTCHAR threequarters
ENCODING 190
SWIDTH 653 0
DWIDTH 52 0
BBX 46 62 2 -1
BITMAP
1E0000000000
3F8000380000
73C0003C0000
F3C0003C0000
E1C0007C0000
E1E000780000
01E000780000
01E000780000
01E000780000
01E000F00000
01E000F00000
01E000F00000
03C000F00000
038001E00000
07C001E00000
0FC001E00000
07E003E00000
01E003C00000
01F003C00000
00F003C00000
00F007C00000
007007C00000
007007800000
007807800000
00780F800000
00780F800000
00780F000000
00781F000000
00781F000000
00701F007000
10F01E007800
39E03E007000
3FE03E007000
1FC03E007000
07003E007000
00007C007000
00007C007870
00007C0078F0
00007C0078F0
0000F80078F0
0000F80070F0
0000F80070F0
0000F800F0F0
0001F800F0F0
0001F000F0F0
0001F000F0F0
0001F000F0F0
0003F000F0F0
0003E000FFFC
0003E000FFFC
0003E000FFFC
0003E00010F0
0007E00000F0
0007C00000F0
0007C00000F0
0007C00000F0
0007C00000F0
0007C0000070
000780000070
000780000070
0007800000F0
000700000070
ENDCHAR
STARTCHAR questiondown
ENCODING 191
SWIDTH 266 0
DWIDTH 21 0
BBX 12 60 5 -7
BITMAP
0F00
0F80
1F80
1F80
0F80
0700
0000
0000
0000
0700
0700
0700
0700
0700
0700
0700
0700
0700
0F00
0F00
0F00
0F00
0F00
0E00
0E00
0E00
0E00
1E00
1E00
1C00
1C00
1C00
3C00
3C00
3C00
3800
7800
7800
7800
7800
F800
F800
F000
F000
F000
F000
F000
F060
F0E0
F1F0
F0F0
F0F0
F0F0
F0F0
F0F0
F8F0
7DE0
7FE0
3FC0
0F80
ENDCHAR
STARTCHAR Agrave
ENCODING 192
SWIDTH 350 0
DWIDTH 28 0
BBX 22 70 1 0
BITMAP
060000
0F8000
1FE000
0FF800
03FE00
007F00
000FC0
0001E0
000000
000000
000380
000780
0007C0
000FC0
000FC0
001FC0
001FC0
001FC0
003FC0
003FC0
003FC0
003FC0
007FE0
007FE0
0079E0
0079E0
00F9E0
00F1E0
00F1E0
00F1E0
00F1F0
01F1F0
01E1F0
01E1F0
01E1F0
01E1F0
01E0F0
03C0F0
03C0F0
03C0F0
03C0F8
03C0F8
07C0F8
0780F8
0780F8
0780F8
078078
078078
0F8078
0F8078
0F0078
0F0078
0FC078
0FFFF8
1FFFF8
1FFFFC
1E01FC
1E007C
1E007C
3E007C
3C007C
3C007C
3C007C
3C007C
7C007C
78007C
78007C
F8007C
70007C
000038
ENDCHAR
STARTCHAR Aacute
ENCODING 193
SWIDTH 350 0
DWIDTH 28 0
BBX 26 73 1 0
BITMAP
00000180
000003C0
00000FC0
00001FC0
00003F80
00007F00
0000FC00
0001F800
0007E000
000F8000
000E0000
00000000
00000000
00038000
00078000
0007C000
000FC000
000FC000
001FC000
001FC000
001FC000
003FC000
003FC000
003FC000
003FC000
007FE000
007FE000
0079E000
0079E000
00F9E000
00F1E000
00F1E000
00F1E000
00F1F000
01F1F000
01E1F000
01E1F000
01E1F000
01E1F000
01E0F000
03C0F000
03C0F000
03C0F000
03C0F800
03C0F800
07C0F800
0780F800
0780F800
0780F800
07807800
07807800
0F807800
0F807800
0F007800
0F007800
0FC07800
0FFFF800
1FFFF800
1FFFFC00
1E01FC00
1E007C00
1E007C00
3E007C00
3C007C00
3C007C00
3C007C00
3C007C00
7C007C00
78007C00
78007C00
F8007C00
70007C00
00003800
ENDCHAR
STARTCHAR Acircumflex
ENCODING 194
SWIDTH 350 0
DWIDTH 28 0
BBX 23 77 1 0
BITMAP
0000E0
0001E0
0001F0
0003F0
0003F0
0007F8
000738
000F38
000F38
000E3C
001E1C
001C1C
003C1E
003C0E
00380E
00100C
000000
000380
000780
0007C0
000FC0
000FC0
001FC0
001FC0
001FC0
003FC0
003FC0
003FC0
003FC0
007FE0
007FE0
0079E0
0079E0
00F9E0
00F1E0
00F1E0
00F1E0
00F1F0
01F1F0
01E1F0
01E1F0
01E1F0
01E1F0
01E0F0
03C0F0
03C0F0
03C0F0
03C0F8
03C0F8
07C0F8
0780F8
0780F8
0780F8
078078
078078
0F8078
0F8078
0F0078
0F0078
0FC078
0FFFF8
1FFFF8
1FFFFC
1E01FC
1E007C
1E007C
3E007C
3C007C
3C007C
3C007C
3C007C
7C007C
78007C
78007C
F8007C
70007C
000038
ENDCHAR
STARTCHAR Atilde
ENCODING 195
SWIDTH 350 0
DWIDTH 28 0
BBX 24 69 1 0
BITMAP
00F00E
01FC1F
03FF1F
07DFFF
0787FE
0783FC
0381F8
000000
000000
000380
000780
0007C0
000FC0
000FC0
001FC0
001FC0
001FC0
003FC0
003FC0
003FC0
003FC0
007FE0
007FE0
0079E0
0079E0
00F9E0
00F1E0
00F1E0
00F1E0
00F1F0
01F1F0
01E1F0
01E1F0
01E1F0
01E1F0
01E0F0
03C0F0
03C0F0
03C0F0
03C0F8
03C0F8
07C0F8
0780F8
0780F8
0780F8
078078
078078
0F8078
0F8078
0F0078
0F0078
0FC078
0FFFF8
1FFFF8
1FFFFC
1E01FC
1E007C
1E007C
3E007C
3C007C
3C007C
3C007C
3C007C
7C007C
78007C
78007C
F8007C
70007C
000038
ENDCHAR
STARTCHAR Adieresis
ENCODING 196
SWIDTH 350 0
DWIDTH 28 0
BBX 26 68 1 0
BITMAP
00700700
00F00F80
01F80FC0
01F80FC0
01F80F80
00F00780
00000000
00000000
00038000
00078000
0007C000
000FC000
000FC000
001FC000
001FC000
001FC000
003FC000
003FC000
003FC000
003FC000
007FE000
007FE000
0079E000
0079E000
00F9E000
00F1E000
00F1E000
00F1E000
00F1F000
01F1F000
01E1F000
01E1F000
01E1F000
01E1F000
01E0F000
03C0F000
03C0F000
03C0F000
03C0F800
03C0F800
07C0F800
0780F800
0780F800
0780F800
07807800
07807800
0F807800
0F807800
0F007800
0F007800
0FC07800
0FFFF800
1FFFF800
1FFFFC00
1E01FC00
1E007C00
1E007C00
3E007C00
3C007C00
3C007C00
3C007C00
3C007C00
7C007C00
78007C00
78007C00
F8007C00
70007C00
00003800
ENDCHAR
STARTCHAR Aring
ENCODING 197
SWIDTH 350 0
DWIDTH 28 0
BBX 23 74 1 0
BITMAP
000FC0
003FF0
007FF8
007CFC
00F01C
00F01C
00E00E
00E00C
00E01C
00703C
007CF8
007FF8
003FF0
000FC0
000380
000780
0007C0
000FC0
000FC0
001FC0
001FC0
001FC0
003FC0
003FC0
003FC0
003FC0
007FE0
007FE0
0079E0
0079E0
00F9E0
00F1E0
00F1E0
00F1E0
00F1F0
01F1F0
01E1F0
01E1F0
01E1F0
01E1F0
01E0F0
03C0F0
03C0F0
03C0F0
03C0F8
03C0F8
07C0F8
0780F8
0780F8
0780F8
078078
078078
0F8078
0F8078
0F0078
0F0078
0FC078
0FFFF8
1FFFF8
1FFFFC
1E01FC
1E007C
1E007C
3E007C
3C007C
3C007C
3C007C
3C007C
7C007C
78007C
78007C
F8007C
70007C
000038
ENDCHAR
STARTCHAR AE
ENCODING 198
SWIDTH 491 0
DWIDTH 39 0
BBX 32 62 4 -1
BITMAP
00007FE0
0000FFF0
0001FFF0
0001FF80
0001F000
0003F000
0003F000
0003F000
0007F000
0007F000
0007F000
000FF000
000FF000
000EF000
001EF000
001EF000
001EF000
001CF000
003CF000
003CF000
003CF000
0078F000
0078F000
0078F000
00F0F000
00F0F000
00F0F000
00F0F000
01E0F000
01E0F000
01E0F000
03E0F000
03E0F3E0
03C1FFE0
03FFFFF0
07FFFFE0
07C0F000
0780F000
0F80F000
0F80F000
0F00F000
0F00F000
1F007000
1F007000
1E007000
1E007000
3E007000
3E007000
3C007000
3C007000
7C007000
7C007000
78007000
78007000
78007000
7800F000
F800F000
F000F1FE
F000FFFF
F000FFFE
6000FFF8
00006000
ENDCHAR
STARTCHAR Ccedilla
ENCODING 199
SWIDTH 337 0
DWIDTH 27 0
BBX 22 78 4 -17
BITMAP
007E00
03FF80
0FFFC0
1FFFC0
3FFFC0
7F83C0
7E0000
FC0000
F80000
F80000
F80000
F00000
F00000
F00000
F00000
F00000
F00000
F00000
F00000
F00000
F00000
F00000
F00000
F00000
F00000
F00000
F00000
F00000
F00000
F00000
F00000
F00000
F00000
F00000
F00000
F00000
F00000
F00000
F00000
F00000
F00000
F00000
F00000
F00000
F00000
F80000
F80000
780000
780000
7C0000
7C0000
7C0000
3E0000
3E0000
3F0030
1F80FC
1FC1FC
0FFFF8
07FFF8
03FFF0
01FFE0
00FF00
00C000
00C000
00F800
00FC00
007E00
000700
000700
000700
000700
000700
000700
000700
000E00
019E00
01FC00
00F000
ENDCHAR
STARTCHAR Egrave
ENCODING 200
SWIDTH 278 0
DWIDTH 22 0
BBX 21 72 -2 0
BITMAP
300000
7C0000
FF0000
7FC000
1FF000
03FC00
007E00
000700
000000
000000
000000
003F00
00FFC0
01FFC0
03FFC0
03FF80
03E000
01E000
01E000
01E000
01E000
01E000
01E000
01E000
01F000
01F000
01F000
01F000
01F000
01F000
01F000
01F000
01F000
01F000
01F000
01E000
01E000
01E000
01E700
01FF80
01FF80
01FF80
01FF80
01F000
01F000
01F000
01F000
01F000
01F000
01F000
01F000
01F000
01F000
01F000
01F000
01F000
01F000
01F000
01F000
01F000
01F000
01F000
01F000
01F000
01F000
01F000
01F000
01FFE0
01FFF8
01FFF8
00FFF0
007FC0
ENDCHAR
STARTCHAR Eacute
ENCODING 201
SWIDTH 278 0
DWIDTH 22 0
BBX 17 74 4 0
BITMAP
000300
000780
001F80
003F80
007F80
00FE00
01F800
03F000
07C000
1F0000
1C0000
000000
000000
0FC000
3FF000
7FF000
FFF000
FFE000
F80000
780000
780000
780000
780000
780000
780000
780000
7C0000
7C0000
7C0000
7C0000
7C0000
7C0000
7C0000
7C0000
7C0000
7C0000
7C0000
780000
780000
780000
79C000
7FE000
7FE000
7FE000
7FE000
7C0000
7C0000
7C0000
7C0000
7C0000
7C0000
7C0000
7C0000
7C0000
7C0000
7C0000
7C0000
7C0000
7C0000
7C0000
7C0000
7C0000
7C0000
7C0000
7C0000
7C0000
7C0000
7C0000
7C0000
7FF800
7FFE00
7FFE00
3FFC00
1FF000
ENDCHAR
STARTCHAR Ecircumflex
ENCODING 202
SWIDTH 278 0
DWIDTH 22 0
BBX 15 78 4 0
BITMAP
01C0
03C0
03E0
07E0
07E0
0FF0
0F70
1E70
1E78
1C38
3C38
3C38
783C
781C
701C
201C
0000
0FC0
3FF0
7FF0
FFF0
FFE0
F800
7800
7800
7800
7800
7800
7800
7800
7C00
7C00
7C00
7C00
7C00
7C00
7C00
7C00
7C00
7C00
7C00
7800
7800
7800
79C0
7FE0
7FE0
7FE0
7FE0
7C00
7C00
7C00
7C00
7C00
7C00
7C00
7C00
7C00
7C00
7C00
7C00
7C00
7C00
7C00
7C00
7C00
7C00
7C00
7C00
7C00
7C00
7C00
7C00
7FF8
7FFE
7FFE
3FFC
1FF0
ENDCHAR
STARTCHAR Edieresis
ENCODING 203
SWIDTH 278 0
DWIDTH 22 0
BBX 19 69 2 0
BITMAP
3803C0
7C07C0
FC07E0
FC07E0
7C07E0
7803C0
000000
000000
03F000
0FFC00
1FFC00
3FFC00
3FF800
3E0000
1E0000
1E0000
1E0000
1E0000
1E0000
1E0000
1E0000
1F0000
1F0000
1F0000
1F0000
1F0000
1F0000
1F0000
1F0000
1F0000
1F0000
1F0000
1E0000
1E0000
1E0000
1E7000
1FF800
1FF800
1FF800
1FF800
1F0000
1F0000
1F0000
1F0000
1F0000
1F0000
1F0000
1F0000
1F0000
1F0000
1F0000
1F0000
1F0000
1F0000
1F0000
1F0000
1F0000
1F0000
1F0000
1F0000
1F0000
1F0000
1F0000
1F0000
1FFE00
1FFF80
1FFF80
0FFF00
07FC00
ENDCHAR
STARTCHAR Igrave
ENCODING 204
SWIDTH 257 0
DWIDTH 21 0
BBX 21 71 -4 0
BITMAP
300000
7C0000
FF0000
7FC000
1FF000
03FC00
007E00
000700
000000
000000
001FC0
00FFE0
01FFE0
01FFC0
00FE00
001C00
001C00
001C00
001C00
001C00
001C00
001C00
001C00
001C00
001C00
001E00
001E00
001E00
001E00
001E00
001E00
001E00
001E00
001E00
001E00
001E00
001E00
001E00
001E00
001E00
001E00
001E00
001F00
001F00
001F00
001F00
001F00
001F00
000F00
000F00
000F00
000F00
000F00
000F00
000F00
000F00
000F00
000F00
000F00
000F00
000F00
000F00
000F00
000F00
000F00
000F00
000F00
01FFF8
01FFF8
01FFF8
007FF0
ENDCHAR
STARTCHAR Iacute
ENCODING 205
SWIDTH 257 0
DWIDTH 21 0
BBX 16 74 3 0
BITMAP
0006
000F
003F
007F
00FF
01FC
03F0
07E0
0F80
3E00
3800
0000
0000
0FE0
7FF0
FFF0
FFE0
7F00
0E00
0E00
0E00
0E00
0E00
0E00
0E00
0E00
0E00
0E00
0F00
0F00
0F00
0F00
0F00
0F00
0F00
0F00
0F00
0F00
0F00
0F00
0F00
0F00
0F00
0F00
0F00
0F80
0F80
0F80
0F80
0F80
0F80
0780
0780
0780
0780
0780
0780
0780
0780
0780
0780
0780
0780
0780
0780
0780
0780
0780
0780
0780
FFFC
FFFC
FFFC
3FF8
ENDCHAR
STARTCHAR Icircumflex
ENCODING 206
SWIDTH 257 0
DWIDTH 21 0
BBX 14 78 3 0
BITMAP
0380
0780
07C0
0FC0
0FC0
1FE0
1EE0
3CE0
3CF0
3870
7870
7870
F078
F038
E038
4038
0000
0FE0
7FF0
FFF0
FFE0
7F00
0E00
0E00
0E00
0E00
0E00
0E00
0E00
0E00
0E00
0E00
0F00
0F00
0F00
0F00
0F00
0F00
0F00
0F00
0F00
0F00
0F00
0F00
0F00
0F00
0F00
0F00
0F00
0F80
0F80
0F80
0F80
0F80
0F80
0780
0780
0780
0780
0780
0780
0780
0780
0780
0780
0780
0780
0780
0780
0780
0780
0780
0780
0780
FFFC
FFFC
FFFC
3FF8
ENDCHAR
STARTCHAR Idieresis
ENCODING 207
SWIDTH 257 0
DWIDTH 21 0
BBX 19 69 0 0
BITMAP
3803C0
7C07C0
FC07E0
FC07E0
7C07E0
7803C0
000000
000000
01FC00
0FFE00
1FFE00
1FFC00
0FE000
01C000
01C000
01C000
01C000
01C000
01C000
01C000
01C000
01C000
01C000
01E000
01E000
01E000
01E000
01E000
01E000
01E000
01E000
01E000
01E000
01E000
01E000
01E000
01E000
01E000
01E000
01E000
01F000
01F000
01F000
01F000
01F000
01F000
00F000
00F000
00F000
00F000
00F000
00F000
00F000
00F000
00F000
00F000
00F000
00F000
00F000
00F000
00F000
00F000
00F000
00F000
00F000
1FFF80
1FFF80
1FFF80
07FF00
ENDCHAR
STARTCHAR Eth
ENCODING 208
SWIDTH 421 0
DWIDTH 34 0
BBX 27 61 0 0
BITMAP
01FF0000
03FFC000
07FFF000
07FFF800
07FFFC00
07C7FC00
03C0FE00
03C07E00
03C03F00
03C01F00
01C01F80
01C00F80
01C00F80
01C007C0
01C007C0
01C007C0
01C003C0
01C003C0
01E003C0
01E003E0
01E003E0
01E003E0
01E001E0
01E001E0
01E001E0
01E001E0
01E001E0
01FF01E0
3FFF81E0
FFFF81E0
FFFF01E0
7FF801E0
01E001E0
01E003E0
01E003E0
01F003E0
01F003E0
00F003E0
00F003C0
00F003C0
00F007C0
00F007C0
00F00780
00F00780
00F00F80
00F00F00
00F00F00
00F01F00
00F01E00
00F03E00
00F03C00
00F07C00
00F0F800
00F1F800
00F3F000
00F7E000
01FFC000
01FF8000
03FF0000
01FE0000
00F80000
ENDCHAR
STARTCHAR Ntilde
ENCODING 209
SWIDTH 412 0
DWIDTH 33 0
BBX 24 70 4 -1
BITMAP
03C038
07F07C
0FFC7C
1F7FFC
1E1FF8
1E0FF0
0E07E0
00000E
20001F
70001F
78001F
78001F
7C001E
7C001E
7C001E
7E001E
7E001E
7F001E
7F001E
77001E
77801E
F7801E
F7801E
F3801E
F3C01E
F3C01E
F3C01E
F1E01E
F1E01E
F1E01E
F1F01E
F0F01E
F0F01E
F0F01E
F0781E
F0781E
F0781E
F0781E
F03C1E
F03C1E
F03C1E
F03C1E
F01E1E
701E1E
701E1E
700E1E
700F1E
700F1E
700F1E
70071E
78079E
78079E
78039E
78039E
78039E
7801DE
7801DE
7801DE
7801DE
7800FE
7800FE
7800FE
78007E
78007E
78003E
78003E
78003E
7C001E
78001C
00000C
ENDCHAR
STARTCHAR Ograve
ENCODING 210
SWIDTH 355 0
DWIDTH 28 0
BBX 23 74 1 -2
BITMAP
700000
7C0000
FF0000
FFC000
1FF000
07F800
007E00
000E00
000000
000000
007C00
01FF00
03FF80
07FFC0
07C7E0
0F83E0
0F81F0
0F00F0
0F00F0
1F00F8
1F0078
1E0078
1E007C
1E003C
1E003C
1E003C
1E003C
1E003C
1E003E
1C001E
1C001E
1C001E
1C001E
1C001E
1C001E
1C001E
1C001E
1C001E
1C001E
1C001E
1C001E
1C001E
1C001E
1C001E
1C001E
1E001E
1E001E
1E001E
1E001E
1E001E
1E001E
1E001E
1E001E
1E001E
0F001E
0F001E
0F001C
0F001C
0F001C
0F001C
07801C
07803C
07803C
07C03C
03C03C
03C03C
03E07C
01E078
01F0F8
00F8F0
00FFF0
007FE0
003FC0
000F00
ENDCHAR
STARTCHAR Oacute
ENCODING 211
SWIDTH 355 0
DWIDTH 28 0
BBX 20 76 4 -2
BITMAP
0000E0
0001F0
0003F0
0007F0
000FE0
001FC0
007F00
00FC00
01F000
03E000
038000
000000
03E000
0FF800
1FFC00
3FFE00
3E3F00
7C1F00
7C0F80
780780
780780
F807C0
F803C0
F003C0
F003E0
F001E0
F001E0
F001E0
F001E0
F001E0
F001F0
E000F0
E000F0
E000F0
E000F0
E000F0
E000F0
E000F0
E000F0
E000F0
E000F0
E000F0
E000F0
E000F0
E000F0
E000F0
E000F0
F000F0
F000F0
F000F0
F000F0
F000F0
F000F0
F000F0
F000F0
F000F0
7800F0
7800F0
7800E0
7800E0
7800E0
7800E0
3C00E0
3C01E0
3C01E0
3E01E0
1E01E0
1E01E0
1F03E0
0F03C0
0F87C0
07C780
07FF80
03FF00
01FE00
007800
ENDCHAR
STARTCHAR Ocircumflex
ENCODING 212
SWIDTH 355 0
DWIDTH 28 0
BBX 20 80 4 -2
BITMAP
003000
007800
00F800
00FC00
01FC00
01FC00
03DE00
03CE00
038E00
078E00
078F00
0F0700
0F0700
0E0780
0E0380
040300
03E000
0FF800
1FFC00
3FFE00
3E3F00
7C1F00
7C0F80
780780
780780
F807C0
F803C0
F003C0
F003E0
F001E0
F001E0
F001E0
F001E0
F001E0
F001F0
E000F0
E000F0
E000F0
E000F0
E000F0
E000F0
E000F0
E000F0
E000F0
E000F0
E000F0
E000F0
E000F0
E000F0
E000F0
E000F0
F000F0
F000F0
F000F0
F000F0
F000F0
F000F0
F000F0
F000F0
F000F0
7800F0
7800F0
7800E0
7800E0
7800E0
7800E0
3C00E0
3C01E0
3C01E0
3E01E0
1E01E0
1E01E0
1F03E0
0F03C0
0F87C0
07C780
07FF80
03FF00
01FE00
007800
ENDCHAR
STARTCHAR Otilde
ENCODING 213
SWIDTH 355 0
DWIDTH 28 0
BBX 21 72 3 -2
BITMAP
1E01C0
7F83E0
FFC3C0
FBFFC0
F1FFC0
F0FF80
703F00
000000
01F000
07FC00
0FFE00
1FFF00
1F1F80
3E0F80
3E07C0
3C03C0
3C03C0
7C03E0
7C01E0
7801E0
7801F0
7800F0
7800F0
7800F0
7800F0
7800F0
7800F8
700078
700078
700078
700078
700078
700078
700078
700078
700078
700078
700078
700078
700078
700078
700078
700078
780078
780078
780078
780078
780078
780078
780078
780078
780078
3C0078
3C0078
3C0070
3C0070
3C0070
3C0070
1E0070
1E00F0
1E00F0
1F00F0
0F00F0
0F00F0
0F81F0
0781E0
07C3E0
03E3C0
03FFC0
01FF80
00FF00
003C00
ENDCHAR
STARTCHAR Odieresis
ENCODING 214
SWIDTH 355 0
DWIDTH 28 0
BBX 20 71 4 -2
BITMAP
3801C0
7C03E0
7E03F0
7E03F0
7C03E0
3801C0
000000
03E000
0FF800
1FFC00
3FFE00
3E3F00
7C1F00
7C0F80
780780
780780
F807C0
F803C0
F003C0
F003E0
F001E0
F001E0
F001E0
F001E0
F001E0
F001F0
E000F0
E000F0
E000F0
E000F0
E000F0
E000F0
E000F0
E000F0
E000F0
E000F0
E000F0
E000F0
E000F0
E000F0
E000F0
E000F0
F000F0
F000F0
F000F0
F000F0
F000F0
F000F0
F000F0
F000F0
F000F0
7800F0
7800F0
7800E0
7800E0
7800E0
7800E0
3C00E0
3C01E0
3C01E0
3E01E0
1E01E0
1E01E0
1F03E0
0F03C0
0F87C0
07C780
07FF80
03FF00
01FE00
007800
ENDCHAR
STARTCHAR multiply
ENCODING 215
SWIDTH 404 0
DWIDTH 32 0
BBX 20 19 6 16
BITMAP
200000
7001C0
F803E0
FC07E0
7F0FC0
7F9F80
3FFF00
0FFE00
07FC00
03F800
03FC00
07FE00
0FFF00
1F9FC0
3F0FE0
7E07E0
3C03F0
1803E0
0001C0
ENDCHAR
STARTCHAR Oslash
ENCODING 216
SWIDTH 356 0
DWIDTH 28 0
BBX 20 81 4 -11
BITMAP
0001C0
0003C0
000380
000380
000380
000380
000300
000700
03E700
0FFF00
1FFF00
3FFE00
3E3F00
7C1F00
7C0F80
780F80
780FC0
F80FC0
F81FC0
F01FC0
F01FE0
F01FE0
F01DE0
F039E0
F039E0
F039E0
F039F0
E038F0
E030F0
E070F0
E070F0
E070F0
E070F0
E060F0
E060F0
E0E0F0
E0E0F0
E0E0F0
E0E0F0
E0C0F0
E1C0F0
E1C0F0
E1C0F0
F1C0F0
F180F0
F180F0
F380F0
F380F0
F380F0
F380F0
F300F0
F300F0
FF00F0
7F00F0
7F00E0
7E00E0
7E00E0
7E00E0
7E00E0
3E01E0
3C01E0
3E01E0
3E01E0
1E01E0
1F03E0
1F03C0
1F87C0
1FC780
1FFF80
3BFF00
39FE00
387800
300000
300000
700000
700000
700000
600000
600000
200000
200000
ENDCHAR
STARTCHAR Ugrave
ENCODING 217
SWIDTH 401 0
DWIDTH 32 0
BBX 24 72 3 -2
BITMAP
300000
7C0000
FF0000
7FC000
1FF000
03F800
007E00
000F00
000000
000000
000000
300018
78003C
7C003E
7C003E
7C003E
7C003C
7C003C
7C003C
7C003C
7C003C
7C003C
7C003C
7C003C
7C003C
7C003C
7C003C
7C003C
7C003C
7C003C
7C003C
7C001C
7C001E
7C001E
7C001E
7C001E
7C001E
7E001E
7E001E
7E001E
3E001E
3E001E
3E001E
3E001E
3E001E
3E000E
3E000E
3E000E
3E000E
3F000E
3F000E
3F000E
1F000E
1F000F
1F000F
1F000F
1F000F
0F000F
0F800F
0F800F
0F800F
07C00F
07C00F
07C01E
03E01E
03F01E
01F01E
00F83C
00FF7C
007FF8
001FF0
0007E0
ENDCHAR
STARTCHAR Uacute
ENCODING 218
SWIDTH 401 0
DWIDTH 32 0
BBX 23 75 4 -2
BITMAP
000018
00007C
0000FC
0001FC
0003F8
0007F0
000FC0
001F80
007E00
00F800
00E000
000000
000000
000000
600030
F00078
F8007C
F8007C
F8007C
F80078
F80078
F80078
F80078
F80078
F80078
F80078
F80078
F80078
F80078
F80078
F80078
F80078
F80078
F80078
F80038
F8003C
F8003C
F8003C
F8003C
F8003C
FC003C
FC003C
FC003C
7C003C
7C003C
7C003C
7C003C
7C003C
7C001C
7C001C
7C001C
7C001C
7E001C
7E001C
7E001C
3E001C
3E001E
3E001E
3E001E
3E001E
1E001E
1F001E
1F001E
1F001E
0F801E
0F801E
0F803C
07C03C
07E03C
03E03C
01F078
01FEF8
00FFF0
003FE0
000FC0
ENDCHAR
STARTCHAR Ucircumflex
ENCODING 219
SWIDTH 401 0
DWIDTH 32 0
BBX 23 79 4 -2
BITMAP
000E00
001E00
003F00
003F00
003F00
007F80
007780
00F380
00F380
01E3C0
01E1C0
01C1C0
03C1C0
03C0E0
0380E0
0100C0
000000
000000
600030
F00078
F8007C
F8007C
F8007C
F80078
F80078
F80078
F80078
F80078
F80078
F80078
F80078
F80078
F80078
F80078
F80078
F80078
F80078
F80078
F80038
F8003C
F8003C
F8003C
F8003C
F8003C
FC003C
FC003C
FC003C
7C003C
7C003C
7C003C
7C003C
7C003C
7C001C
7C001C
7C001C
7C001C
7E001C
7E001C
7E001C
3E001C
3E001E
3E001E
3E001E
3E001E
1E001E
1F001E
1F001E
1F001E
0F801E
0F801E
0F803C
07C03C
07E03C
03E03C
01F078
01FEF8
00FFF0
003FE0
000FC0
ENDCHAR
STARTCHAR Udieresis
ENCODING 220
SWIDTH 401 0
DWIDTH 32 0
BBX 23 70 4 -2
BITMAP
0F0070
1F00F8
1F80FC
1F80FC
1F00F8
0F0070
000000
000000
000000
600030
F00078
F8007C
F8007C
F8007C
F80078
F80078
F80078
F80078
F80078
F80078
F80078
F80078
F80078
F80078
F80078
F80078
F80078
F80078
F80078
F80038
F8003C
F8003C
F8003C
F8003C
F8003C
FC003C
FC003C
FC003C
7C003C
7C003C
7C003C
7C003C
7C003C
7C001C
7C001C
7C001C
7C001C
7E001C
7E001C
7E001C
3E001C
3E001E
3E001E
3E001E
3E001E
1E001E
1F001E
1F001E
1F001E
0F801E
0F801E
0F803C
07C03C
07E03C
03E03C
01F078
01FEF8
00FFF0
003FE0
000FC0
ENDCHAR
STARTCHAR Yacute
ENCODING 221
SWIDTH 265 0
DWIDTH 21 0
BBX 21 74 1 -1
BITMAP
000030
000078
0001F8
0003F8
0007F8
000FE0
001F80
003F00
007C00
01F000
01C000
000000
600400
F00F00
F01F00
F01E00
F81E00
783E00
783E00
7C3E00
7C3E00
7C3E00
3C3C00
3E3C00
3E7C00
3E7C00
1E7C00
1E7800
1F7800
0F7800
0F7800
0F7800
077800
07F000
07F000
07F000
03F000
03F000
03F000
03F000
03F000
03F000
03E000
03E000
03E000
01E000
01E000
01E000
01F000
01F000
01F000
01F000
00F000
00F000
00F000
00F000
00F000
00F000
00F000
00F000
00F000
00F000
00F000
00F000
00F000
00F000
00F000
00F000
00F000
00F000
00F000
01F000
00F000
00E000
ENDCHAR
STARTCHAR Thorn
ENCODING 222
SWIDTH 262 0
DWIDTH 21 0
BBX 15 61 4 0
BITMAP
E000
F000
F000
F000
F000
F000
F000
F000
FC00
FF00
FFC0
FFE0
F7E0
F3F0
F1F8
F0F8
F07C
F07C
F03C
F03C
F03C
F03C
F03E
F03E
F03E
F03C
F03C
F03C
F03C
F03C
F078
F078
F0F8
F0F0
F1F0
F3E0
F7C0
FF80
FF00
FE00
FC00
F800
F800
F800
F800
F800
F800
F800
F800
7800
7800
7800
7800
7800
7800
7800
7800
7800
7800
7800
7000
ENDCHAR
STARTCHAR germandbls
ENCODING 223
SWIDTH 323 0
DWIDTH 26 0
BBX 17 63 4 -2
BITMAP
07C000
1FE000
3FF000
3FF800
7C7800
783C00
703C00
F03C00
F01C00
F01E00
F01E00
F01E00
F01E00
F01E00
F01E00
F03E00
F03E00
F03C00
F03C00
F07C00
F07800
F07800
F0F800
F0F000
F0F000
F1E000
F1E000
F3C000
F3E000
F1F000
F0F800
F07C00
F03E00
F01E00
F01F00
F00F00
F00F00
F00F80
F00780
F00780
F00780
F00780
F00780
F00780
F80780
F80780
F80780
F80780
F80780
F80F00
F80F00
F80F00
F81E00
F83E00
F83C00
F87C00
F8F800
F8F000
F8E000
F80000
F80000
F80000
F00000
ENDCHAR
STARTCHAR agrave
ENCODING 224
SWIDTH 299 0
DWIDTH 24 0
BBX 21 66 1 0
BITMAP
380000
7E0000
7F8000
7FE000
0FF000
03FC00
003E00
000700
000000
000000
000000
000000
000000
003C00
007E00
007E00
007E00
007E00
007E00
007E00
00FF00
00FF00
00FF00
00FF00
00FF00
00EF00
00EF00
00E700
01E700
01E780
01E780
01C780
01C780
01C780
03C780
03C780
038780
0383C0
0383C0
0383C0
0783C0
0783C0
0703C0
0703C0
0703C0
0F03C0
0F03C0
0F03E0
0F03E0
0E03E0
1F83E0
1FFFE0
1FFFE0
1E1FE0
3E01E0
3C01F0
3C01F0
3C01F0
7C00F0
7C00F0
7C00F0
7800F8
F800F8
F800F8
F800F8
700070
ENDCHAR
STARTCHAR aacute
ENCODING 225
SWIDTH 299 0
DWIDTH 24 0
BBX 25 68 1 0
BITMAP
00000700
00000F80
00001F80
00003F80
00007F00
0000FE00
0003F800
0007E000
000F8000
001F0000
001C0000
00000000
00000000
00000000
00000000
003C0000
007E0000
007E0000
007E0000
007E0000
007E0000
007E0000
00FF0000
00FF0000
00FF0000
00FF0000
00FF0000
00EF0000
00EF0000
00E70000
01E70000
01E78000
01E78000
01C78000
01C78000
01C78000
03C78000
03C78000
03878000
0383C000
0383C000
0383C000
0783C000
0783C000
0703C000
0703C000
0703C000
0F03C000
0F03C000
0F03E000
0F03E000
0E03E000
1F83E000
1FFFE000
1FFFE000
1E1FE000
3E01E000
3C01F000
3C01F000
3C01F000
7C00F000
7C00F000
7C00F000
7800F800
F800F800
F800F800
F800F800
70007000
ENDCHAR
STARTCHAR acircumflex
ENCODING 226
SWIDTH 299 0
DWIDTH 24 0
BBX 21 70 1 0
BITMAP
000600
000F00
001F00
001F80
003F80
003B80
007B80
007BC0
00F1C0
00F1C0
00E1C0
01E0E0
01E0E0
03C0E0
03C0E0
008060
000000
003C00
007E00
007E00
007E00
007E00
007E00
007E00
00FF00
00FF00
00FF00
00FF00
00FF00
00EF00
00EF00
00E700
01E700
01E780
01E780
01C780
01C780
01C780
03C780
03C780
038780
0383C0
0383C0
0383C0
0783C0
0783C0
0703C0
0703C0
0703C0
0F03C0
0F03C0
0F03E0
0F03E0
0E03E0
1F83E0
1FFFE0
1FFFE0
1E1FE0
3E01E0
3C01F0
3C01F0
3C01F0
7C00F0
7C00F0
7C00F0
7800F8
F800F8
F800F8
F800F8
700070
ENDCHAR
STARTCHAR atilde
ENCODING 227
SWIDTH 299 0
DWIDTH 24 0
BBX 22 64 1 0
BITMAP
01E038
07F83C
0FFC3C
0F7FFC
0F1FF8
0F0FF8
0603E0
000000
000000
000000
000000
003C00
007E00
007E00
007E00
007E00
007E00
007E00
00FF00
00FF00
00FF00
00FF00
00FF00
00EF00
00EF00
00E700
01E700
01E780
01E780
01C780
01C780
01C780
03C780
03C780
038780
0383C0
0383C0
0383C0
0783C0
0783C0
0703C0
0703C0
0703C0
0F03C0
0F03C0
0F03E0
0F03E0
0E03E0
1F83E0
1FFFE0
1FFFE0
1E1FE0
3E01E0
3C01F0
3C01F0
3C01F0
7C00F0
7C00F0
7C00F0
7800F8
F800F8
F800F8
F800F8
700070
ENDCHAR
STARTCHAR adieresis
ENCODING 228
SWIDTH 299 0
DWIDTH 24 0
BBX 22 64 1 0
BITMAP
070038
0F807C
0F80FC
0F80FC
0F807C
070038
000000
000000
000000
000000
000000
003C00
007E00
007E00
007E00
007E00
007E00
007E00
00FF00
00FF00
00FF00
00FF00
00FF00
00EF00
00EF00
00E700
01E700
01E780
01E780
01C780
01C780
01C780
03C780
03C780
038780
0383C0
0383C0
0383C0
0783C0
0783C0
0703C0
0703C0
0703C0
0F03C0
0F03C0
0F03E0
0F03E0
0E03E0
1F83E0
1FFFE0
1FFFE0
1E1FE0
3E01E0
3C01F0
3C01F0
3C01F0
7C00F0
7C00F0
7C00F0
7800F8
F800F8
F800F8
F800F8
700070
ENDCHAR
STARTCHAR aring
ENCODING 229
SWIDTH 299 0
DWIDTH 24 0
BBX 21 70 1 0
BITMAP
007F00
00FFC0
01FFE0
03F3E0
03C0F0
038070
038070
038070
038070
03C0E0
01F7E0
01FFC0
00FF80
007E00
000000
000000
000000
003C00
007E00
007E00
007E00
007E00
007E00
007E00
00FF00
00FF00
00FF00
00FF00
00FF00
00EF00
00EF00
00E700
01E700
01E780
01E780
01C780
01C780
01C780
03C780
03C780
038780
0383C0
0383C0
0383C0
0783C0
0783C0
0703C0
0703C0
0703C0
0F03C0
0F03C0
0F03E0
0F03E0
0E03E0
1F83E0
1FFFE0
1FFFE0
1E1FE0
3E01E0
3C01F0
3C01F0
3C01F0
7C00F0
7C00F0
7C00F0
7800F8
F800F8
F800F8
F800F8
700070
ENDCHAR
STARTCHAR ae
ENCODING 230
SWIDTH 438 0
DWIDTH 35 0
BBX 32 62 4 -1
BITMAP
00007FE0
0000FFF0
0001FFF0
0001FF80
0001F000
0003F000
0003F000
0003F000
0007F000
0007F000
0007F000
000FF000
000FF000
000EF000
001EF000
001EF000
001EF000
001CF000
003CF000
003CF000
003CF000
0078F000
0078F000
0078F000
00F0F000
00F0F000
00F0F000
00F0F000
01E0F000
01E0F000
01E0F000
03E0F000
03E0F3E0
03C1FFE0
03FFFFF0
07FFFFE0
07C0F000
0780F000
0F80F000
0F80F000
0F00F000
0F00F000
1F007000
1F007000
1E007000
1E007000
3E007000
3E007000
3C007000
3C007000
7C007000
7C007000
78007000
78007000
78007000
7800F000
F800F000
F000F1FE
F000FFFF
F000FFFE
6000FFF8
00006000
ENDCHAR
STARTCHAR ccedilla
ENCODING 231
SWIDTH 279 0
DWIDTH 22 0
BBX 16 70 4 -17
BITMAP
007E
01FF
07FF
0FFE
1F80
1F00
3E00
3E00
7C00
7C00
7C00
7C00
F800
F800
F800
F800
F800
F800
F800
F800
F800
F800
F800
F800
F800
F800
F800
F800
F800
F000
F000
F000
F000
F000
F000
F000
F000
F000
F000
F000
F000
F800
F800
F800
F800
7C00
7C00
7E00
3E00
3F84
1FFF
0FFF
07FF
01FC
0180
0180
01F0
01F8
01FC
000C
000E
000E
000E
000E
000E
000E
001C
0338
03F8
01E0
ENDCHAR
STARTCHAR egrave
ENCODING 232
SWIDTH 284 0
DWIDTH 23 0
BBX 20 65 -1 -1
BITMAP
700000
FC0000
FF0000
FF8000
3FE000
07F800
00FC00
000E00
000000
000000
000000
00FC00
01FF80
01FFE0
03FFE0
03FFE0
03E1C0
03E000
03E000
01E000
01E000
01E000
01E000
01E000
01E000
01E000
01E000
01E000
01E000
01E000
01E000
01E000
01FF80
01FFC0
01FFC0
03FF80
03E000
03E000
03E000
03E000
03E000
03E000
03E000
03E000
03E000
03E000
03E000
03E000
03E000
03E000
03E000
03E000
03E000
01E000
01E000
01E000
01E000
01E000
01E000
01E000
01E000
01FFE0
01FFF0
01FFF0
00FFE0
ENDCHAR
STARTCHAR eacute
ENCODING 233
SWIDTH 284 0
DWIDTH 23 0
BBX 18 67 5 -1
BITMAP
000300
000780
000FC0
001FC0
007F80
00FE00
01FC00
03F000
07C000
0F0000
0C0000
000000
000000
3F0000
7FE000
7FF800
7FF800
FFF800
F87000
F80000
F80000
780000
780000
780000
780000
780000
780000
780000
780000
780000
780000
780000
780000
780000
7FE000
7FF000
7FF000
FFE000
F80000
F80000
F80000
F80000
F80000
F80000
F80000
F80000
F80000
F80000
F80000
F80000
F80000
F80000
F80000
F80000
F80000
780000
780000
780000
780000
780000
780000
780000
780000
7FF800
7FFC00
7FFC00
3FF800
ENDCHAR
STARTCHAR ecircumflex
ENCODING 234
SWIDTH 284 0
DWIDTH 23 0
BBX 15 69 4 -1
BITMAP
0380
0780
07C0
0FC0
0FE0
1FE0
1EE0
3CE0
3CF0
3870
7870
7870
F078
F038
E038
5FB8
3FF0
3FFC
7FFC
7FFC
7C38
7C00
7C00
3C00
3C00
3C00
3C00
3C00
3C00
3C00
3C00
3C00
3C00
3C00
3C00
3C00
3FF0
3FF8
3FF8
7FF0
7C00
7C00
7C00
7C00
7C00
7C00
7C00
7C00
7C00
7C00
7C00
7C00
7C00
7C00
7C00
7C00
7C00
3C00
3C00
3C00
3C00
3C00
3C00
3C00
3C00
3FFC
3FFE
3FFE
1FFC
ENDCHAR
STARTCHAR edieresis
ENCODING 235
SWIDTH 284 0
DWIDTH 23 0
BBX 19 64 1 -1
BITMAP
3801C0
7C03E0
FC07E0
FC07E0
7C07E0
7803C0
000000
000000
000000
000000
03F000
07FE00
07FF80
0FFF80
0FFF80
0F8700
0F8000
0F8000
078000
078000
078000
078000
078000
078000
078000
078000
078000
078000
078000
078000
078000
07FE00
07FF00
07FF00
0FFE00
0F8000
0F8000
0F8000
0F8000
0F8000
0F8000
0F8000
0F8000
0F8000
0F8000
0F8000
0F8000
0F8000
0F8000
0F8000
0F8000
0F8000
078000
078000
078000
078000
078000
078000
078000
078000
07FF80
07FFC0
07FFC0
03FF80
ENDCHAR
STARTCHAR igrave
ENCODING 236
SWIDTH 226 0
DWIDTH 18 0
BBX 20 65 -4 0
BITMAP
300000
7C0000
FF0000
7FC000
1FF000
03F800
007E00
000F00
000000
000000
000000
000000
001F80
01FFC0
03FFC0
03FFC0
01FC00
003800
003800
003800
003800
003800
003800
003800
003800
003C00
003C00
003C00
003C00
003C00
003C00
003C00
003C00
003C00
003C00
003C00
003C00
003C00
003C00
003C00
003C00
003C00
003C00
003C00
003E00
003E00
003E00
003E00
001E00
001E00
001E00
001E00
001E00
001E00
001E00
001E00
001E00
001E00
001E00
001E00
001E00
03FFF0
03FFF0
03FFF0
00FFE0
ENDCHAR
STARTCHAR iacute
ENCODING 237
SWIDTH 226 0
DWIDTH 18 0
BBX 18 68 2 0
BITMAP
000180
0003C0
000FC0
001FC0
003F80
007F00
00FC00
01F800
07E000
0F8000
0E0000
000000
000000
000000
000000
07E000
7FF000
FFF000
FFF000
7F0000
0E0000
0E0000
0E0000
0E0000
0E0000
0E0000
0E0000
0E0000
0F0000
0F0000
0F0000
0F0000
0F0000
0F0000
0F0000
0F0000
0F0000
0F0000
0F0000
0F0000
0F0000
0F0000
0F0000
0F0000
0F0000
0F0000
0F0000
0F8000
0F8000
0F8000
0F8000
078000
078000
078000
078000
078000
078000
078000
078000
078000
078000
078000
078000
078000
FFFC00
FFFC00
FFFC00
3FF800
ENDCHAR
STARTCHAR icircumflex
ENCODING 238
SWIDTH 226 0
DWIDTH 18 0
BBX 14 69 2 0
BITMAP
0300
0780
0F80
0FC0
1FC0
1FC0
1DE0
3CE0
38E0
78F0
7870
7070
F070
E078
E038
4030
07E0
7FF0
FFF0
FFF0
7F00
0E00
0E00
0E00
0E00
0E00
0E00
0E00
0E00
0F00
0F00
0F00
0F00
0F00
0F00
0F00
0F00
0F00
0F00
0F00
0F00
0F00
0F00
0F00
0F00
0F00
0F00
0F00
0F80
0F80
0F80
0F80
0780
0780
0780
0780
0780
0780
0780
0780
0780
0780
0780
0780
0780
FFFC
FFFC
FFFC
3FF8
ENDCHAR
STARTCHAR idieresis
ENCODING 239
SWIDTH 226 0
DWIDTH 18 0
BBX 19 64 -1 0
BITMAP
700380
F807C0
FC07E0
FC07E0
F807C0
700380
000000
000000
000000
000000
000000
00FC00
0FFE00
1FFE00
1FFE00
0FE000
01C000
01C000
01C000
01C000
01C000
01C000
01C000
01C000
01E000
01E000
01E000
01E000
01E000
01E000
01E000
01E000
01E000
01E000
01E000
01E000
01E000
01E000
01E000
01E000
01E000
01E000
01E000
01F000
01F000
01F000
01F000
00F000
00F000
00F000
00F000
00F000
00F000
00F000
00F000
00F000
00F000
00F000
00F000
00F000
1FFF80
1FFF80
1FFF80
07FF00
ENDCHAR
STARTCHAR eth
ENCODING 240
SWIDTH 287 0
DWIDTH 23 0
BBX 16 61 4 0
BITMAP
3C00
7E00
3F00
1F80
07C0
03C0
03E0
03E0
01FF
1FFF
7FFE
FFF8
7FF0
00F0
00F0
00F8
00F8
00F8
0078
0078
0078
0078
0078
007C
03FC
07FC
0FFC
1EFC
1C7C
3C3C
383C
383C
783C
783C
783C
783C
703C
703C
F03C
F03C
F03C
F03C
F03C
F03C
F03C
F03C
F03C
F03C
F03C
F03C
F03C
F07C
F07C
F078
7878
7878
7878
3DF8
3FF0
1FE0
0FC0
ENDCHAR
STARTCHAR ntilde
ENCODING 241
SWIDTH 479 0
DWIDTH 38 0
BBX 26 62 6 0
BITMAP
01E01C00
07F83C00
0FFC3C00
0FBFFC00
0F1FFC00
0F0FF800
0603F000
00000000
00000000
380001C0
7C0003C0
7C0003C0
FE0003C0
FE0003C0
FF0003C0
FF0003C0
FF8003C0
FF8003C0
F7C003C0
F7C003C0
F7C003C0
F3E003C0
F3E003C0
F1E003C0
F1F003C0
F1F003C0
F0F003C0
F0F803C0
F0F803C0
F07803C0
F07C03C0
F03C03C0
F03C03C0
F03E03C0
F01E03C0
F01E03C0
F01E03C0
F00F03C0
F00F03C0
F00F03C0
F00783C0
F00783C0
F00783C0
F00387C0
F003C7C0
F001C780
F001C780
F001E780
F000E780
F000E780
F000E780
F000F780
F0007780
F0007780
F0007F80
F0003F80
F0003F80
F0003F00
F8003F00
F8003F00
F8001F00
70001E00
ENDCHAR
STARTCHAR ograve
ENCODING 242
SWIDTH 360 0
DWIDTH 29 0
BBX 25 66 0 -2
BITMAP
30000000
7E000000
7F000000
FFC00000
1FF00000
03FC0000
007E0000
00070000
00000000
00000000
00000000
00FC0000
01FF0000
01FFC000
03FFE000
03E1F000
03C07800
07C03800
07803C00
07801C00
07801E00
07801E00
07800E00
0F800F00
0F800F00
0F800F00
0F800F00
0F800F00
0F800F80
0F800F80
0F800F80
0F800F80
0F800F80
0F000F80
0F000F80
0F000F80
0F000F80
0F000F80
0F000F80
0F000780
0F000780
0F000780
0F000780
0F000780
0F800780
0F800780
0F800F80
0F800F80
0F800F80
0F800F80
07800F80
07800F00
07800F00
07800F00
07C00F00
07C01F00
03C01F00
03C01E00
03E03E00
01E03E00
01E07C00
00F07C00
00F9F800
007FF000
003FE000
000F8000
ENDCHAR
STARTCHAR oacute
ENCODING 243
SWIDTH 360 0
DWIDTH 29 0
BBX 21 69 4 -2
BITMAP
000060
0000F0
0001F8
0007F8
000FF0
001FC0
003F80
007E00
00F800
01E000
038000
000000
000000
000000
0FC000
1FF000
1FFC00
3FFE00
3E1F00
3C0780
7C0380
7803C0
7801C0
7801E0
7801E0
7800E0
F800F0
F800F0
F800F0
F800F0
F800F0
F800F8
F800F8
F800F8
F800F8
F800F8
F000F8
F000F8
F000F8
F000F8
F000F8
F000F8
F00078
F00078
F00078
F00078
F00078
F80078
F80078
F800F8
F800F8
F800F8
7800F8
7800F8
7800F0
7800F0
7800F0
7C00F0
7C01F0
3C01F0
3C01E0
3E03E0
1E03E0
1E07C0
0F07C0
0F9F80
07FF00
03FE00
00F800
ENDCHAR
STARTCHAR ocircumflex
ENCODING 244
SWIDTH 360 0
DWIDTH 29 0
BBX 21 70 4 -2
BITMAP
00E000
01E000
01F000
03F000
03F000
07F800
07B800
0F3800
0F3C00
0E3C00
1E1C00
1C1C00
3C1E00
3C0E00
380E00
0FCE00
1FF000
1FFC00
3FFE00
3E1F00
3C0780
7C0380
7803C0
7801C0
7801E0
7801E0
7800E0
F800F0
F800F0
F800F0
F800F0
F800F0
F800F8
F800F8
F800F8
F800F8
F800F8
F000F8
F000F8
F000F8
F000F8
F000F8
F000F8
F00078
F00078
F00078
F00078
F00078
F80078
F80078
F800F8
F800F8
F800F8
7800F8
7800F8
7800F0
7800F0
7800F0
7C00F0
7C01F0
3C01F0
3C01E0
3E03E0
1E03E0
1E07C0
0F07C0
0F9F80
07FF00
03FE00
00F800
ENDCHAR
STARTCHAR otilde
ENCODING 245
SWIDTH 360 0
DWIDTH 29 0
BBX 22 65 3 -2
BITMAP
1E01C0
3F83E0
7FE3E0
FBFFE0
F0FFC0
F07F80
703F00
000000
000000
000000
07E000
0FF800
0FFE00
1FFF00
1F0F80
1E03C0
3E01C0
3C01E0
3C00E0
3C00F0
3C00F0
3C0070
7C0078
7C0078
7C0078
7C0078
7C0078
7C007C
7C007C
7C007C
7C007C
7C007C
78007C
78007C
78007C
78007C
78007C
78007C
78003C
78003C
78003C
78003C
78003C
7C003C
7C003C
7C007C
7C007C
7C007C
7C007C
3C007C
3C0078
3C0078
3C0078
3E0078
3E00F8
1E00F8
1E00F0
1F01F0
0F01F0
0F03E0
0783E0
07CFC0
03FF80
01FF00
007C00
ENDCHAR
STARTCHAR odieresis
ENCODING 246
SWIDTH 360 0
DWIDTH 29 0
BBX 22 65 3 -2
BITMAP
3803C0
7C07C0
FC07E0
FC07E0
FC07E0
7803C0
000000
000000
000000
000000
07E000
0FF800
0FFE00
1FFF00
1F0F80
1E03C0
3E01C0
3C01E0
3C00E0
3C00F0
3C00F0
3C0070
7C0078
7C0078
7C0078
7C0078
7C0078
7C007C
7C007C
7C007C
7C007C
7C007C
78007C
78007C
78007C
78007C
78007C
78007C
78003C
78003C
78003C
78003C
78003C
7C003C
7C003C
7C007C
7C007C
7C007C
7C007C
3C007C
3C0078
3C0078
3C0078
3E0078
3E00F8
1E00F8
1E00F0
1F01F0
0F01F0
0F03E0
0783E0
07CFC0
03FF80
01FF00
007C00
ENDCHAR
STARTCHAR divide
ENCODING 247
SWIDTH 439 0
DWIDTH 35 0
BBX 22 22 6 14
BITMAP
003800
007C00
00FC00
007C00
003800
000000
000000
000000
000000
7FFFF8
FFFFFC
FFFFFC
7FFFFC
000000
000000
000000
000000
003800
007C00
00FC00
007C00
003800
ENDCHAR
STARTCHAR oslash
ENCODING 248
SWIDTH 365 0
DWIDTH 29 0
BBX 21 72 4 -11
BITMAP
000300
000300
000300
000700
000700
000700
000600
000600
0FC600
1FF600
1FFE00
3FFE00
3E1F00
3C0F80
7C0FC0
780FC0
781DE0
781DE0
781DE0
781CF0
F818F0
F818F0
F818F0
F838F0
F838F0
F838F8
F838F8
F830F8
F830F8
F830F8
F070F8
F070F8
F070F8
F060F8
F060F8
F060F8
F0E078
F0E078
F0E078
F0E078
F0C078
F0C078
F8C078
F9C0F8
F9C0F8
F9C0F8
F980F8
7980F8
7980F0
7980F0
7B80F0
7F80F0
7F81F0
3F01F0
3F01E0
3F03E0
1F03E0
1F07C0
0F07C0
0F9F80
07FF00
07FE00
06F800
0E0000
0E0000
0E0000
0C0000
0C0000
0C0000
0C0000
1C0000
040000
ENDCHAR
STARTCHAR ugrave
ENCODING 249
SWIDTH 361 0
DWIDTH 29 0
BBX 24 67 1 -1
BITMAP
300000
7C0000
FF0000
7FC000
1FF000
03F800
007E00
000F00
000000
000000
000000
000000
00001E
0C001E
1C001F
1E001F
1E001F
1E001E
1E001E
1E001E
1E001E
1E001E
1E001E
1E001E
1E001E
1E001E
1E001E
1E001E
1E001E
1E001E
1E001E
1E001E
1E001E
1E001E
1E001E
1E001E
1E001E
1E001E
1E001E
1E001E
1E003E
1E003E
1E003C
1E003C
1E003C
1E003C
1F003C
1F003C
1F003C
1F003C
0F003C
0F007C
0F0078
0F0078
0F0078
0F0078
0F0078
0F00F0
0F00F0
0780F0
0781E0
07E3E0
03FFC0
03FFC0
01FF80
00FF00
003E00
ENDCHAR
STARTCHAR uacute
ENCODING 250
SWIDTH 361 0
DWIDTH 29 0
BBX 21 69 4 -1
BITMAP
000030
000078
0001F8
0003F8
0007F8
000FE0
001F80
003F00
007C00
01F000
01C000
000000
000000
000000
0000F0
6000F0
E000F8
F000F8
F000F8
F000F0
F000F0
F000F0
F000F0
F000F0
F000F0
F000F0
F000F0
F000F0
F000F0
F000F0
F000F0
F000F0
F000F0
F000F0
F000F0
F000F0
F000F0
F000F0
F000F0
F000F0
F000F0
F000F0
F001F0
F001F0
F001E0
F001E0
F001E0
F001E0
F801E0
F801E0
F801E0
F801E0
7801E0
7803E0
7803C0
7803C0
7803C0
7803C0
7803C0
780780
780780
3C0780
3C0F00
3F1F00
1FFE00
1FFE00
0FFC00
07F800
01F000
ENDCHAR
STARTCHAR ucircumflex
ENCODING 251
SWIDTH 361 0
DWIDTH 29 0
BBX 21 71 4 -1
BITMAP
006000
00F000
01F800
01F800
03F800
03FC00
03BC00
079C00
071C00
0F1E00
0F0E00
0E0E00
1E0E00
1C0F00
1C0700
080600
0000F0
6000F0
E000F8
F000F8
F000F8
F000F0
F000F0
F000F0
F000F0
F000F0
F000F0
F000F0
F000F0
F000F0
F000F0
F000F0
F000F0
F000F0
F000F0
F000F0
F000F0
F000F0
F000F0
F000F0
F000F0
F000F0
F000F0
F000F0
F001F0
F001F0
F001E0
F001E0
F001E0
F001E0
F801E0
F801E0
F801E0
F801E0
7801E0
7803E0
7803C0
7803C0
7803C0
7803C0
7803C0
780780
780780
3C0780
3C0F00
3F1F00
1FFE00
1FFE00
0FFC00
07F800
01F000
ENDCHAR
STARTCHAR udieresis
ENCODING 252
SWIDTH 361 0
DWIDTH 29 0
BBX 21 65 4 -1
BITMAP
700380
F807C0
FC07E0
FC07E0
F807C0
700380
000000
000000
000000
000000
0000F0
6000F0
E000F8
F000F8
F000F8
F000F0
F000F0
F000F0
F000F0
F000F0
F000F0
F000F0
F000F0
F000F0
F000F0
F000F0
F000F0
F000F0
F000F0
F000F0
F000F0
F000F0
F000F0
F000F0
F000F0
F000F0
F000F0
F000F0
F001F0
F001F0
F001E0
F001E0
F001E0
F001E0
F801E0
F801E0
F801E0
F801E0
7801E0
7803E0
7803C0
7803C0
7803C0
7803C0
7803C0
780780
780780
3C0780
3C0F00
3F1F00
1FFE00
1FFE00
0FFC00
07F800
01F000
ENDCHAR
STARTCHAR yacute
ENCODING 253
SWIDTH 283 0
DWIDTH 23 0
BBX 23 67 1 -1
BITMAP
000018
00003C
00007E
0001FC
0003FC
0007F0
000FE0
001F80
003E00
007800
00E000
000000
000000
000180
2003C0
F007C0
F007C0
7807C0
780F80
7C0F80
7C0F80
3C0F80
3E1F80
1E1F00
1E1F00
1F1F00
0F1E00
0F3E00
0FBE00
07BE00
07BC00
03BC00
03FC00
03FC00
01F800
01F800
00F800
00F800
00F800
00F800
00F800
00F800
00F800
00F800
007800
007800
007800
007800
007800
007800
007800
007800
007800
007800
007800
007800
007800
007800
007800
007800
007800
007800
007800
007800
00F800
00F000
007000
ENDCHAR
STARTCHAR thorn
ENCODING 254
SWIDTH 284 0
DWIDTH 23 0
BBX 15 61 5 0
BITMAP
E000
F000
F000
F000
F000
F800
F800
F800
F800
F800
F800
F000
F000
FE00
FF80
FFC0
FFE0
F7F0
F1F0
F0F8
F078
F07C
F03C
F03C
F03C
F03C
F03E
F03E
F03E
F03E
F03C
F03C
F03C
F07C
F078
F0F8
F1F0
F3E0
FFC0
FF80
FF00
FC00
F800
F800
F800
F800
F800
F800
F800
F800
F800
F800
7800
7800
7800
7800
7800
7800
7800
7800
7000
ENDCHAR
STARTCHAR ydieresis
ENCODING 255
SWIDTH 283 0
DWIDTH 23 0
BBX 20 64 1 -1
BITMAP
3801C0
7C03E0
7E03F0
7E03F0
7C03E0
3C01C0
000000
000000
000000
000000
000180
2003C0
F007C0
F007C0
7807C0
780F80
7C0F80
7C0F80
3C0F80
3E1F80
1E1F00
1E1F00
1F1F00
0F1E00
0F3E00
0FBE00
07BE00
07BC00
03BC00
03FC00
03FC00
01F800
01F800
00F800
00F800
00F800
00F800
00F800
00F800
00F800
00F800
007800
007800
007800
007800
007800
007800
007800
007800
007800
007800
007800
007800
007800
007800
007800
007800
007800
007800
007800
007800
00F800
00F000
007000
ENDCHAR
STARTCHAR Amacron
ENCODING 256
SWIDTH 350 0
DWIDTH 28 0
BBX 26 68 1 0
BITMAP
0FFFFF00
1FFFFF80
1FFFFFC0
0FFFFF80
00000000
00000000
00000000
00000000
00038000
00078000
0007C000
000FC000
000FC000
001FC000
001FC000
001FC000
003FC000
003FC000
003FC000
003FC000
007FE000
007FE000
0079E000
0079E000
00F9E000
00F1E000
00F1E000
00F1E000
00F1F000
01F1F000
01E1F000
01E1F000
01E1F000
01E1F000
01E0F000
03C0F000
03C0F000
03C0F000
03C0F800
03C0F800
07C0F800
0780F800
0780F800
0780F800
07807800
07807800
0F807800
0F807800
0F007800
0F007800
0FC07800
0FFFF800
1FFFF800
1FFFFC00
1E01FC00
1E007C00
1E007C00
3E007C00
3C007C00
3C007C00
3C007C00
3C007C00
7C007C00
78007C00
78007C00
F8007C00
70007C00
00003800
ENDCHAR
STARTCHAR amacron
ENCODING 257
SWIDTH 299 0
DWIDTH 24 0
BBX 24 61 1 0
BITMAP
3FFFFE
3FFFFF
3FFFFF
1FFFFE
000000
000000
000000
000000
003C00
007E00
007E00
007E00
007E00
007E00
007E00
00FF00
00FF00
00FF00
00FF00
00FF00
00EF00
00EF00
00E700
01E700
01E780
01E780
01C780
01C780
01C780
03C780
03C780
038780
0383C0
0383C0
0383C0
0783C0
0783C0
0703C0
0703C0
0703C0
0F03C0
0F03C0
0F03E0
0F03E0
0E03E0
1F83E0
1FFFE0
1FFFE0
1E1FE0
3E01E0
3C01F0
3C01F0
3C01F0
7C00F0
7C00F0
7C00F0
7800F8
F800F8
F800F8
F800F8
700070
ENDCHAR
STARTCHAR Abreve
ENCODING 258
SWIDTH 350 0
DWIDTH 28 0
BBX 23 74 1 0
BITMAP
001004
00381E
00381E
003C1E
003C1E
003C1E
003E3E
001F7C
001FF8
000FF8
0003E0
000000
000000
000000
000380
000780
0007C0
000FC0
000FC0
001FC0
001FC0
001FC0
003FC0
003FC0
003FC0
003FC0
007FE0
007FE0
0079E0
0079E0
00F9E0
00F1E0
00F1E0
00F1E0
00F1F0
01F1F0
01E1F0
01E1F0
01E1F0
01E1F0
01E0F0
03C0F0
03C0F0
03C0F0
03C0F8
03C0F8
07C0F8
0780F8
0780F8
0780F8
078078
078078
0F8078
0F8078
0F0078
0F0078
0FC078
0FFFF8
1FFFF8
1FFFFC
1E01FC
1E007C
1E007C
3E007C
3C007C
3C007C
3C007C
3C007C
7C007C
78007C
78007C
F8007C
70007C
000038
ENDCHAR
STARTCHAR abreve
ENCODING 259
SWIDTH 299 0
DWIDTH 24 0
BBX 21 69 1 0
BITMAP
010040
0380E0
03C1F0
03C1F0
03C1F0
01E1E0
01E3E0
01F7C0
00FFC0
007F80
003E00
000000
000000
000000
000000
000000
003C00
007E00
007E00
007E00
007E00
007E00
007E00
00FF00
00FF00
00FF00
00FF00
00FF00
00EF00
00EF00
00E700
01E700
01E780
01E780
01C780
01C780
01C780
03C780
03C780
038780
0383C0
0383C0
0383C0
0783C0
0783C0
0703C0
0703C0
0703C0
0F03C0
0F03C0
0F03E0
0F03E0
0E03E0
1F83E0
1FFFE0
1FFFE0
1E1FE0
3E01E0
3C01F0
3C01F0
3C01F0
7C00F0
7C00F0
7C00F0
7800F8
F800F8
F800F8
F800F8
700070
ENDCHAR
STARTCHAR Aogonek
ENCODING 260
SWIDTH 350 0
DWIDTH 28 0
BBX 22 74 1 -14
BITMAP
000380
000780
0007C0
000FC0
000FC0
001FC0
001FC0
001FC0
003FC0
003FC0
003FC0
003FC0
007FE0
007FE0
0079E0
0079E0
00F9E0
00F1E0
00F1E0
00F1E0
00F1F0
01F1F0
01E1F0
01E1F0
01E1F0
01E1F0
01E0F0
03C0F0
03C0F0
03C0F0
03C0F8
03C0F8
07C0F8
0780F8
0780F8
0780F8
078078
078078
0F8078
0F8078
0F0078
0F0078
0FC078
0FFFF8
1FFFF8
1FFFFC
1E01FC
1E007C
1E007C
3E007C
3C007C
3C007C
3C007C
3C007C
7C007C
78007C
78007C
F8007C
70007C
000038
0000F0
0001E0
000380
000780
000F00
001E00
001E00
001C00
001C00
001C20
001EE0
001FE0
000FE0
000780
ENDCHAR
STARTCHAR aogonek
ENCODING 261
SWIDTH 299 0
DWIDTH 24 0
BBX 21 67 1 -14
BITMAP
003C00
007E00
007E00
007E00
007E00
007E00
007E00
00FF00
00FF00
00FF00
00FF00
00FF00
00EF00
00EF00
00E700
01E700
01E780
01E780
01C780
01C780
01C780
03C780
03C780
038780
0383C0
0383C0
0383C0
0783C0
0783C0
0703C0
0703C0
0703C0
0F03C0
0F03C0
0F03E0
0F03E0
0E03E0
1F83E0
1FFFE0
1FFFE0
1E1FE0
3E01E0
3C01F0
3C01F0
3C01F0
7C00F0
7C00F0
7C00F0
7800F8
F800F8
F800F8
F800F8
700078
0000E0
0003C0
000780
000F00
000E00
001E00
001C00
003C00
003C00
003C40
003EC0
003FE0
001FC0
000F00
ENDCHAR
STARTCHAR Cacute
ENCODING 262
SWIDTH 337 0
DWIDTH 27 0
BBX 22 74 4 -1
BITMAP
000030
000078
0001F8
0003F8
0007F0
000FE0
001F80
003F00
00FC00
01F000
01C000
000000
007E00
03FF80
0FFFC0
1FFFC0
3FFFC0
7F83C0
7E0000
FC0000
F80000
F80000
F80000
F00000
F00000
F00000
F00000
F00000
F00000
F00000
F00000
F00000
F00000
F00000
F00000
F00000
F00000
F00000
F00000
F00000
F00000
F00000
F00000
F00000
F00000
F00000
F00000
F00000
F00000
F00000
F00000
F00000
F00000
F00000
F00000
F00000
F00000
F80000
F80000
780000
780000
7C0000
7C0000
7C0000
3E0000
3E0000
3F0030
1F80FC
1FC1FC
0FFFF8
07FFF8
03FFF0
01FFE0
007F00
ENDCHAR
STARTCHAR cacute
ENCODING 263
SWIDTH 279 0
DWIDTH 22 0
BBX 19 67 4 -1
BITMAP
0000C0
0001E0
0007E0
000FE0
001FC0
003F80
007E00
00FC00
03F000
07C000
070000
000000
000000
007E00
01FF00
07FF00
0FFE00
1F8000
1F0000
3E0000
3E0000
7C0000
7C0000
7C0000
7C0000
F80000
F80000
F80000
F80000
F80000
F80000
F80000
F80000
F80000
F80000
F80000
F80000
F80000
F80000
F80000
F80000
F80000
F00000
F00000
F00000
F00000
F00000
F00000
F00000
F00000
F00000
F00000
F00000
F00000
F80000
F80000
F80000
F80000
7C0000
7C0000
7E0000
3E0000
3F8400
1FFF00
0FFF00
07FF00
00FC00
ENDCHAR
STARTCHAR Ccircumflex
ENCODING 264
SWIDTH 337 0
DWIDTH 27 0
BBX 22 78 4 -1
BITMAP
001C00
003C00
003E00
007E00
007E00
00FF00
00E700
01E700
01E700
01C780
03C380
038380
0783C0
0781C0
0701C0
020180
007E00
03FF80
0FFFC0
1FFFC0
3FFFC0
7F83C0
7E0000
FC0000
F80000
F80000
F80000
F00000
F00000
F00000
F00000
F00000
F00000
F00000
F00000
F00000
F00000
F00000
F00000
F00000
F00000
F00000
F00000
F00000
F00000
F00000
F00000
F00000
F00000
F00000
F00000
F00000
F00000
F00000
F00000
F00000
F00000
F00000
F00000
F00000
F00000
F80000
F80000
780000
780000
7C0000
7C0000
7C0000
3E0000
3E0000
3F0030
1F80FC
1FC1FC
0FFFF8
07FFF8
03FFF0
01FFE0
007F00
ENDCHAR
STARTCHAR ccircumflex
ENCODING 265
SWIDTH 279 0
DWIDTH 22 0
BBX 16 69 4 -1
BITMAP
0180
03C0
07C0
07E0
0FE0
0FE0
0EF0
1E70
1C70
3C78
3C78
7838
7838
703C
701C
207E
01FF
07FF
0FFE
1F80
1F00
3E00
3E00
7C00
7C00
7C00
7C00
F800
F800
F800
F800
F800
F800
F800
F800
F800
F800
F800
F800
F800
F800
F800
F800
F800
F000
F000
F000
F000
F000
F000
F000
F000
F000
F000
F000
F000
F800
F800
F800
F800
7C00
7C00
7E00
3E00
3F84
1FFF
0FFF
07FF
00FC
ENDCHAR
STARTCHAR Cdotaccent
ENCODING 266
SWIDTH 337 0
DWIDTH 27 0
BBX 22 71 4 -1
BITMAP
00E000
01F000
01F000
01F000
01F000
00E000
000000
000000
000000
007E00
03FF80
0FFFC0
1FFFC0
3FFFC0
7F83C0
7E0000
FC0000
F80000
F80000
F80000
F00000
F00000
F00000
F00000
F00000
F00000
F00000
F00000
F00000
F00000
F00000
F00000
F00000
F00000
F00000
F00000
F00000
F00000
F00000
F00000
F00000
F00000
F00000
F00000
F00000
F00000
F00000
F00000
F00000
F00000
F00000
F00000
F00000
F00000
F80000
F80000
780000
780000
7C0000
7C0000
7C0000
3E0000
3E0000
3F0030
1F80FC
1FC1FC
0FFFF8
07FFF8
03FFF0
01FFE0
007F00
ENDCHAR
STARTCHAR cdotaccent
ENCODING 267
SWIDTH 279 0
DWIDTH 22 0
BBX 16 63 4 -1
BITMAP
0380
07C0
0FC0
0FC0
07C0
0780
0000
0000
0000
007E
01FF
07FF
0FFE
1F80
1F00
3E00
3E00
7C00
7C00
7C00
7C00
F800
F800
F800
F800
F800
F800
F800
F800
F800
F800
F800
F800
F800
F800
F800
F800
F800
F000
F000
F000
F000
F000
F000
F000
F000
F000
F000
F000
F000
F800
F800
F800
F800
7C00
7C00
7E00
3E00
3F84
1FFF
0FFF
07FF
00FC
ENDCHAR
STARTCHAR Ccaron
ENCODING 268
SWIDTH 337 0
DWIDTH 27 0
BBX 22 80 4 -1
BITMAP
0C0600
1E0F00
0E0E00
0F0E00
0F1E00
0F1E00
079C00
079C00
079C00
03DC00
03D800
01F800
01F800
00F800
00F800
007800
003000
000000
007E00
03FF80
0FFFC0
1FFFC0
3FFFC0
7F83C0
7E0000
FC0000
F80000
F80000
F80000
F00000
F00000
F00000
F00000
F00000
F00000
F00000
F00000
F00000
F00000
F00000
F00000
F00000
F00000
F00000
F00000
F00000
F00000
F00000
F00000
F00000
F00000
F00000
F00000
F00000
F00000
F00000
F00000
F00000
F00000
F00000
F00000
F00000
F00000
F80000
F80000
780000
780000
7C0000
7C0000
7C0000
3E0000
3E0000
3F0030
1F80FC
1FC1FC
0FFFF8
07FFF8
03FFF0
01FFE0
007F00
ENDCHAR
STARTCHAR ccaron
ENCODING 269
SWIDTH 279 0
DWIDTH 22 0
BBX 16 72 4 -1
BITMAP
3038
7838
7838
7878
3C78
3C70
3C70
1E70
1E70
1EE0
0FE0
0FE0
07E0
07C0
03C0
01C0
01C0
0000
007E
01FF
07FF
0FFE
1F80
1F00
3E00
3E00
7C00
7C00
7C00
7C00
F800
F800
F800
F800
F800
F800
F800
F800
F800
F800
F800
F800
F800
F800
F800
F800
F800
F000
F000
F000
F000
F000
F000
F000
F000
F000
F000
F000
F000
F800
F800
F800
F800
7C00
7C00
7E00
3E00
3F84
1FFF
0FFF
07FF
00FC
ENDCHAR
STARTCHAR Dcaron
ENCODING 270
SWIDTH 379 0
DWIDTH 30 0
BBX 21 79 4 0
BITMAP
1C0E00
1C0E00
1E1E00
1E1C00
1F1C00
0F1C00
0F3C00
0F3C00
07B800
07B800
03B800
03F800
01F000
01F000
00F000
00F000
006000
000000
3FC000
FFF800
FFFC00
FFFE00
FFFF00
F8FF80
F83FC0
781FC0
780FE0
7807E0
7803E0
7803F0
7801F0
7801F0
7800F0
7800F8
7800F8
7800F8
780078
780078
780078
780078
780078
780078
780078
780078
7C0078
7C0078
7C0078
7C0078
3C0078
3C0078
3C0078
3C0078
3C0078
3C0078
3C0078
3C00F8
3C00F8
3C00F8
3C00F0
3C00F0
3C01F0
1C01F0
1C01E0
1E03E0
1E03E0
1E03C0
1E07C0
1E0780
1E0F80
1E1F00
1E1F00
3E3E00
3E7C00
3EFC00
3FF800
7FF000
7FE000
7FC000
1F0000
ENDCHAR
STARTCHAR dcaron
ENCODING 271
SWIDTH 346 0
DWIDTH 28 0
BBX 20 71 4 0
BITMAP
C06000
E0F000
E0E000
F0E000
F1E000
F9E000
79C000
79C000
79C000
3DC000
3DC000
1D8000
1F8000
0F8000
0F8000
078000
030000
000000
3E0000
7F8000
7FE000
7FF000
7C7800
7C3C00
7C1E00
7C0F00
7C0F00
7C0780
7C0780
7C03C0
7C03C0
7C03E0
7C03E0
3C01E0
3C01E0
3C01F0
3C01F0
3C01F0
3C01F0
3C01F0
3C01F0
3C00F0
3C00F0
3C00F0
3C00F0
3C00F0
3C00F0
3C00F0
7C00F0
7C00F0
7E00F0
7E01F0
7E01F0
7E01F0
7E01E0
7E01E0
7E01E0
7E01E0
7E03E0
7E03E0
7E03C0
7E07C0
7E07C0
7E0F80
7E0F80
7E1F00
3E7E00
3FFC00
3FF800
3FF000
1FC000
ENDCHAR
STARTCHAR Dcroat
ENCODING 272
SWIDTH 421 0
DWIDTH 34 0
BBX 27 61 0 0
BITMAP
01FF0000
03FFC000
07FFF000
07FFF800
07FFFC00
07C7FC00
03C0FE00
03C07E00
03C03F00
03C01F00
01C01F80
01C00F80
01C00F80
01C007C0
01C007C0
01C007C0
01C003C0
01C003C0
01E003C0
01E003E0
01E003E0
01E003E0
01E001E0
01E001E0
01E001E0
01E001E0
01E001E0
01FF01E0
3FFF81E0
FFFF81E0
FFFF01E0
7FF801E0
01E001E0
01E003E0
01E003E0
01F003E0
01F003E0
00F003E0
00F003C0
00F003C0
00F007C0
00F007C0
00F00780
00F00780
00F00F80
00F00F00
00F00F00
00F01F00
00F01E00
00F03E00
00F03C00
00F07C00
00F0F800
00F1F800
00F3F000
00F7E000
01FFC000
01FF8000
03FF0000
01FE0000
00F80000
ENDCHAR
STARTCHAR dcroat
ENCODING 273
SWIDTH 421 0
DWIDTH 34 0
BBX 24 53 3 0
BITMAP
03E000
07F800
07FE00
07FF00
07C780
07C3C0
07C1E0
07C0F0
07C0F0
07C078
07C078
07C03C
07C03C
07C03E
03C03E
03C01E
03C01E
03C01F
03C01F
03C01F
03C01F
03C01F
07C01F
7FFC0F
FFFE0F
FFFF0F
03C00F
03C00F
03C00F
03C00F
03C00F
07C00F
07E00F
07E00F
07E01F
07E01F
07E01E
07E01E
07E01E
07E01E
07E03E
07E03E
07E03C
07E07C
07E07C
07E078
07E0F0
03E1F0
03E7E0
03FFC0
03FF80
03FF00
01FC00
ENDCHAR
STARTCHAR Emacron
ENCODING 274
SWIDTH 278 0
DWIDTH 22 0
BBX 23 69 -2 0
BITMAP
7FFFFC
FFFFFE
7FFFFE
7FFFFC
000000
000000
000000
000000
003F00
00FFC0
01FFC0
03FFC0
03FF80
03E000
01E000
01E000
01E000
01E000
01E000
01E000
01E000
01F000
01F000
01F000
01F000
01F000
01F000
01F000
01F000
01F000
01F000
01F000
01E000
01E000
01E000
01E700
01FF80
01FF80
01FF80
01FF80
01F000
01F000
01F000
01F000
01F000
01F000
01F000
01F000
01F000
01F000
01F000
01F000
01F000
01F000
01F000
01F000
01F000
01F000
01F000
01F000
01F000
01F000
01F000
01F000
01FFE0
01FFF8
01FFF8
00FFF0
007FC0
ENDCHAR
STARTCHAR emacron
ENCODING 275
SWIDTH 284 0
DWIDTH 23 0
BBX 23 60 -1 -1
BITMAP
7FFFFC
FFFFFE
FFFFFE
7FFFFC
000000
000000
00FC00
01FF80
01FFE0
03FFE0
03FFE0
03E1C0
03E000
03E000
01E000
01E000
01E000
01E000
01E000
01E000
01E000
01E000
01E000
01E000
01E000
01E000
01E000
01FF80
01FFC0
01FFC0
03FF80
03E000
03E000
03E000
03E000
03E000
03E000
03E000
03E000
03E000
03E000
03E000
03E000
03E000
03E000
03E000
03E000
03E000
01E000
01E000
01E000
01E000
01E000
01E000
01E000
01E000
01FFE0
01FFF0
01FFF0
00FFE0
ENDCHAR
STARTCHAR Ebreve
ENCODING 276
SWIDTH 278 0
DWIDTH 22 0
BBX 15 75 4 0
BITMAP
2008
703C
703C
783C
783C
783C
3C7C
3EF8
3FF8
1FF0
07C0
0000
0000
0000
0FC0
3FF0
7FF0
FFF0
FFE0
F800
7800
7800
7800
7800
7800
7800
7800
7C00
7C00
7C00
7C00
7C00
7C00
7C00
7C00
7C00
7C00
7C00
7800
7800
7800
79C0
7FE0
7FE0
7FE0
7FE0
7C00
7C00
7C00
7C00
7C00
7C00
7C00
7C00
7C00
7C00
7C00
7C00
7C00
7C00
7C00
7C00
7C00
7C00
7C00
7C00
7C00
7C00
7C00
7C00
7FF8
7FFE
7FFE
3FFC
1FF0
ENDCHAR
STARTCHAR ebreve
ENCODING 277
SWIDTH 284 0
DWIDTH 23 0
BBX 15 68 4 -1
BITMAP
4010
E078
E078
F078
F078
F078
F8F8
7DF0
7FE0
3FE0
0F80
0000
0000
0000
1F80
3FF0
3FFC
7FFC
7FFC
7C38
7C00
7C00
3C00
3C00
3C00
3C00
3C00
3C00
3C00
3C00
3C00
3C00
3C00
3C00
3C00
3FF0
3FF8
3FF8
7FF0
7C00
7C00
7C00
7C00
7C00
7C00
7C00
7C00
7C00
7C00
7C00
7C00
7C00
7C00
7C00
7C00
7C00
3C00
3C00
3C00
3C00
3C00
3C00
3C00
3C00
3FFC
3FFE
3FFE
1FFC
ENDCHAR
STARTCHAR Edotaccent
ENCODING 278
SWIDTH 278 0
DWIDTH 22 0
BBX 15 71 4 0
BITMAP
0E00
1F00
1F80
1F80
1F00
0E00
0000
0000
0000
0000
0FC0
3FF0
7FF0
FFF0
FFE0
F800
7800
7800
7800
7800
7800
7800
7800
7C00
7C00
7C00
7C00
7C00
7C00
7C00
7C00
7C00
7C00
7C00
7800
7800
7800
79C0
7FE0
7FE0
7FE0
7FE0
7C00
7C00
7C00
7C00
7C00
7C00
7C00
7C00
7C00
7C00
7C00
7C00
7C00
7C00
7C00
7C00
7C00
7C00
7C00
7C00
7C00
7C00
7C00
7C00
7FF8
7FFE
7FFE
3FFC
1FF0
ENDCHAR
STARTCHAR edotaccent
ENCODING 279
SWIDTH 284 0
DWIDTH 23 0
BBX 14 63 5 -1
BITMAP
0E00
1F00
1F00
1F00
1F00
0E00
0000
0000
0000
3F00
7FE0
7FF8
7FF8
FFF8
F870
F800
F800
7800
7800
7800
7800
7800
7800
7800
7800
7800
7800
7800
7800
7800
7FE0
7FF0
7FF0
FFE0
F800
F800
F800
F800
F800
F800
F800
F800
F800
F800
F800
F800
F800
F800
F800
F800
F800
7800
7800
7800
7800
7800
7800
7800
7800
7FF8
7FFC
7FFC
3FF8
ENDCHAR
STARTCHAR Eogonek
ENCODING 280
SWIDTH 278 0
DWIDTH 22 0
BBX 16 75 4 -14
BITMAP
0FC0
3FF0
7FF0
FFF0
FFE0
F800
7800
7800
7800
7800
7800
7800
7800
7C00
7C00
7C00
7C00
7C00
7C00
7C00
7C00
7C00
7C00
7C00
7800
7800
7800
79C0
7FE0
7FE0
7FE0
7FE0
7C00
7C00
7C00
7C00
7C00
7C00
7C00
7C00
7C00
7C00
7C00
7C00
7C00
7C00
7C00
7C00
7C00
7C00
7C00
7C00
7C00
7C00
7C00
7C00
7FF8
7FFE
7FFE
3FFC
1FF7
001E
003C
0070
00F0
01E0
03C0
03C0
0380
0380
0384
03DC
03FC
01FC
00F0
ENDCHAR
STARTCHAR eogonek
ENCODING 281
SWIDTH 284 0
DWIDTH 23 0
BBX 15 67 5 -14
BITMAP
3F00
7FE0
7FF8
7FF8
FFF8
F870
F800
F800
7800
7800
7800
7800
7800
7800
7800
7800
7800
7800
7800
7800
7800
7FE0
7FF0
7FF0
FFE0
F800
F800
F800
F800
F800
F800
F800
F800
F800
F800
F800
F800
F800
F800
F800
F800
F800
7800
7800
7800
7800
7800
7800
7800
7800
7FF8
7FFC
7FFE
3FFC
0078
00F0
01E0
03C0
0380
0780
0780
0700
0788
07D8
07FC
03F8
01E0
ENDCHAR
STARTCHAR Ecaron
ENCODING 282
SWIDTH 278 0
DWIDTH 22 0
BBX 15 80 4 0
BITMAP
C060
E0F0
E0E0
F0E0
F1E0
F9E0
79C0
79C0
79C0
3DC0
3DC0
1D80
1F80
0F80
0F80
0780
0300
0000
0000
0FC0
3FF0
7FF0
FFF0
FFE0
F800
7800
7800
7800
7800
7800
7800
7800
7C00
7C00
7C00
7C00
7C00
7C00
7C00
7C00
7C00
7C00
7C00
7800
7800
7800
79C0
7FE0
7FE0
7FE0
7FE0
7C00
7C00
7C00
7C00
7C00
7C00
7C00
7C00
7C00
7C00
7C00
7C00
7C00
7C00
7C00
7C00
7C00
7C00
7C00
7C00
7C00
7C00
7C00
7C00
7FF8
7FFE
7FFE
3FFC
1FF0
ENDCHAR
STARTCHAR ecaron
ENCODING 283
SWIDTH 284 0
DWIDTH 23 0
BBX 15 72 4 -1
BITMAP
6030
F078
7070
7870
78F0
7CF0
3CE0
3CE0
3CE0
1EE0
1EC0
0FC0
0FC0
07C0
07C0
03C0
0180
0000
1F80
3FF0
3FFC
7FFC
7FFC
7C38
7C00
7C00
3C00
3C00
3C00
3C00
3C00
3C00
3C00
3C00
3C00
3C00
3C00
3C00
3C00
3FF0
3FF8
3FF8
7FF0
7C00
7C00
7C00
7C00
7C00
7C00
7C00
7C00
7C00
7C00
7C00
7C00
7C00
7C00
7C00
7C00
7C00
3C00
3C00
3C00
3C00
3C00
3C00
3C00
3C00
3FFC
3FFE
3FFE
1FFC
ENDCHAR
STARTCHAR Gcircumflex
ENCODING 284
SWIDTH 371 0
DWIDTH 30 0
BBX 24 80 4 -2
BITMAP
003800
007C00
007C00
00FC00
00FE00
00EE00
01EE00
01CF00
03CF00
03C700
078700
078780
070380
0F0380
0F0380
020180
003F00
00FF00
03FF80
07FF00
0FC000
0F0000
1F0000
1E0000
3E0000
3C0000
7C0000
7C0000
7C0000
780000
780000
F80000
F80000
F80000
F80000
F00000
F00000
F00000
F00000
F00000
F00000
F00000
F00000
F00000
F00000
F00000
F00000
F00000
F00000
F00000
F00000
F00000
F00000
F00000
F00000
F00000
F00000
F00000
F00000
F001F8
F007FC
F00FFC
F00FFC
F007FC
F0003E
78001E
78001E
78001E
78001E
3C001E
3C001E
3E001E
1E001F
1F001F
0F803F
07E0FF
07FFFF
03FFFF
00FFCF
003F0E
ENDCHAR
STARTCHAR gcircumflex
ENCODING 285
SWIDTH 346 0
DWIDTH 28 0
BBX 21 68 4 0
BITMAP
007000
007800
00F800
01F800
01FC00
01DC00
03DC00
039E00
078E00
078E00
070E00
0F0F00
0E0700
1E0700
1E0700
04FF00
03FE00
07FE00
0FFC00
1F8000
1F0000
3F0000
3E0000
3E0000
7E0000
7C0000
7C0000
7C0000
7C0000
FC0000
F80000
F80000
F80000
F80000
F80000
F80000
F80000
F80000
F80000
F80000
F80000
F80000
F80000
F81FE0
F83FF8
F83FF8
F81FF8
F800F8
F800F8
F800F0
F800F0
F800F0
F800F0
F800F0
F800F0
FC00F0
7C00F0
7C00F0
7C00F0
7E01F0
3E01F0
3F01F0
3F83F0
1FC3F0
0FFFE0
07FFC0
03FF80
00FE00
ENDCHAR
STARTCHAR Gbreve
ENCODING 286
SWIDTH 371 0
DWIDTH 30 0
BBX 24 77 4 -2
BITMAP
040100
0E0380
0F07C0
0F07C0
0F07C0
0F8780
078F80
07DF00
03FF00
01FE00
00F800
000000
000000
003F00
00FF00
03FF80
07FF00
0FC000
0F0000
1F0000
1E0000
3E0000
3C0000
7C0000
7C0000
7C0000
780000
780000
F80000
F80000
F80000
F80000
F00000
F00000
F00000
F00000
F00000
F00000
F00000
F00000
F00000
F00000
F00000
F00000
F00000
F00000
F00000
F00000
F00000
F00000
F00000
F00000
F00000
F00000
F00000
F00000
F001F8
F007FC
F00FFC
F00FFC
F007FC
F0003E
78001E
78001E
78001E
78001E
3C001E
3C001E
3E001E
1E001F
1F001F
0F803F
07E0FF
07FFFF
03FFFF
00FFCF
003F0E
ENDCHAR
STARTCHAR gbreve
ENCODING 287
SWIDTH 346 0
DWIDTH 28 0
BBX 21 67 4 0
BITMAP
080200
1C0700
1E0F80
1E0F80
1E0F00
1F0F00
0F1F00
0FBE00
07FE00
03FC00
01F000
000000
000000
000000
00FC00
03FE00
07FE00
0FFC00
1F8000
1F0000
3F0000
3E0000
3E0000
7E0000
7C0000
7C0000
7C0000
7C0000
FC0000
F80000
F80000
F80000
F80000
F80000
F80000
F80000
F80000
F80000
F80000
F80000
F80000
F80000
F81FE0
F83FF8
F83FF8
F81FF8
F800F8
F800F8
F800F0
F800F0
F800F0
F800F0
F800F0
F800F0
FC00F0
7C00F0
7C00F0
7C00F0
7E01F0
3E01F0
3F01F0
3F83F0
1FC3F0
0FFFE0
07FFC0
03FF80
00FE00
ENDCHAR
STARTCHAR Gdotaccent
ENCODING 288
SWIDTH 371 0
DWIDTH 30 0
BBX 24 73 4 -2
BITMAP
01C000
03E000
03F000
03F000
03E000
01C000
000000
000000
000000
003F00
00FF00
03FF80
07FF00
0FC000
0F0000
1F0000
1E0000
3E0000
3C0000
7C0000
7C0000
7C0000
780000
780000
F80000
F80000
F80000
F80000
F00000
F00000
F00000
F00000
F00000
F00000
F00000
F00000
F00000
F00000
F00000
F00000
F00000
F00000
F00000
F00000
F00000
F00000
F00000
F00000
F00000
F00000
F00000
F00000
F001F8
F007FC
F00FFC
F00FFC
F007FC
F0003E
78001E
78001E
78001E
78001E
3C001E
3C001E
3E001E
1E001F
1F001F
0F803F
07E0FF
07FFFF
03FFFF
00FFCF
003F0E
ENDCHAR
STARTCHAR gdotaccent
ENCODING 289
SWIDTH 346 0
DWIDTH 28 0
BBX 21 62 4 0
BITMAP
00E000
01F000
01F800
01F800
01F000
00E000
000000
000000
000000
00FC00
03FE00
07FE00
0FFC00
1F8000
1F0000
3F0000
3E0000
3E0000
7E0000
7C0000
7C0000
7C0000
7C0000
FC0000
F80000
F80000
F80000
F80000
F80000
F80000
F80000
F80000
F80000
F80000
F80000
F80000
F80000
F81FE0
F83FF8
F83FF8
F81FF8
F800F8
F800F8
F800F0
F800F0
F800F0
F800F0
F800F0
F800F0
FC00F0
7C00F0
7C00F0
7C00F0
7E01F0
3E01F0
3F01F0
3F83F0
1FC3F0
0FFFE0
07FFC0
03FF80
00FE00
ENDCHAR
STARTCHAR Gcommaaccent
ENCODING 290
SWIDTH 371 0
DWIDTH 30 0
BBX 24 83 4 -21
BITMAP
003F00
00FF00
03FF80
07FF00
0FC000
0F0000
1F0000
1E0000
3E0000
3C0000
7C0000
7C0000
7C0000
780000
780000
F80000
F80000
F80000
F80000
F00000
F00000
F00000
F00000
F00000
F00000
F00000
F00000
F00000
F00000
F00000
F00000
F00000
F00000
F00000
F00000
F00000
F00000
F00000
F00000
F00000
F00000
F00000
F00000
F001F8
F007FC
F00FFC
F00FFC
F007FC
F0003E
78001E
78001E
78001E
78001E
3C001E
3C001E
3E001E
1E001F
1F001F
0F803F
07E0FF
07FFFF
03FFFF
00FFCF
003F0E
000000
000000
000000
000000
000000
000600
000F00
000E00
001E00
001E00
003C00
003C00
007800
007000
00F000
00E000
01C000
018000
030000
ENDCHAR
STARTCHAR gcommaaccent
ENCODING 291
SWIDTH 346 0
DWIDTH 28 0
BBX 21 70 4 0
BITMAP
000300
000700
000E00
000E00
001C00
003C00
007800
007800
00F000
00F000
01E000
01E000
01C000
018000
008000
000000
000000
00FC00
03FE00
07FE00
0FFC00
1F8000
1F0000
3F0000
3E0000
3E0000
7E0000
7C0000
7C0000
7C0000
7C0000
FC0000
F80000
F80000
F80000
F80000
F80000
F80000
F80000
F80000
F80000
F80000
F80000
F80000
F80000
F81FE0
F83FF8
F83FF8
F81FF8
F800F8
F800F8
F800F0
F800F0
F800F0
F800F0
F800F0
F800F0
FC00F0
7C00F0
7C00F0
7C00F0
7E01F0
3E01F0
3F01F0
3F83F0
1FC3F0
0FFFE0
07FFC0
03FF80
00FE00
ENDCHAR
STARTCHAR Hcircumflex
ENCODING 292
SWIDTH 330 0
DWIDTH 26 0
BBX 17 78 4 -1
BITMAP
007000
00F000
00F800
01F800
01FC00
03FC00
03DC00
079C00
079E00
070E00
0F0E00
0F0E00
1E0F00
1E0700
1C0700
040700
E00C00
F00E00
F00E00
F00E00
F00F00
F00F00
F00F00
F00F00
F00F00
F00F00
F00F00
F00F00
F00F00
F00F00
F00F00
F00F00
F00F00
F00F00
F00F00
F00F00
F00F00
F00F00
F00F00
F00F00
F00F00
F00F00
F00F00
F00F00
F00F00
FFFF00
FFFF00
FC0F00
F80F00
F80F00
F80F00
F80F00
F80F80
F80F80
780F80
780F80
780F80
780F80
780F80
780780
780780
780780
780780
780780
7C0780
7C0780
7C0780
3C0780
3C0780
3C0780
3C0780
3C0780
3C0780
3C0780
1C0780
1C0780
080780
000700
ENDCHAR
STARTCHAR hcircumflex
ENCODING 293
SWIDTH 331 0
DWIDTH 26 0
BBX 17 70 5 0
BITMAP
00C000
01E000
03E000
03F000
07F000
07F000
077800
0F3800
0E3800
1E3C00
1E3C00
3C1C00
3C1C00
381E00
380E00
100C00
000000
601E00
F01E00
F01E00
F01E00
F81E00
F81E00
F81E00
F01E00
F01E00
F01E00
F01E00
F01E00
F01E00
F01E00
F01E00
F01E00
F01F00
F01F00
F01F00
F01F00
F00F00
F00F00
F00F00
F00F00
F00F00
FE0F00
FFFF00
FFFF00
F3FF00
F01F00
F01F00
F01F00
F01F00
F01F00
F01F00
F01F00
F01F00
F01F00
F01F00
F01F00
F81F00
F81F00
F81F00
F81F80
F81F80
F81F80
F81F80
F80F80
F80F80
F80F80
780F80
780F80
700700
ENDCHAR
STARTCHAR Hbar
ENCODING 294
SWIDTH 330 0
DWIDTH 26 0
BBX 20 62 3 -2
BITMAP
080100
1C0380
1C0380
1C03C0
1C03C0
1C03C0
1C03C0
1C03C0
1C03C0
1C03C0
1C01C0
1C01C0
FFFFF0
7FFFF0
1C01C0
1C01C0
1C01C0
1C01C0
1C01C0
1C01C0
1C01C0
1E01C0
1E01C0
1E01C0
1E01C0
1E01C0
0E01C0
0E01C0
0FFFC0
0FFFC0
0FFFC0
0E01C0
0E01C0
0E01C0
0E01C0
0E01C0
0E01C0
0E01E0
0E01E0
0E01E0
0E01E0
0E01E0
0E01E0
0F01E0
0F00E0
0F00E0
0F00E0
0F00E0
0F00E0
0F00E0
0F00E0
0700E0
0700E0
0700E0
0700E0
0700E0
0700E0
0700E0
0700E0
0700E0
0000E0
0000C0
ENDCHAR
STARTCHAR hbar
ENCODING 295
SWIDTH 331 0
DWIDTH 26 0
BBX 21 53 2 0
BITMAP
0C03C0
1E03C0
1E03C0
1E03C0
1F03C0
1F03C0
1F03C0
1E03C0
1E03C0
1E03C0
1E03C0
1FFFF8
FFFFF8
FFFFC0
1E03E0
1E03E0
1E03E0
1E03E0
1E03E0
1E03E0
1E01E0
1E01E0
1E01E0
1E01E0
1E01E0
1FFFE0
1FFFE0
1FFFE0
1E03E0
1E03E0
1E03E0
1E03E0
1E03E0
1E03E0
1E03E0
1E03E0
1E03E0
1E03E0
1E03E0
1E03E0
1F03E0
1F03E0
1F03E0
1F03F0
1F03F0
1F03F0
1F03F0
1F01F0
1F01F0
1F01F0
0F01F0
0F01F0
0E00E0
ENDCHAR
STARTCHAR Itilde
ENCODING 296
SWIDTH 257 0
DWIDTH 21 0
BBX 19 70 -2 0
BITMAP
1F01C0
3F81E0
7FE3E0
FBFFE0
F0FFC0
F07F80
703F00
000000
000000
007F00
03FF80
07FF80
07FF00
03F800
007000
007000
007000
007000
007000
007000
007000
007000
007000
007000
007800
007800
007800
007800
007800
007800
007800
007800
007800
007800
007800
007800
007800
007800
007800
007800
007800
007C00
007C00
007C00
007C00
007C00
007C00
003C00
003C00
003C00
003C00
003C00
003C00
003C00
003C00
003C00
003C00
003C00
003C00
003C00
003C00
003C00
003C00
003C00
003C00
003C00
07FFE0
07FFE0
07FFE0
01FFC0
ENDCHAR
STARTCHAR itilde
ENCODING 297
SWIDTH 226 0
DWIDTH 18 0
BBX 19 64 -1 0
BITMAP
1E01C0
7F83E0
FFC3C0
FBFFC0
F1FFC0
F0FF80
703F00
000000
000000
000000
000000
00FC00
0FFE00
1FFE00
1FFE00
0FE000
01C000
01C000
01C000
01C000
01C000
01C000
01C000
01C000
01E000
01E000
01E000
01E000
01E000
01E000
01E000
01E000
01E000
01E000
01E000
01E000
01E000
01E000
01E000
01E000
01E000
01E000
01E000
01F000
01F000
01F000
01F000
00F000
00F000
00F000
00F000
00F000
00F000
00F000
00F000
00F000
00F000
00F000
00F000
00F000
1FFF80
1FFF80
1FFF80
07FF00
ENDCHAR
STARTCHAR Imacron
ENCODING 298
SWIDTH 257 0
DWIDTH 21 0
BBX 23 68 -4 0
BITMAP
7FFFFC
FFFFFE
7FFFFE
7FFFFC
000000
000000
000000
001FC0
00FFE0
01FFE0
01FFC0
00FE00
001C00
001C00
001C00
001C00
001C00
001C00
001C00
001C00
001C00
001C00
001E00
001E00
001E00
001E00
001E00
001E00
001E00
001E00
001E00
001E00
001E00
001E00
001E00
001E00
001E00
001E00
001E00
001F00
001F00
001F00
001F00
001F00
001F00
000F00
000F00
000F00
000F00
000F00
000F00
000F00
000F00
000F00
000F00
000F00
000F00
000F00
000F00
000F00
000F00
000F00
000F00
000F00
01FFF8
01FFF8
01FFF8
007FF0
ENDCHAR
STARTCHAR imacron
ENCODING 299
SWIDTH 226 0
DWIDTH 18 0
BBX 22 60 -3 0
BITMAP
FFFFF8
FFFFFC
FFFFFC
7FFFFC
000000
000000
000000
003F00
03FF80
07FF80
07FF80
03F800
007000
007000
007000
007000
007000
007000
007000
007000
007800
007800
007800
007800
007800
007800
007800
007800
007800
007800
007800
007800
007800
007800
007800
007800
007800
007800
007800
007C00
007C00
007C00
007C00
003C00
003C00
003C00
003C00
003C00
003C00
003C00
003C00
003C00
003C00
003C00
003C00
003C00
07FFE0
07FFE0
07FFE0
01FFC0
ENDCHAR
STARTCHAR Ibreve
ENCODING 300
SWIDTH 257 0
DWIDTH 21 0
BBX 14 75 3 0
BITMAP
4010
E078
E078
F078
F078
F078
78F8
7DF0
7FF0
3FE0
0F80
0000
0000
0000
0FE0
7FF0
FFF0
FFE0
7F00
0E00
0E00
0E00
0E00
0E00
0E00
0E00
0E00
0E00
0E00
0F00
0F00
0F00
0F00
0F00
0F00
0F00
0F00
0F00
0F00
0F00
0F00
0F00
0F00
0F00
0F00
0F00
0F80
0F80
0F80
0F80
0F80
0F80
0780
0780
0780
0780
0780
0780
0780
0780
0780
0780
0780
0780
0780
0780
0780
0780
0780
0780
0780
FFFC
FFFC
FFFC
3FF8
ENDCHAR
STARTCHAR ibreve
ENCODING 301
SWIDTH 226 0
DWIDTH 18 0
BBX 15 68 1 0
BITMAP
4010
E03C
F03C
F03C
783C
787C
7C78
3FF8
3FF0
1FE0
07C0
0000
0000
0000
0000
03F0
3FF8
7FF8
7FF8
3F80
0700
0700
0700
0700
0700
0700
0700
0700
0780
0780
0780
0780
0780
0780
0780
0780
0780
0780
0780
0780
0780
0780
0780
0780
0780
0780
0780
07C0
07C0
07C0
07C0
03C0
03C0
03C0
03C0
03C0
03C0
03C0
03C0
03C0
03C0
03C0
03C0
03C0
7FFE
7FFE
7FFE
1FFC
ENDCHAR
STARTCHAR Iogonek
ENCODING 302
SWIDTH 257 0
DWIDTH 21 0
BBX 14 75 3 -14
BITMAP
0FE0
7FF0
FFF0
FFE0
7F00
0E00
0E00
0E00
0E00
0E00
0E00
0E00
0E00
0E00
0E00
0F00
0F00
0F00
0F00
0F00
0F00
0F00
0F00
0F00
0F00
0F00
0F00
0F00
0F00
0F00
0F00
0F00
0F80
0F80
0F80
0F80
0F80
0F80
0780
0780
0780
0780
0780
0780
0780
0780
0780
0780
0780
0780
0780
0780
0780
0780
0780
0780
0780
FFFC
FFFC
FFFC
3FF8
01E0
03C0
0780
0F00
1E00
1C00
3C00
3C00
3800
3840
3CC0
3FE0
1FC0
0F00
ENDCHAR
STARTCHAR iogonek
ENCODING 303
SWIDTH 226 0
DWIDTH 18 0
BBX 20 66 2 -13
BITMAP
07E000
7FF000
FFF000
FFF000
7F0000
0E0000
0E0000
0E0000
0E0000
0E0000
0E0000
0E0000
0E0000
0F0000
0F0000
0F0000
0F0000
0F0000
0F0000
0F0000
0F0000
0F0000
0F0000
0F0000
0F0000
0F0000
0F0000
0F0000
0F0000
0F0000
0F0000
0F0000
0F8000
0F8000
0F8000
0F8000
078000
078000
078000
078000
078000
078000
078000
078000
078000
078000
078000
078000
078000
FFFC00
FFFC00
FFFCF0
3FF9C0
000780
000F00
001E00
001C00
003C00
003800
007800
007800
007880
007D80
007FC0
003F80
001E00
ENDCHAR
STARTCHAR Idotaccent
ENCODING 304
SWIDTH 257 0
DWIDTH 21 0
BBX 14 71 3 0
BITMAP
1C00
3E00
3F00
3F00
3E00
1C00
0000
0000
0000
0000
0FE0
7FF0
FFF0
FFE0
7F00
0E00
0E00
0E00
0E00
0E00
0E00
0E00
0E00
0E00
0E00
0F00
0F00
0F00
0F00
0F00
0F00
0F00
0F00
0F00
0F00
0F00
0F00
0F00
0F00
0F00
0F00
0F00
0F80
0F80
0F80
0F80
0F80
0F80
0780
0780
0780
0780
0780
0780
0780
0780
0780
0780
0780
0780
0780
0780
0780
0780
0780
0780
0780
FFFC
FFFC
FFFC
3FF8
ENDCHAR
STARTCHAR dotlessi
ENCODING 305
SWIDTH 226 0
DWIDTH 18 0
BBX 14 53 2 0
BITMAP
07E0
7FF0
FFF0
FFF0
7F00
0E00
0E00
0E00
0E00
0E00
0E00
0E00
0E00
0F00
0F00
0F00
0F00
0F00
0F00
0F00
0F00
0F00
0F00
0F00
0F00
0F00
0F00
0F00
0F00
0F00
0F00
0F00
0F80
0F80
0F80
0F80
0780
0780
0780
0780
0780
0780
0780
0780
0780
0780
0780
0780
0780
FFFC
FFFC
FFFC
3FF8
ENDCHAR
STARTCHAR IJ
ENCODING 306
SWIDTH 525 0
DWIDTH 42 0
BBX 33 67 3 -6
BITMAP
0FE003FF00
7FF00FFF80
FFF01FFF80
FFE01FFF80
7F00047800
0E00007800
0E00007800
0E00007800
0E00007800
0E00007800
0E00007800
0E00007800
0E00007800
0E00007800
0E00007800
0F00003800
0F00003C00
0F00003C00
0F00003C00
0F00003C00
0F00003C00
0F00003C00
0F00003C00
0F00003C00
0F00003C00
0F00003C00
0F00003C00
0F00003C00
0F00003C00
0F00003C00
0F00003C00
0F00003C00
0F80003C00
0F80003C00
0F80001C00
0F80001E00
0F80001E00
0F80001E00
0780001E00
0780001E00
0780001E00
0780001E00
0780001E00
0780001E00
0780001E00
0780001E00
0780001E00
0780001E00
0780001E00
0780001E00
0780001E00
0780001E00
0780001E00
0780003E00
0780003E00
0780003E00
0780003E00
FFFC003E00
FFFC007E00
FFFC007C00
3FF800FC00
000000FC00
000003F800
000007F000
00000FF000
00000FE000
0000078000
ENDCHAR
STARTCHAR ij
ENCODING 307
SWIDTH 480 0
DWIDTH 38 0
BBX 34 59 2 -6
BITMAP
07E01FF800
7FF03FFFC0
FFF03FFFC0
FFF007FF80
7F0000F000
0E0000F000
0E0000F000
0E0000F000
0E0000F000
0E0000F000
0E0000F000
0E0000F000
0E0000F000
0F0000F000
0F0000F000
0F0000F000
0F0000F000
0F0000F000
0F0000F000
0F0000F800
0F0000F800
0F0000F800
0F0000F800
0F0000F800
0F0000F800
0F0000F800
0F0000F800
0F0000F800
0F0000F800
0F0000F800
0F0000F800
0F0000F800
0F8000F800
0F8000F800
0F8000F800
0F8000F800
078000F800
078000F800
078000F800
078000F800
078000F800
0780007800
0780007800
0780007800
0780007800
0780007800
078000F800
078000F800
078000F800
FFFC00F800
FFFC00F800
FFFC00F000
3FF801F000
000001F000
000007E000
00000FC000
00007F8000
0000FF0000
0000FC0000
ENDCHAR
STARTCHAR Jcircumflex
ENCODING 308
SWIDTH 268 0
DWIDTH 21 0
BBX 15 83 2 -6
BITMAP
00C0
01E0
03E0
03F0
07F0
07F0
0778
0F38
0E38
1E3C
1E1C
1C1C
3C1C
381E
380E
100C
1FF8
FFFC
FFFC
FFF8
4780
0780
0780
0780
0780
0380
03C0
03C0
03C0
03C0
03C0
03C0
03C0
03C0
03C0
03C0
03C0
03C0
03C0
03C0
03C0
01C0
01C0
01C0
01C0
01E0
01E0
01E0
01E0
01E0
01E0
01E0
01E0
01E0
01E0
01E0
01E0
01E0
01E0
01E0
01E0
01E0
01E0
01E0
01E0
01E0
01E0
01E0
01E0
01E0
01E0
01E0
03E0
03E0
03E0
07E0
07C0
0FC0
1F80
7F80
7F00
7E00
7C00
ENDCHAR
STARTCHAR jcircumflex
ENCODING 309
SWIDTH 254 0
DWIDTH 20 0
BBX 18 74 0 -6
BITMAP
007000
00F000
00F800
01F800
01FC00
03FC00
03DC00
039C00
079E00
070E00
0F0E00
0F0E00
0E0700
1E0700
1C0700
3FF700
3FFFC0
3FFFC0
07FF80
00F000
00F000
00F000
00F000
00F000
00F000
00F000
00F000
00F000
00F000
00F000
00F000
00F000
00F000
00F000
00F000
00F000
00F800
00F800
00F800
00F800
00F800
00F800
00F800
00F800
00F800
00F800
00F800
00F800
00F800
00F800
00F800
00F800
00F800
00F800
00F800
00F800
00F800
00F800
00F800
00F800
00F800
00F800
00F800
00F800
00F800
00F000
00F000
01F000
03E000
07E000
0FC000
7F8000
FF0000
FC0000
ENDCHAR
STARTCHAR Kcommaaccent
ENCODING 310
SWIDTH 356 0
DWIDTH 28 0
BBX 21 83 5 -21
BITMAP
000080
0001E0
4001E0
F003E0
F007C0
F807C0
F80F80
F80F80
F81F00
F81F00
F81E00
F83E00
F83C00
F87C00
787C00
787800
78F800
78F000
79F000
79E000
7BE000
7BC000
7BC000
7FC000
7FC000
7FC000
7FC000
7FC000
7FE000
7CE000
7CE000
78F000
787000
787000
703800
703800
703800
701C00
701C00
701C00
700E00
700E00
700E00
F00F00
F80700
F80700
F80780
F80780
F80380
F80380
F803C0
F803C0
F801C0
F801E0
F801E0
F801E0
F801F0
F800F0
F800F0
F800F8
F000F8
7000F8
000078
000070
000000
000000
000000
000000
000000
001C00
001C00
003C00
003C00
007800
00F800
00F000
01E000
01E000
03C000
038000
070000
070000
060000
ENDCHAR
STARTCHAR kcommaaccent
ENCODING 311
SWIDTH 350 0
DWIDTH 28 0
BBX 21 74 5 -21
BITMAP
3800E0
3C01F0
3C03F0
3C03E0
3C07E0
3C07C0
7C0FC0
7C0F80
7C1F00
7C1F00
7C3E00
783E00
787C00
787800
78F800
78F000
79F000
79E000
7BE000
FBE000
FFE000
FFE000
FFE000
FFE000
FFE000
FCE000
FCF000
FCF000
F8F000
F8F000
F87800
F87800
F87800
F87800
F03C00
F03C00
F03C00
F03E00
F01E00
F01E00
F01F00
F01F00
F00F00
F00F80
F00F80
F007C0
F007C0
F003E0
F003F0
F001F0
F001F8
F000F8
F000F8
700070
000000
000000
000000
000000
000000
000000
001800
003C00
003C00
007800
007800
00F000
00F000
01E000
01E000
03C000
038000
070000
060000
0C0000
ENDCHAR
STARTCHAR kgreenlandic
ENCODING 312
SWIDTH 412 0
DWIDTH 33 0
BBX 21 54 7 -1
BITMAP
3800C0
7C01E0
7C03E0
7C07E0
7C07C0
780FC0
780F80
781F80
781F00
783E00
783E00
787C00
787C00
78F800
78F000
F9F000
F9E000
FBE000
FBE000
FFE000
FFE000
FFE000
FFE000
FFE000
FFE000
FDE000
FDE000
F8F000
F8F000
F8F000
F8F000
F07800
F07800
F07800
F07800
F03C00
F03C00
F03C00
F03E00
F01E00
F01E00
F01F00
F01F00
F00F00
F00F80
F00F80
F007C0
F007E0
F003E0
F003F0
F001F0
F001F8
F000F8
700070
ENDCHAR
STARTCHAR Lacute
ENCODING 313
SWIDTH 250 0
DWIDTH 20 0
BBX 14 74 4 -1
BITMAP
0018
003C
00FC
01FC
03F8
07F0
0FC0
1F80
7E00
F800
E000
0000
7000
7800
7800
7800
7800
7800
7800
7800
7800
7800
7800
7800
7800
7800
7800
7800
7C00
7C00
7C00
7C00
7C00
7C00
7C00
7C00
7C00
7C00
7C00
7C00
7C00
3C00
3C00
3C00
3C00
3C00
3C00
3C00
3C00
3C00
3C00
3C00
3C00
3C00
3C00
3C00
3C00
3C00
3C00
3C00
3C00
3C00
3C00
3C00
3C00
3C00
3C00
3C00
3FF8
3FFC
3FFC
3FFC
3FF8
1C00
ENDCHAR
STARTCHAR lacute
ENCODING 314
SWIDTH 268 0
DWIDTH 21 0
BBX 16 66 5 -1
BITMAP
000E
001F
003F
007F
00FE
03FC
07F0
0FC0
1F00
3C00
3800
0000
3800
7800
7800
7800
7800
7800
7800
7800
7800
7800
7800
7800
7800
7800
7800
7800
7800
7800
7800
7800
7800
7800
7800
7800
7800
7800
7800
7800
7800
7800
7800
7800
7800
7800
7800
F800
F800
F800
F000
F000
F000
F000
F000
F000
F000
F000
F800
F800
F800
FC00
FFFC
FFFE
FFFE
703C
ENDCHAR
STARTCHAR Lcommaaccent
ENCODING 315
SWIDTH 250 0
DWIDTH 20 0
BBX 13 82 5 -21
BITMAP
E000
F000
F000
F000
F000
F000
F000
F000
F000
F000
F000
F000
F000
F000
F000
F000
F800
F800
F800
F800
F800
F800
F800
F800
F800
F800
F800
F800
F800
7800
7800
7800
7800
7800
7800
7800
7800
7800
7800
7800
7800
7800
7800
7800
7800
7800
7800
7800
7800
7800
7800
7800
7800
7800
7800
7800
7FF0
7FF8
7FF8
7FF8
7FF0
3800
0000
0000
0000
0000
0000
0000
0180
03C0
03C0
0780
0780
0F00
0F00
1E00
1E00
3C00
3800
7000
6000
C000
ENDCHAR
STARTCHAR lcommaaccent
ENCODING 316
SWIDTH 268 0
DWIDTH 21 0
BBX 15 74 5 -21
BITMAP
3800
7800
7800
7800
7800
7800
7800
7800
7800
7800
7800
7800
7800
7800
7800
7800
7800
7800
7800
7800
7800
7800
7800
7800
7800
7800
7800
7800
7800
7800
7800
7800
7800
7800
7800
F800
F800
F800
F000
F000
F000
F000
F000
F000
F000
F000
F800
F800
F800
FC00
FFFC
FFFE
FFFE
703C
0000
0000
0000
0000
0000
0000
00C0
01C0
01C0
03C0
07C0
0780
0F80
0F00
1E00
1E00
3C00
3800
7000
6000
ENDCHAR
STARTCHAR Lcaron
ENCODING 317
SWIDTH 250 0
DWIDTH 20 0
BBX 18 80 0 -1
BITMAP
603000
F07800
707000
787000
78F000
7CF000
3CE000
3CE000
3CE000
1EE000
1EC000
0FC000
0FC000
07C000
07C000
03C000
018000
000000
070000
078000
078000
078000
078000
078000
078000
078000
078000
078000
078000
078000
078000
078000
078000
078000
07C000
07C000
07C000
07C000
07C000
07C000
07C000
07C000
07C000
07C000
07C000
07C000
07C000
03C000
03C000
03C000
03C000
03C000
03C000
03C000
03C000
03C000
03C000
03C000
03C000
03C000
03C000
03C000
03C000
03C000
03C000
03C000
03C000
03C000
03C000
03C000
03C000
03C000
03C000
03C000
03FF80
03FFC0
03FFC0
03FFC0
03FF80
01C000
ENDCHAR
STARTCHAR lcaron
ENCODING 318
SWIDTH 268 0
DWIDTH 21 0
BBX 17 72 3 -1
BITMAP
607000
E07000
F0F000
F0F000
78F000
78E000
78E000
3CE000
3DE000
3DC000
1FC000
1FC000
0FC000
0F8000
078000
038000
038000
000000
0E0000
1E0000
1E0000
1E0000
1E0000
1E0000
1E0000
1E0000
1E0000
1E0000
1E0000
1E0000
1E0000
1E0000
1E0000
1E0000
1E0000
1E0000
1E0000
1E0000
1E0000
1E0000
1E0000
1E0000
1E0000
1E0000
1E0000
1E0000
1E0000
1E0000
1E0000
1E0000
1E0000
1E0000
1E0000
3E0000
3E0000
3E0000
3C0000
3C0000
3C0000
3C0000
3C0000
3C0000
3C0000
3C0000
3E0000
3E0000
3E0000
3F0000
3FFF00
3FFF80
3FFF80
1C0F00
ENDCHAR
STARTCHAR Ldot
ENCODING 319
SWIDTH 329 0
DWIDTH 26 0
BBX 21 62 5 -1
BITMAP
E00000
F00000
F00000
F00000
F00000
F00000
F00000
F00000
F00000
F00000
F00000
F00000
F00000
F00000
F00000
F00000
F80000
F80000
F80000
F80000
F80000
F80000
F80000
F80000
F80000
F80000
F80000
F80000
F80000
780000
7800F0
7800F0
7801F8
7801F8
7801F8
7800F0
780000
780000
780000
780000
780000
780000
780000
780000
780000
780000
780000
780000
780000
780000
780000
780000
780000
780000
780000
780000
7FF000
7FF800
7FF800
7FF800
7FF000
380000
ENDCHAR
STARTCHAR ldot
ENCODING 320
SWIDTH 338 0
DWIDTH 27 0
BBX 21 54 5 -1
BITMAP
380000
780000
780000
780000
780000
780000
780000
780000
780000
780000
780000
780000
780000
780000
780000
780000
780000
780000
780000
780000
780000
780000
7800E0
7801F0
7801F8
7801F8
7801F0
7800E0
780000
780000
780000
780000
780000
780000
780000
F80000
F80000
F80000
F00000
F00000
F00000
F00000
F00000
F00000
F00000
F00000
F80000
F80000
F80000
FC0000
FFFC00
FFFE00
FFFE00
703C00
ENDCHAR
STARTCHAR Lslash
ENCODING 321
SWIDTH 279 0
DWIDTH 22 0
BBX 17 61 2 0
BITMAP
0E0000
0F0000
0F0000
0F0000
0F0000
0F0000
0F0000
0F0000
0F0000
0F0000
0F0000
0F0000
0F0000
0F0000
0F0000
0F0000
0F0000
0F0000
0F0000
0F0000
0F0000
0F0000
0F8000
0F8000
0F8100
0FBF80
0FFF80
0FFF80
7FFE00
FFF800
FF8000
7F8000
0F8000
0F8000
078000
078000
078000
078000
078000
078000
078000
078000
078000
078000
078000
078000
078000
078000
078000
078000
078000
078000
078000
078000
078000
078000
078000
07FF00
07FF80
07FF80
07FF00
ENDCHAR
STARTCHAR lslash
ENCODING 322
SWIDTH 286 0
DWIDTH 23 0
BBX 19 54 2 -1
BITMAP
038000
03C000
07C000
07C000
07C000
078000
078000
078000
078000
078000
078000
078000
078000
078000
078000
078000
078000
078000
078000
078000
078000
078300
07BF80
07FF80
0FFE00
7FF000
FF8000
FF8000
C78000
078000
078000
078000
078000
078000
078000
078000
078000
078000
078000
078000
078000
0F8000
0F8000
0F8000
0F8000
0F8000
0F8000
0F8000
0F8000
0F8000
0FFFC0
0FFFE0
07FFE0
0783C0
ENDCHAR
STARTCHAR Nacute
ENCODING 323
SWIDTH 412 0
DWIDTH 33 0
BBX 24 74 4 -1
BITMAP
000006
00001F
00003F
00007F
0000FE
0001FC
0003F0
0007E0
001F80
003E00
003800
00000E
20001F
70001F
78001F
78001F
7C001E
7C001E
7C001E
7E001E
7E001E
7F001E
7F001E
77001E
77801E
F7801E
F7801E
F3801E
F3C01E
F3C01E
F3C01E
F1E01E
F1E01E
F1E01E
F1F01E
F0F01E
F0F01E
F0F01E
F0781E
F0781E
F0781E
F0781E
F03C1E
F03C1E
F03C1E
F03C1E
F01E1E
701E1E
701E1E
700E1E
700F1E
700F1E
700F1E
70071E
78079E
78079E
78039E
78039E
78039E
7801DE
7801DE
7801DE
7801DE
7800FE
7800FE
7800FE
78007E
78007E
78003E
78003E
78003E
7C001E
78001C
00000C
ENDCHAR
STARTCHAR nacute
ENCODING 324
SWIDTH 479 0
DWIDTH 38 0
BBX 26 66 6 0
BITMAP
00000300
00000780
00001F80
00003F80
00007F00
0000FE00
0001F800
0003F000
000FC000
001F0000
001C0000
00000000
00000000
380001C0
7C0003C0
7C0003C0
FE0003C0
FE0003C0
FF0003C0
FF0003C0
FF8003C0
FF8003C0
F7C003C0
F7C003C0
F7C003C0
F3E003C0
F3E003C0
F1E003C0
F1F003C0
F1F003C0
F0F003C0
F0F803C0
F0F803C0
F07803C0
F07C03C0
F03C03C0
F03C03C0
F03E03C0
F01E03C0
F01E03C0
F01E03C0
F00F03C0
F00F03C0
F00F03C0
F00783C0
F00783C0
F00783C0
F00387C0
F003C7C0
F001C780
F001C780
F001E780
F000E780
F000E780
F000E780
F000F780
F0007780
F0007780
F0007F80
F0003F80
F0003F80
F0003F00
F8003F00
F8003F00
F8001F00
70001E00
ENDCHAR
STARTCHAR Ncommaaccent
ENCODING 325
SWIDTH 412 0
DWIDTH 33 0
BBX 24 83 4 -21
BITMAP
00000E
20001F
70001F
78001F
78001F
7C001E
7C001E
7C001E
7E001E
7E001E
7F001E
7F001E
77001E
77801E
F7801E
F7801E
F3801E
F3C01E
F3C01E
F3C01E
F1E01E
F1E01E
F1E01E
F1F01E
F0F01E
F0F01E
F0F01E
F0781E
F0781E
F0781E
F0781E
F03C1E
F03C1E
F03C1E
F03C1E
F01E1E
701E1E
701E1E
700E1E
700F1E
700F1E
700F1E
70071E
78079E
78079E
78039E
78039E
78039E
7801DE
7801DE
7801DE
7801DE
7800FE
7800FE
7800FE
78007E
78007E
78003E
78003E
78003E
7C001E
78001C
00000C
000000
000000
000000
000000
000000
000000
000180
000380
000780
000780
000F00
000F00
001E00
001E00
003C00
003800
007800
007000
00E000
00C000
ENDCHAR
STARTCHAR ncommaaccent
ENCODING 326
SWIDTH 479 0
DWIDTH 38 0
BBX 26 74 6 -21
BITMAP
380001C0
7C0003C0
7C0003C0
FE0003C0
FE0003C0
FF0003C0
FF0003C0
FF8003C0
FF8003C0
F7C003C0
F7C003C0
F7C003C0
F3E003C0
F3E003C0
F1E003C0
F1F003C0
F1F003C0
F0F003C0
F0F803C0
F0F803C0
F07803C0
F07C03C0
F03C03C0
F03C03C0
F03E03C0
F01E03C0
F01E03C0
F01E03C0
F00F03C0
F00F03C0
F00F03C0
F00783C0
F00783C0
F00783C0
F00387C0
F003C7C0
F001C780
F001C780
F001E780
F000E780
F000E780
F000E780
F000F780
F0007780
F0007780
F0007F80
F0003F80
F0003F80
F0003F00
F8003F00
F8003F00
F8001F00
70001E00
00000000
00000000
00000000
00000000
00000000
00000000
00000000
0001C000
0001C000
0003C000
00078000
00078000
000F8000
000F0000
001E0000
001E0000
003C0000
00380000
00700000
00700000
00600000
ENDCHAR
STARTCHAR Ncaron
ENCODING 327
SWIDTH 412 0
DWIDTH 33 0
BBX 24 80 4 -1
BITMAP
0180C0
03C1E0
03C1C0
01E1C0
01E3C0
01E3C0
00F380
00F380
00F380
007B80
007B00
003F00
003F00
001F00
001F00
000F00
000600
00000E
20001F
70001F
78001F
78001F
7C001E
7C001E
7C001E
7E001E
7E001E
7F001E
7F001E
77001E
77801E
F7801E
F7801E
F3801E
F3C01E
F3C01E
F3C01E
F1E01E
F1E01E
F1E01E
F1F01E
F0F01E
F0F01E
F0F01E
F0781E
F0781E
F0781E
F0781E
F03C1E
F03C1E
F03C1E
F03C1E
F01E1E
701E1E
701E1E
700E1E
700F1E
700F1E
700F1E
70071E
78079E
78079E
78039E
78039E
78039E
7801DE
7801DE
7801DE
7801DE
7800FE
7800FE
7800FE
78007E
78007E
78003E
78003E
78003E
7C001E
78001C
00000C
ENDCHAR
STARTCHAR ncaron
ENCODING 328
SWIDTH 479 0
DWIDTH 38 0
BBX 26 71 6 0
BITMAP
00C0E000
01E0E000
01E0E000
01E1E000
00F1E000
00F1C000
00F1C000
0079C000
0079C000
007B8000
003F8000
003F8000
001F8000
001F0000
000F0000
00070000
00070000
00000000
380001C0
7C0003C0
7C0003C0
FE0003C0
FE0003C0
FF0003C0
FF0003C0
FF8003C0
FF8003C0
F7C003C0
F7C003C0
F7C003C0
F3E003C0
F3E003C0
F1E003C0
F1F003C0
F1F003C0
F0F003C0
F0F803C0
F0F803C0
F07803C0
F07C03C0
F03C03C0
F03C03C0
F03E03C0
F01E03C0
F01E03C0
F01E03C0
F00F03C0
F00F03C0
F00F03C0
F00783C0
F00783C0
F00783C0
F00387C0
F003C7C0
F001C780
F001C780
F001E780
F000E780
F000E780
F000E780
F000F780
F0007780
F0007780
F0007F80
F0003F80
F0003F80
F0003F00
F8003F00
F8003F00
F8001F00
70001E00
ENDCHAR
STARTCHAR napostrophe
ENCODING 329
SWIDTH 479 0
DWIDTH 38 0
BBX 28 73 6 0
BITMAP
02000000
07800000
0F800000
0F800000
0FC00000
0F800000
1F800000
1F800000
1F800000
1F000000
3F000000
3E000000
7C000000
F8000000
F0000000
40000000
00000000
00000000
00000000
00000000
1C0000E0
3E0001E0
3E0001E0
7F0001F0
7F0001F0
7F8001F0
7F8001F0
7FC001F0
7FC001F0
7BE001F0
7BE001E0
79E001E0
79F001E0
79F001E0
78F001E0
78F801E0
78F801E0
787801E0
787C01E0
783C01E0
783C01E0
783E01E0
781E01E0
781E01E0
781F01E0
780F01E0
780F01E0
780F01E0
780781E0
780781E0
780381E0
7803C1E0
7803C1E0
7801C1E0
7801E1E0
7801E3E0
7800E3E0
7800E3C0
7800F3C0
780073C0
780073C0
780073C0
78003BC0
78003BC0
78003BC0
78003FC0
78001FC0
78001FC0
78001FC0
7C001F80
7C001F80
7C000F80
38000F00
ENDCHAR
STARTCHAR Eng
ENCODING 330
SWIDTH 465 0
DWIDTH 37 0
BBX 23 77 7 -15
BITMAP
00001C
60001E
70001E
F0001E
F8001E
F8001C
F8001C
FC001C
FC001C
FE001C
FE001C
FE001C
FF001C
FF001C
F7001C
F7801C
F7801C
F7801C
F3801C
F3C01C
F3C01C
F3C01C
F1E01C
F1E01C
F1E01C
F1E01C
F0F03C
F0F03C
F0F03C
F0F83C
F0783C
F0783C
F0783C
F03C3C
F03C3C
F03C3C
F03C3C
F01E3C
F01E3C
F01E3C
F00E3C
F00E3C
F00F3C
F00F3C
F0073C
F0073C
F007BC
7003BC
7003BC
7003BC
7001FC
7001FC
7801FC
7800FC
7800FC
7800FC
78007C
78007C
F8007C
F8003C
F8003C
70003C
00003C
00003C
00003C
00003C
00003C
00003C
00003C
00007C
0001F8
0007F8
000FF0
001FE0
001F80
001F00
000E00
ENDCHAR
STARTCHAR eng
ENCODING 331
SWIDTH 509 0
DWIDTH 41 0
BBX 27 73 7 -20
BITMAP
380001C0
7C0003C0
7C0003C0
FE0003E0
FE0003E0
FF0003E0
FF0003E0
FF8003E0
FF8003E0
F7C003E0
F7C003E0
F7C003E0
F3E003E0
F3E003E0
F3E003E0
F1F003E0
F1F003E0
F1F003E0
F0F803C0
F0F803C0
F07803C0
F07C03C0
F07C03C0
F03C03C0
F03E03C0
F03E03C0
F01E03C0
F01E03C0
F01F03C0
F00F03C0
F00F03C0
F00F83C0
F00783C0
F00783C0
F007C3C0
F003C7C0
F003C7C0
F003C7C0
F001E7C0
F001E7C0
F001E7C0
F000E7C0
F000F7C0
F000F7C0
F00077C0
F0007FC0
F0007FC0
F0003FC0
F0003F80
F8003F80
F8001F80
F8001F80
70000F80
00000F80
00000F80
00000F80
00000F00
00000F00
00000F00
00000F00
00000F00
00000E00
00001E00
00001E00
00001E00
00003C00
00003C00
00007C00
0003F800
000FF000
000FF000
000FE000
00078000
ENDCHAR
STARTCHAR Omacron
ENCODING 332
SWIDTH 355 0
DWIDTH 28 0
BBX 23 71 1 -2
BITMAP
FFFFF8
FFFFFC
FFFFFC
7FFFFC
000000
000000
000000
007C00
01FF00
03FF80
07FFC0
07C7E0
0F83E0
0F81F0
0F00F0
0F00F0
1F00F8
1F0078
1E0078
1E007C
1E003C
1E003C
1E003C
1E003C
1E003C
1E003E
1C001E
1C001E
1C001E
1C001E
1C001E
1C001E
1C001E
1C001E
1C001E
1C001E
1C001E
1C001E
1C001E
1C001E
1C001E
1C001E
1E001E
1E001E
1E001E
1E001E
1E001E
1E001E
1E001E
1E001E
1E001E
0F001E
0F001E
0F001C
0F001C
0F001C
0F001C
07801C
07803C
07803C
07C03C
03C03C
03C03C
03E07C
01E078
01F0F8
00F8F0
00FFF0
007FE0
003FC0
000F00
ENDCHAR
STARTCHAR omacron
ENCODING 333
SWIDTH 360 0
DWIDTH 29 0
BBX 24 61 1 -2
BITMAP
7FFFF8
FFFFFC
FFFFFE
7FFFFC
000000
000000
01F800
03FE00
03FF80
07FFC0
07C3E0
0780F0
0F8070
0F0078
0F0038
0F003C
0F003C
0F001C
1F001E
1F001E
1F001E
1F001E
1F001E
1F001F
1F001F
1F001F
1F001F
1F001F
1E001F
1E001F
1E001F
1E001F
1E001F
1E001F
1E000F
1E000F
1E000F
1E000F
1E000F
1F000F
1F000F
1F001F
1F001F
1F001F
1F001F
0F001F
0F001E
0F001E
0F001E
0F801E
0F803E
07803E
07803C
07C07C
03C07C
03C0F8
01E0F8
01F3F0
00FFE0
007FC0
001F00
ENDCHAR
STARTCHAR Obreve
ENCODING 334
SWIDTH 355 0
DWIDTH 28 0
BBX 20 77 4 -2
BITMAP
080200
1C0780
1E0780
1E0780
0F0780
0F0F80
0F8F00
07FF00
07FE00
03FC00
00F800
000000
000000
03E000
0FF800
1FFC00
3FFE00
3E3F00
7C1F00
7C0F80
780780
780780
F807C0
F803C0
F003C0
F003E0
F001E0
F001E0
F001E0
F001E0
F001E0
F001F0
E000F0
E000F0
E000F0
E000F0
E000F0
E000F0
E000F0
E000F0
E000F0
E000F0
E000F0
E000F0
E000F0
E000F0
E000F0
E000F0
F000F0
F000F0
F000F0
F000F0
F000F0
F000F0
F000F0
F000F0
F000F0
7800F0
7800F0
7800E0
7800E0
7800E0
7800E0
3C00E0
3C01E0
3C01E0
3E01E0
1E01E0
1E01E0
1F03E0
0F03C0
0F87C0
07C780
07FF80
03FF00
01FE00
007800
ENDCHAR
STARTCHAR obreve
ENCODING 335
SWIDTH 360 0
DWIDTH 29 0
BBX 21 70 4 -2
BITMAP
100400
381E00
381E00
3C1E00
3C1E00
3C1E00
3E3E00
1F7C00
1FF800
0FF800
03E000
000000
000000
000000
000000
0FC000
1FF000
1FFC00
3FFE00
3E1F00
3C0780
7C0380
7803C0
7801C0
7801E0
7801E0
7800E0
F800F0
F800F0
F800F0
F800F0
F800F0
F800F8
F800F8
F800F8
F800F8
F800F8
F000F8
F000F8
F000F8
F000F8
F000F8
F000F8
F00078
F00078
F00078
F00078
F00078
F80078
F80078
F800F8
F800F8
F800F8
7800F8
7800F8
7800F0
7800F0
7800F0
7C00F0
7C01F0
3C01F0
3C01E0
3E03E0
1E03E0
1E07C0
0F07C0
0F9F80
07FF00
03FE00
00F800
ENDCHAR
STARTCHAR Ohungarumlaut
ENCODING 336
SWIDTH 355 0
DWIDTH 28 0
BBX 30 82 4 -2
BITMAP
00020010
0007003C
000F007C
001F00FC
003E03F8
003E07F0
007C0FE0
00F81FC0
01F81F80
01F03E00
03E07C00
07C0F800
0781F000
0F03E000
0E078000
1C070000
10040000
00000000
03E00000
0FF80000
1FFC0000
3FFE0000
3E3F0000
7C1F0000
7C0F8000
78078000
78078000
F807C000
F803C000
F003C000
F003E000
F001E000
F001E000
F001E000
F001E000
F001E000
F001F000
E000F000
E000F000
E000F000
E000F000
E000F000
E000F000
E000F000
E000F000
E000F000
E000F000
E000F000
E000F000
E000F000
E000F000
E000F000
E000F000
F000F000
F000F000
F000F000
F000F000
F000F000
F000F000
F000F000
F000F000
F000F000
7800F000
7800F000
7800E000
7800E000
7800E000
7800E000
3C00E000
3C01E000
3C01E000
3E01E000
1E01E000
1E01E000
1F03E000
0F03C000
0F87C000
07C78000
07FF8000
03FF0000
01FE0000
00780000
ENDCHAR
STARTCHAR ohungarumlaut
ENCODING 337
SWIDTH 360 0
DWIDTH 29 0
BBX 29 74 4 -2
BITMAP
00040020
000E0078
001E00F8
003E01F8
003E03F0
007C07E0
00F80FC0
01F01F80
01F03F00
03E07C00
07C0F800
0781F000
0F03E000
1E07C000
1C070000
380E0000
200C0000
00000000
00000000
0FC00000
1FF00000
1FFC0000
3FFE0000
3E1F0000
3C078000
7C038000
7803C000
7801C000
7801E000
7801E000
7800E000
F800F000
F800F000
F800F000
F800F000
F800F000
F800F800
F800F800
F800F800
F800F800
F800F800
F000F800
F000F800
F000F800
F000F800
F000F800
F000F800
F0007800
F0007800
F0007800
F0007800
F0007800
F8007800
F8007800
F800F800
F800F800
F800F800
7800F800
7800F800
7800F000
7800F000
7800F000
7C00F000
7C01F000
3C01F000
3C01E000
3E03E000
1E03E000
1E07C000
0F07C000
0F9F8000
07FF0000
03FE0000
00F80000
ENDCHAR
STARTCHAR OE
ENCODING 338
SWIDTH 569 0
DWIDTH 46 0
BBX 40 62 4 -1
BITMAP
007FC00000
01FFF8C000
03FFFFFFF8
07F1FFFFF8
0F801FFFF8
1F0007E000
1E0003E000
3C0003E000
3C0001E000
380001E000
780001E000
780001E000
700001E000
700001E000
F00001E000
F00001E000
F00001E000
F00001E000
E00001E000
E00001F000
E00001F000
E00001F000
E00001F000
E00001F000
E00001F000
E00001F000
E00001F000
E00001F000
E00000F000
E00000FFE0
E00000FFE0
E00000FFC0
E00000F000
F00000F000
F00000F000
F00000F000
F00000F000
F00000F000
F00000F000
F00000F000
F00000F000
F00000F000
F00000F000
F00000F000
700000F000
780000F000
780000F000
780000F000
380000F000
380000F000
3C0000F000
1C0000F000
1F0000F000
0F8000F000
07C000F000
07E000F000
03FC03F000
00FFFFF000
007FFFFFFC
001FFFFFFF
0001FCFFFF
0000007FFF
ENDCHAR
STARTCHAR oe
ENCODING 339
SWIDTH 460 0
DWIDTH 37 0
BBX 29 55 4 -2
BITMAP
01F03F00
07F83FE0
0FFC7FF8
0F3E7FF8
1C0F79F8
1C07F810
3803F800
3801F800
3801F800
7801F800
7800F800
7000F800
7000F800
7000F800
F000F800
F000F800
F000F800
F000F800
F000F800
F000F800
F000F800
F000F800
F000F800
F000FFF0
F000FFF0
F000FFE0
F000F800
F000F800
F0007800
F0007800
F0007800
F0007800
F0007800
F8007800
F8007800
F800F800
F800F800
F800F800
F800F800
7800F800
7800F800
7800F800
7C00F800
7C00F800
7C01F800
3C01F800
3C01F800
3E03F800
1E03F800
1E07F800
0F077800
0F9F7FF8
07FE7FF8
03FC3FF8
00F80000
ENDCHAR
STARTCHAR Racute
ENCODING 340
SWIDTH 289 0
DWIDTH 23 0
BBX 18 73 4 0
BITMAP
001C00
003E00
007E00
00FE00
01FC00
03F800
0FE000
1F8000
3F0000
7C0000
700000
000000
7C0000
7F0000
7F8000
7FC000
7BE000
79E000
79F000
78F000
78F000
78F800
78F800
787800
787800
78F800
78F800
78F800
78F800
78F800
70F000
71F000
71F000
73E000
7BE000
7FE000
7FC000
7FC000
7F8000
7F8000
7F8000
7FC000
7BC000
7BC000
7BC000
79C000
79C000
79E000
79E000
78E000
78E000
78F000
787000
787000
787800
783800
783800
783800
783C00
781C00
781C00
781E00
781E00
780F00
780F00
F80F00
F80F00
F80F80
F80F80
F807C0
F80780
780780
700380
ENDCHAR
STARTCHAR racute
ENCODING 341
SWIDTH 295 0
DWIDTH 24 0
BBX 19 67 5 -1
BITMAP
0001C0
0003C0
0007E0
000FE0
001FC0
007F80
00FE00
01F800
03E000
078000
070000
000000
000000
7C0000
FF0000
FFC000
F7E000
F1E000
F1F000
F0F000
F0F000
F0F000
F0F000
F0F000
F0F000
F0F000
F0F000
F0F000
F0F000
F1F000
F1F000
F1E000
F3E000
F3C000
F7C000
FF8000
FF8000
FF0000
FF0000
F78000
F78000
778000
738000
738000
73C000
73C000
73C000
71C000
71C000
71E000
71E000
70E000
70E000
70E000
70F000
70F000
707000
707800
707800
707800
703C00
783C00
783E00
781E00
781F00
380F00
000600
ENDCHAR
STARTCHAR Rcommaaccent
ENCODING 342
SWIDTH 289 0
DWIDTH 23 0
BBX 18 82 4 -21
BITMAP
7C0000
7F0000
7F8000
7FC000
7BE000
79E000
79F000
78F000
78F000
78F800
78F800
787800
787800
78F800
78F800
78F800
78F800
78F800
70F000
71F000
71F000
73E000
7BE000
7FE000
7FC000
7FC000
7F8000
7F8000
7F8000
7FC000
7BC000
7BC000
7BC000
79C000
79C000
79E000
79E000
78E000
78E000
78F000
787000
787000
787800
783800
783800
783800
783C00
781C00
781C00
781E00
781E00
780F00
780F00
F80F00
F80F00
F80F80
F80F80
F807C0
F80780
780780
700380
000000
000000
000000
000000
000000
000000
000000
003000
007000
00F000
00F000
01E000
01E000
03C000
03C000
078000
070000
0F0000
0E0000
1C0000
180000
ENDCHAR
STARTCHAR rcommaaccent
ENCODING 343
SWIDTH 295 0
DWIDTH 24 0
BBX 16 74 5 -21
BITMAP
7C00
FF00
FFC0
F7E0
F1E0
F1F0
F0F0
F0F0
F0F0
F0F0
F0F0
F0F0
F0F0
F0F0
F0F0
F0F0
F1F0
F1F0
F1E0
F3E0
F3C0
F7C0
FF80
FF80
FF00
FF00
F780
F780
7780
7380
7380
73C0
73C0
73C0
71C0
71C0
71E0
71E0
70E0
70E0
70E0
70F0
70F0
7070
7078
7078
7078
703C
783C
783E
781E
781F
380F
0006
0000
0000
0000
0000
0000
0000
0060
00E0
00E0
01E0
01E0
03C0
07C0
0780
0F00
0F00
1E00
1C00
3800
3000
ENDCHAR
STARTCHAR Rcaron
ENCODING 344
SWIDTH 289 0
DWIDTH 23 0
BBX 21 79 1 0
BITMAP
603000
F07000
F07000
F8F000
78F000
78E000
7CE000
3CE000
3CE000
1DC000
1FC000
1FC000
0FC000
07C000
078000
038000
018000
000000
0F8000
0FE000
0FF000
0FF800
0F7C00
0F3C00
0F3E00
0F1E00
0F1E00
0F1F00
0F1F00
0F0F00
0F0F00
0F1F00
0F1F00
0F1F00
0F1F00
0F1F00
0E1E00
0E3E00
0E3E00
0E7C00
0F7C00
0FFC00
0FF800
0FF800
0FF000
0FF000
0FF000
0FF800
0F7800
0F7800
0F7800
0F3800
0F3800
0F3C00
0F3C00
0F1C00
0F1C00
0F1E00
0F0E00
0F0E00
0F0F00
0F0700
0F0700
0F0700
0F0780
0F0380
0F0380
0F03C0
0F03C0
0F01E0
0F01E0
1F01E0
1F01E0
1F01F0
1F01F0
1F00F8
1F00F0
0F00F0
0E0070
ENDCHAR
STARTCHAR rcaron
ENCODING 345
SWIDTH 295 0
DWIDTH 24 0
BBX 16 72 5 -1
BITMAP
6030
7078
7870
7870
7870
3CF0
3CF0
3CE0
1EE0
1EE0
0EE0
0EC0
0FC0
07C0
03C0
03C0
0180
0000
7C00
FF00
FFC0
F7E0
F1E0
F1F0
F0F0
F0F0
F0F0
F0F0
F0F0
F0F0
F0F0
F0F0
F0F0
F0F0
F1F0
F1F0
F1E0
F3E0
F3C0
F7C0
FF80
FF80
FF00
FF00
F780
F780
7780
7380
7380
73C0
73C0
73C0
71C0
71C0
71E0
71E0
70E0
70E0
70E0
70F0
70F0
7070
7078
7078
7078
703C
783C
783E
781E
781F
380F
0006
ENDCHAR
STARTCHAR Sacute
ENCODING 346
SWIDTH 307 0
DWIDTH 25 0
BBX 20 76 3 -2
BITMAP
000060
0000F0
0003F0
0007F0
000FE0
001FC0
003F00
007E00
01F800
03E000
038000
000000
000000
01F000
03FC00
0FFE00
0FFC00
1F8C00
3F0000
3E0000
3C0000
7C0000
7C0000
7C0000
7C0000
7C0000
7C0000
7C0000
7C0000
3C0000
3E0000
3E0000
3E0000
1E0000
1F0000
1F0000
0F8000
0F8000
07C000
07C000
03E000
03E000
01F000
01F000
00F800
00F800
007C00
007C00
003E00
003E00
003F00
001F00
001F00
001F00
000F80
000F80
000F80
000F80
000F80
000F80
000780
000F80
000F80
000F80
000F80
000F80
000F00
001F00
001F00
003E00
003E00
607C00
FDFC00
FFF800
7FE000
1F8000
ENDCHAR
STARTCHAR sacute
ENCODING 347
SWIDTH 247 0
DWIDTH 20 0
BBX 18 68 3 -1
BITMAP
000180
0007C0
000FC0
001FC0
003F80
007F00
00FC00
03F800
07E000
0F8000
0E0000
000000
000000
000000
078000
1FC000
3FE000
3FE000
7C0000
780000
780000
F00000
F00000
F00000
F00000
F00000
F00000
F00000
F00000
F00000
F00000
780000
780000
7C0000
3C0000
3E0000
1E0000
1F0000
0F0000
0F8000
078000
03C000
03E000
01E000
01E000
00F000
00F000
00F000
007800
007800
007800
007800
007800
007800
007800
007800
007800
007800
007800
00F000
00F000
00F000
01E000
03E000
E7C000
FF8000
FF0000
7C0000
ENDCHAR
STARTCHAR Scircumflex
ENCODING 348
SWIDTH 307 0
DWIDTH 25 0
BBX 17 81 3 -2
BITMAP
003800
007800
007C00
00FC00
00FC00
01FE00
01CE00
03CE00
03CE00
038F00
078700
070700
0F0780
0F0380
0E0380
040300
000000
000000
01F000
03FC00
0FFE00
0FFC00
1F8C00
3F0000
3E0000
3C0000
7C0000
7C0000
7C0000
7C0000
7C0000
7C0000
7C0000
7C0000
3C0000
3E0000
3E0000
3E0000
1E0000
1F0000
1F0000
0F8000
0F8000
07C000
07C000
03E000
03E000
01F000
01F000
00F800
00F800
007C00
007C00
003E00
003E00
003F00
001F00
001F00
001F00
000F80
000F80
000F80
000F80
000F80
000F80
000780
000F80
000F80
000F80
000F80
000F80
000F00
001F00
001F00
003E00
003E00
607C00
FDFC00
FFF800
7FE000
1F8000
ENDCHAR
STARTCHAR scircumflex
ENCODING 349
SWIDTH 247 0
DWIDTH 20 0
BBX 13 70 3 -1
BITMAP
0300
0780
0F80
0FC0
1FC0
1FC0
3DE0
3CE0
38E0
78E0
78F0
F070
F070
E078
E038
4030
0780
1FC0
3FE0
3FE0
7C00
7800
7800
F000
F000
F000
F000
F000
F000
F000
F000
F000
F000
7800
7800
7C00
3C00
3E00
1E00
1F00
0F00
0F80
0780
03C0
03E0
01E0
01E0
00F0
00F0
00F0
0078
0078
0078
0078
0078
0078
0078
0078
0078
0078
0078
00F0
00F0
00F0
01E0
03E0
E7C0
FF80
FF00
7C00
ENDCHAR
STARTCHAR Scedilla
ENCODING 350
SWIDTH 307 0
DWIDTH 25 0
BBX 17 78 3 -17
BITMAP
01F000
03FC00
0FFE00
0FFC00
1F8C00
3F0000
3E0000
3C0000
7C0000
7C0000
7C0000
7C0000
7C0000
7C0000
7C0000
7C0000
3C0000
3E0000
3E0000
3E0000
1E0000
1F0000
1F0000
0F8000
0F8000
07C000
07C000
03E000
03E000
01F000
01F000
00F800
00F800
007C00
007C00
003E00
003E00
003F00
001F00
001F00
001F00
000F80
000F80
000F80
000F80
000F80
000F80
000780
000F80
000F80
000F80
000F80
000F80
000F00
001F00
001F00
003E00
003E00
607C00
FDFC00
FFF800
7FE000
1F8000
060000
0F8000
0FE000
07E000
007000
007000
003000
003000
007800
007000
007000
007000
18E000
1FC000
0F8000
ENDCHAR
STARTCHAR scedilla
ENCODING 351
SWIDTH 247 0
DWIDTH 20 0
BBX 13 70 3 -17
BITMAP
0780
1FC0
3FE0
3FE0
7C00
7800
7800
F000
F000
F000
F000
F000
F000
F000
F000
F000
F000
7800
7800
7C00
3C00
3E00
1E00
1F00
0F00
0F80
0780
03C0
03E0
01E0
01E0
00F0
00F0
00F0
0078
0078
0078
0078
0078
0078
0078
0078
0078
0078
0078
00F0
00F0
00F0
01E0
03E0
E7C0
FF80
FF00
7C00
0C00
0C00
1F00
1FC0
0FC0
00E0
00E0
0060
0070
0070
00E0
00E0
00E0
31C0
3F80
1F00
ENDCHAR
STARTCHAR Scaron
ENCODING 352
SWIDTH 307 0
DWIDTH 25 0
BBX 17 83 3 -2
BITMAP
180C00
3C1E00
1C1C00
1E1C00
1E3C00
1E3C00
0F3800
0F3800
0F3800
07B800
07B000
03F000
03F000
01F000
01F000
00F000
006000
000000
000000
000000
01F000
03FC00
0FFE00
0FFC00
1F8C00
3F0000
3E0000
3C0000
7C0000
7C0000
7C0000
7C0000
7C0000
7C0000
7C0000
7C0000
3C0000
3E0000
3E0000
3E0000
1E0000
1F0000
1F0000
0F8000
0F8000
07C000
07C000
03E000
03E000
01F000
01F000
00F800
00F800
007C00
007C00
003E00
003E00
003F00
001F00
001F00
001F00
000F80
000F80
000F80
000F80
000F80
000F80
000780
000F80
000F80
000F80
000F80
000F80
000F00
001F00
001F00
003E00
003E00
607C00
FDFC00
FFF800
7FE000
1F8000
ENDCHAR
STARTCHAR scaron
ENCODING 353
SWIDTH 247 0
DWIDTH 20 0
BBX 13 73 3 -1
BITMAP
6070
E070
F0F0
F0F0
78F0
78E0
78E0
3CE0
3DE0
3DC0
1FC0
1FC0
0FC0
0F80
0780
0380
0380
0000
0000
0780
1FC0
3FE0
3FE0
7C00
7800
7800
F000
F000
F000
F000
F000
F000
F000
F000
F000
F000
7800
7800
7C00
3C00
3E00
1E00
1F00
0F00
0F80
0780
03C0
03E0
01E0
01E0
00F0
00F0
00F0
0078
0078
0078
0078
0078
0078
0078
0078
0078
0078
0078
00F0
00F0
00F0
01E0
03E0
E7C0
FF80
FF00
7C00
ENDCHAR
STARTCHAR uni0162
ENCODING 354
SWIDTH 262 0
DWIDTH 21 0
BBX 17 77 0 -17
BITMAP
0FFF00
7FFF80
FFFF80
FFFF80
7FE000
01E000
00F000
00F000
00F000
00F000
00F000
00F000
00F000
00F000
00F000
00F000
00F000
00F000
00F000
00F000
00F000
00F000
00F000
00F000
00F000
00F000
00F000
00F000
00F000
00F000
00F000
00F000
00F000
00F000
00F000
007000
007000
007000
007000
007000
007000
007000
007000
007000
007800
007800
007800
007800
007800
007800
00F800
00F800
00F800
00F800
00F800
00F800
00F800
00F800
007800
007000
006000
006000
006000
007C00
007E00
003F00
000380
000380
000380
000380
000380
000380
000380
000700
00CF00
00FE00
007800
ENDCHAR
STARTCHAR uni0163
ENCODING 355
SWIDTH 256 0
DWIDTH 20 0
BBX 18 70 0 -17
BITMAP
7FFF80
FFFF80
7FFF80
3FFF00
01E000
01E000
01E000
01E000
01E000
01E000
01E000
01E000
01E000
01E000
01E000
01E000
00E000
00E000
00E000
00F000
00F000
00F000
00F000
00F000
00F000
00F000
00F000
00F000
00F000
00F000
00F000
00F800
00F800
007800
007800
007800
007800
007800
007800
007800
007800
007800
007800
007800
007800
007800
007800
007800
007800
007800
007C00
007800
003000
003000
003000
003000
003E00
003F00
003F80
000180
0001C0
0001C0
0001C0
0001C0
0001C0
0001C0
000380
006780
007F00
003C00
ENDCHAR
STARTCHAR Tcaron
ENCODING 356
SWIDTH 262 0
DWIDTH 21 0
BBX 17 79 0 0
BITMAP
060300
0F0780
0F0700
078700
078F00
078F00
03CE00
03CE00
03CE00
01EE00
01EC00
00FC00
00FC00
007C00
007C00
003C00
001800
000000
000000
0FFF00
7FFF80
FFFF80
FFFF80
7FE000
01E000
00F000
00F000
00F000
00F000
00F000
00F000
00F000
00F000
00F000
00F000
00F000
00F000
00F000
00F000
00F000
00F000
00F000
00F000
00F000
00F000
00F000
00F000
00F000
00F000
00F000
00F000
00F000
00F000
00F000
007000
007000
007000
007000
007000
007000
007000
007000
007000
007800
007800
007800
007800
007800
007800
00F800
00F800
00F800
00F800
00F800
00F800
00F800
00F800
007800
007000
ENDCHAR
STARTCHAR tcaron
ENCODING 357
SWIDTH 256 0
DWIDTH 20 0
BBX 17 71 0 0
BITMAP
180C00
3C1C00
3C1C00
1E3C00
1E3C00
1E3800
1F3800
0F3800
0F3800
073000
07F000
03F000
03F000
01F000
01F000
00E000
006000
000000
7FFF80
FFFF80
7FFF80
3FFF00
01E000
01E000
01E000
01E000
01E000
01E000
01E000
01E000
01E000
01E000
01E000
01E000
00E000
00E000
00E000
00F000
00F000
00F000
00F000
00F000
00F000
00F000
00F000
00F000
00F000
00F000
00F000
00F800
00F800
007800
007800
007800
007800
007800
007800
007800
007800
007800
007800
007800
007800
007800
007800
007800
007800
007800
007C00
007800
003000
ENDCHAR
STARTCHAR Tbar
ENCODING 358
SWIDTH 342 0
DWIDTH 27 0
BBX 23 60 4 0
BITMAP
07FFC0
3FFFC0
7FFFE0
7FFFC0
3FF800
00F800
007800
007800
007800
007800
007800
007800
007800
007800
007800
007800
007800
007800
007800
007800
007800
007800
007800
007800
7FFFFC
FFFFFE
7FFFFE
7FFFFC
007800
007800
007800
007800
007800
003800
003800
003800
003800
003800
003800
003800
003800
003C00
003C00
003C00
003C00
003C00
003C00
003C00
003C00
003C00
003C00
007C00
007C00
007C00
007C00
007C00
007C00
007C00
003C00
001800
ENDCHAR
STARTCHAR tbar
ENCODING 359
SWIDTH 342 0
DWIDTH 27 0
BBX 19 53 4 0
BITMAP
7FFF00
FFFF80
FFFF80
7FFF00
01E000
01E000
01E000
01E000
01E000
01E000
01E000
01E000
01E000
01E000
01E000
01E000
01E000
01E000
01E000
01E000
01E000
00E100
03FFC0
3FFFE0
7FFFC0
3FFF80
3FF800
00F000
00F000
00F000
00F000
00F000
00F000
00F000
00F000
00F000
00F800
00F800
007800
007800
007800
007800
007800
007800
007800
007800
007800
007800
007800
007800
007800
007800
003000
ENDCHAR
STARTCHAR Utilde
ENCODING 360
SWIDTH 401 0
DWIDTH 32 0
BBX 23 71 4 -2
BITMAP
0F00E0
1FC1F0
3FF1F0
7DFFF0
787FE0
783FC0
381F80
000000
000000
000000
600030
F00078
F8007C
F8007C
F8007C
F80078
F80078
F80078
F80078
F80078
F80078
F80078
F80078
F80078
F80078
F80078
F80078
F80078
F80078
F80078
F80038
F8003C
F8003C
F8003C
F8003C
F8003C
FC003C
FC003C
FC003C
7C003C
7C003C
7C003C
7C003C
7C003C
7C001C
7C001C
7C001C
7C001C
7E001C
7E001C
7E001C
3E001C
3E001E
3E001E
3E001E
3E001E
1E001E
1F001E
1F001E
1F001E
0F801E
0F801E
0F803C
07C03C
07E03C
03E03C
01F078
01FEF8
00FFF0
003FE0
000FC0
ENDCHAR
STARTCHAR utilde
ENCODING 361
SWIDTH 361 0
DWIDTH 29 0
BBX 21 65 4 -1
BITMAP
1E01C0
7F83C0
FFC3E0
FBFFC0
F1FFC0
F0FF80
703F00
000000
000000
000000
0000F0
6000F0
E000F8
F000F8
F000F8
F000F0
F000F0
F000F0
F000F0
F000F0
F000F0
F000F0
F000F0
F000F0
F000F0
F000F0
F000F0
F000F0
F000F0
F000F0
F000F0
F000F0
F000F0
F000F0
F000F0
F000F0
F000F0
F000F0
F001F0
F001F0
F001E0
F001E0
F001E0
F001E0
F801E0
F801E0
F801E0
F801E0
7801E0
7803E0
7803C0
7803C0
7803C0
7803C0
7803C0
780780
780780
3C0780
3C0F00
3F1F00
1FFE00
1FFE00
0FFC00
07F800
01F000
ENDCHAR
STARTCHAR Umacron
ENCODING 362
SWIDTH 401 0
DWIDTH 32 0
BBX 24 70 3 -2
BITMAP
7FFFF8
FFFFFC
FFFFFE
7FFFFC
000000
000000
000000
000000
000000
300018
78003C
7C003E
7C003E
7C003E
7C003C
7C003C
7C003C
7C003C
7C003C
7C003C
7C003C
7C003C
7C003C
7C003C
7C003C
7C003C
7C003C
7C003C
7C003C
7C001C
7C001E
7C001E
7C001E
7C001E
7C001E
7E001E
7E001E
7E001E
3E001E
3E001E
3E001E
3E001E
3E001E
3E000E
3E000E
3E000E
3E000E
3F000E
3F000E
3F000E
1F000E
1F000F
1F000F
1F000F
1F000F
0F000F
0F800F
0F800F
0F800F
07C00F
07C00F
07C01E
03E01E
03F01E
01F01E
00F83C
00FF7C
007FF8
001FF0
0007E0
ENDCHAR
STARTCHAR umacron
ENCODING 363
SWIDTH 361 0
DWIDTH 29 0
BBX 23 62 2 -1
BITMAP
7FFFF8
FFFFFC
FFFFFC
7FFFFC
000000
000000
000000
00003C
18003C
38003E
3C003E
3C003E
3C003C
3C003C
3C003C
3C003C
3C003C
3C003C
3C003C
3C003C
3C003C
3C003C
3C003C
3C003C
3C003C
3C003C
3C003C
3C003C
3C003C
3C003C
3C003C
3C003C
3C003C
3C003C
3C003C
3C007C
3C007C
3C0078
3C0078
3C0078
3C0078
3E0078
3E0078
3E0078
3E0078
1E0078
1E00F8
1E00F0
1E00F0
1E00F0
1E00F0
1E00F0
1E01E0
1E01E0
0F01E0
0F03C0
0FC7C0
07FF80
07FF80
03FF00
01FE00
007C00
ENDCHAR
STARTCHAR Ubreve
ENCODING 364
SWIDTH 401 0
DWIDTH 32 0
BBX 23 76 4 -2
BITMAP
010040
0381E0
0381E0
03C1E0
03C1E0
03C1E0
03E3E0
01F7C0
01FF80
00FF80
003E00
000000
000000
000000
000000
600030
F00078
F8007C
F8007C
F8007C
F80078
F80078
F80078
F80078
F80078
F80078
F80078
F80078
F80078
F80078
F80078
F80078
F80078
F80078
F80078
F80038
F8003C
F8003C
F8003C
F8003C
F8003C
FC003C
FC003C
FC003C
7C003C
7C003C
7C003C
7C003C
7C003C
7C001C
7C001C
7C001C
7C001C
7E001C
7E001C
7E001C
3E001C
3E001E
3E001E
3E001E
3E001E
1E001E
1F001E
1F001E
1F001E
0F801E
0F801E
0F803C
07C03C
07E03C
03E03C
01F078
01FEF8
00FFF0
003FE0
000FC0
ENDCHAR
STARTCHAR ubreve
ENCODING 365
SWIDTH 361 0
DWIDTH 29 0
BBX 21 70 4 -1
BITMAP
100400
380F00
3C0F00
3C0F00
1E0F00
1E1F00
1F1E00
0FBE00
0FFC00
07F800
01F000
000000
000000
000000
000000
0000F0
6000F0
E000F8
F000F8
F000F8
F000F0
F000F0
F000F0
F000F0
F000F0
F000F0
F000F0
F000F0
F000F0
F000F0
F000F0
F000F0
F000F0
F000F0
F000F0
F000F0
F000F0
F000F0
F000F0
F000F0
F000F0
F000F0
F000F0
F001F0
F001F0
F001E0
F001E0
F001E0
F001E0
F801E0
F801E0
F801E0
F801E0
7801E0
7803E0
7803C0
7803C0
7803C0
7803C0
7803C0
780780
780780
3C0780
3C0F00
3F1F00
1FFE00
1FFE00
0FFC00
07F800
01F000
ENDCHAR
STARTCHAR Uring
ENCODING 366
SWIDTH 401 0
DWIDTH 32 0
BBX 23 76 4 -2
BITMAP
00FC00
03FF00
07FF80
07CFC0
0F01C0
0F01C0
0E00C0
0E01C0
0E01C0
0703C0
07CF80
07FF80
03FF00
00FC00
000000
600030
F00078
F8007C
F8007C
F8007C
F80078
F80078
F80078
F80078
F80078
F80078
F80078
F80078
F80078
F80078
F80078
F80078
F80078
F80078
F80078
F80038
F8003C
F8003C
F8003C
F8003C
F8003C
FC003C
FC003C
FC003C
7C003C
7C003C
7C003C
7C003C
7C003C
7C001C
7C001C
7C001C
7C001C
7E001C
7E001C
7E001C
3E001C
3E001E
3E001E
3E001E
3E001E
1E001E
1F001E
1F001E
1F001E
0F801E
0F801E
0F803C
07C03C
07E03C
03E03C
01F078
01FEF8
00FFF0
003FE0
000FC0
ENDCHAR
STARTCHAR uring
ENCODING 367
SWIDTH 361 0
DWIDTH 29 0
BBX 21 71 4 -1
BITMAP
03F000
0FFC00
1FFE00
1F3F00
3C0700
3C0700
380300
380700
380700
1C0F00
1F3E00
1FFE00
0FFC00
03F000
000000
000000
0000F0
6000F0
E000F8
F000F8
F000F8
F000F0
F000F0
F000F0
F000F0
F000F0
F000F0
F000F0
F000F0
F000F0
F000F0
F000F0
F000F0
F000F0
F000F0
F000F0
F000F0
F000F0
F000F0
F000F0
F000F0
F000F0
F000F0
F000F0
F001F0
F001F0
F001E0
F001E0
F001E0
F001E0
F801E0
F801E0
F801E0
F801E0
7801E0
7803E0
7803C0
7803C0
7803C0
7803C0
7803C0
780780
780780
3C0780
3C0F00
3F1F00
1FFE00
1FFE00
0FFC00
07F800
01F000
ENDCHAR
STARTCHAR Uhungarumlaut
ENCODING 368
SWIDTH 401 0
DWIDTH 32 0
BBX 31 81 4 -2
BITMAP
00010008
0003801E
0007C03E
0007807E
000F80FC
001F01F8
003E03F0
007E07E0
007C0FC0
00F81F80
01F03E00
01E07C00
03C0F800
0381F000
0701C000
0E038000
0C030000
00000000
00000000
00000000
60003000
F0007800
F8007C00
F8007C00
F8007C00
F8007800
F8007800
F8007800
F8007800
F8007800
F8007800
F8007800
F8007800
F8007800
F8007800
F8007800
F8007800
F8007800
F8007800
F8007800
F8003800
F8003C00
F8003C00
F8003C00
F8003C00
F8003C00
FC003C00
FC003C00
FC003C00
7C003C00
7C003C00
7C003C00
7C003C00
7C003C00
7C001C00
7C001C00
7C001C00
7C001C00
7E001C00
7E001C00
7E001C00
3E001C00
3E001E00
3E001E00
3E001E00
3E001E00
1E001E00
1F001E00
1F001E00
1F001E00
0F801E00
0F801E00
0F803C00
07C03C00
07E03C00
03E03C00
01F07800
01FEF800
00FFF000
003FE000
000FC000
ENDCHAR
STARTCHAR uhungarumlaut
ENCODING 369
SWIDTH 361 0
DWIDTH 29 0
BBX 30 74 4 -1
BITMAP
00020010
00070038
000F007C
001F01F8
003E03F8
003E07F0
007C0FE0
00F81FC0
01F03F00
01F03E00
03E07C00
07C0F800
0781F000
0F03C000
0E078000
1C070000
10040000
00000000
00000000
0000F000
6000F000
E000F800
F000F800
F000F800
F000F000
F000F000
F000F000
F000F000
F000F000
F000F000
F000F000
F000F000
F000F000
F000F000
F000F000
F000F000
F000F000
F000F000
F000F000
F000F000
F000F000
F000F000
F000F000
F000F000
F000F000
F000F000
F000F000
F001F000
F001F000
F001E000
F001E000
F001E000
F001E000
F801E000
F801E000
F801E000
F801E000
7801E000
7803E000
7803C000
7803C000
7803C000
7803C000
7803C000
78078000
78078000
3C078000
3C0F0000
3F1F0000
1FFE0000
1FFE0000
0FFC0000
07F80000
01F00000
ENDCHAR
STARTCHAR Uogonek
ENCODING 370
SWIDTH 401 0
DWIDTH 32 0
BBX 25 73 4 -14
BITMAP
60003000
F0007800
F8007C00
F8007C00
F8007C00
F8007800
F8007800
F8007800
F8007800
F8007800
F8007800
F8007800
F8007800
F8007800
F8007800
F8007800
F8007800
F8007800
F8007800
F8007800
F8003800
F8003C00
F8003C00
F8003C00
F8003C00
F8003C00
FC003C00
FC003C00
FC003C00
7C003C00
7C003C00
7C003C00
7C003C00
7C003C00
7C001C00
7C001C00
7C001C00
7C001C00
7E001C00
7E001C00
7E001C00
3E001C00
3E001E00
3E001E00
3E001E00
3E001E00
1E001E00
1F001E00
1F001E00
1F001E00
0F801E00
0F801E00
0F803C00
07C03C00
07E03C00
03E03C00
01F07800
01FEF800
00FFF380
003FEF00
000FDC00
00003800
00007000
0000F000
0001E000
0001C000
0001C000
0003C000
0003C200
0001EE00
0001FE00
0001FC00
00007800
ENDCHAR
STARTCHAR uogonek
ENCODING 371
SWIDTH 361 0
DWIDTH 29 0
BBX 21 68 4 -14
BITMAP
0000F0
6000F0
E000F8
F000F8
F000F8
F000F0
F000F0
F000F0
F000F0
F000F0
F000F0
F000F0
F000F0
F000F0
F000F0
F000F0
F000F0
F000F0
F000F0
F000F0
F000F0
F000F0
F000F0
F000F0
F000F0
F000F0
F000F0
F000F0
F001F0
F001F0
F001E0
F001E0
F001E0
F001E0
F801E0
F801E0
F801E0
F801E0
7801E0
7803E0
7803C0
7803C0
7803C0
7803C0
7803C0
780780
780780
3C0780
3C0F00
3F1F00
1FFE00
1FFE00
0FFC00
07F800
01F000
01C000
038000
070000
0F0000
1E0000
1C0000
1C0000
3C0000
3C2000
3EE000
1FE000
1FC000
078000
ENDCHAR
STARTCHAR Wcircumflex
ENCODING 372
SWIDTH 494 0
DWIDTH 40 0
BBX 33 78 2 -1
BITMAP
0000700000
0000F00000
0001F80000
0001F80000
0001F80000
0003FC0000
0003BC0000
00079C0000
00079C0000
000F1E0000
000F0E0000
000E0E0000
001E0E0000
001E070000
001C070000
0008060700
0000000F80
7000000F80
7800000F80
F800000F80
7800000F80
7C00000F80
7C00000F80
7C03800F80
7C07C00F00
3E07C00F00
3E07C00F00
3E07C00F00
3E07C00F00
3E07C00F00
3E07C01F00
1E07C01F00
1F07E01F00
1F07E01F00
1F07E01F00
1F07E01E00
1F07E01E00
1F0FE01E00
0F0FF01E00
0F0FF03E00
0F8FF03E00
0F8FF03E00
0F8FF03C00
0F8FF83C00
0F8FF83C00
078F783C00
078F783C00
079E7C7C00
079E7C7800
079E7C7800
07DE7C7800
07DE3C7800
03DE3E7800
03DE3E7800
03DE3E7000
03FC3EF000
03FC3FF000
03FC3FF000
03FC1FF000
01FC1FF000
01FC1FF000
01FC1FE000
01FC1FE000
01FC1FE000
01FC0FE000
01F80FE000
01F80FE000
01F80FE000
00F80FE000
00F807E000
00F807E000
00F807E000
00F807E000
00F803E000
00F803E000
00F803E000
007801C000
007001C000
ENDCHAR
STARTCHAR wcircumflex
ENCODING 373
SWIDTH 429 0
DWIDTH 34 0
BBX 28 70 2 -2
BITMAP
00018000
0003C000
0007C000
0007E000
000FE000
000FE000
001EF000
001E7000
001C7000
003C7000
003C7800
00783800
00783800
00703C00
00701C00
002018F0
000000F0
700000F0
F80000F0
780000F0
780000F0
780200F0
780700F0
780F80E0
380F81E0
380F81E0
380F81E0
380FC1E0
3C0FC1E0
3C0FC1E0
3C0FC1E0
3C0FC1E0
3C0FE1E0
3C0FE1E0
3C0EE1E0
1C1EE1E0
1C1EE1E0
1E1EE1E0
1E1EE1E0
1E1EF1E0
1E1EF1E0
1E1E71E0
1E1E71E0
1E1E71C0
1F1C71C0
1F3C73C0
1F3C73C0
1F3C33C0
0F3C3BC0
0F3C3BC0
0F3C3BC0
0F3C3B80
0F7C3B80
0FFC3B80
0FF81B80
0FF81F80
0FF81F80
07F81F80
07F81F80
07F81F80
07F01F80
07F01F80
07F01F80
03F01F80
03F01F80
03E01F00
03E00F00
01E00F00
01C00000
00C00000
ENDCHAR
STARTCHAR Ycircumflex
ENCODING 374
SWIDTH 265 0
DWIDTH 21 0
BBX 18 78 1 -1
BITMAP
001C00
003C00
003E00
007E00
007F00
00FF00
00F700
01E700
01E780
01C380
03C380
03C380
0783C0
0781C0
0701C0
0201C0
600400
F00F00
F01F00
F01E00
F81E00
783E00
783E00
7C3E00
7C3E00
7C3E00
3C3C00
3E3C00
3E7C00
3E7C00
1E7C00
1E7800
1F7800
0F7800
0F7800
0F7800
077800
07F000
07F000
07F000
03F000
03F000
03F000
03F000
03F000
03F000
03E000
03E000
03E000
01E000
01E000
01E000
01F000
01F000
01F000
01F000
00F000
00F000
00F000
00F000
00F000
00F000
00F000
00F000
00F000
00F000
00F000
00F000
00F000
00F000
00F000
00F000
00F000
00F000
00F000
01F000
00F000
00E000
ENDCHAR
STARTCHAR ycircumflex
ENCODING 375
SWIDTH 283 0
DWIDTH 23 0
BBX 18 69 1 -1
BITMAP
003800
007800
00FC00
00FC00
00FC00
01FE00
01DE00
03CE00
03CE00
078F00
078700
070700
0F0700
0F0380
0E0380
040380
2003C0
F007C0
F007C0
7807C0
780F80
7C0F80
7C0F80
3C0F80
3E1F80
1E1F00
1E1F00
1F1F00
0F1E00
0F3E00
0FBE00
07BE00
07BC00
03BC00
03FC00
03FC00
01F800
01F800
00F800
00F800
00F800
00F800
00F800
00F800
00F800
00F800
007800
007800
007800
007800
007800
007800
007800
007800
007800
007800
007800
007800
007800
007800
007800
007800
007800
007800
007800
007800
00F800
00F000
007000
ENDCHAR
STARTCHAR Ydieresis
ENCODING 376
SWIDTH 265 0
DWIDTH 21 0
BBX 21 69 1 -1
BITMAP
0E0070
1F00F8
3F01F8
3F01F8
1F01F8
1E00F0
000000
600400
F00F00
F01F00
F01E00
F81E00
783E00
783E00
7C3E00
7C3E00
7C3E00
3C3C00
3E3C00
3E7C00
3E7C00
1E7C00
1E7800
1F7800
0F7800
0F7800
0F7800
077800
07F000
07F000
07F000
03F000
03F000
03F000
03F000
03F000
03F000
03E000
03E000
03E000
01E000
01E000
01E000
01F000
01F000
01F000
01F000
00F000
00F000
00F000
00F000
00F000
00F000
00F000
00F000
00F000
00F000
00F000
00F000
00F000
00F000
00F000
00F000
00F000
00F000
00F000
01F000
00F000
00E000
ENDCHAR
STARTCHAR Zacute
ENCODING 377
SWIDTH 261 0
DWIDTH 21 0
BBX 20 73 2 0
BITMAP
000060
0001F0
0003F0
0007F0
000FE0
001FC0
003F00
00FC00
01F800
03E000
038000
000000
00F800
7FFC00
7FFC00
7FFC00
003C00
007C00
007C00
007C00
007C00
007C00
007800
007800
007800
007800
007800
00F800
00F800
00F800
00F800
00F800
00F000
00F000
00F000
01F000
01F000
01F000
01F000
01E000
01E000
01E000
03E000
03E000
03E000
03C000
03C000
03C000
07C000
07C000
078000
078000
078000
078000
0F0000
0F0000
0F0000
0F0000
0F0000
1E0000
1E0000
1E0000
1E0000
3C0000
3C0000
3C0000
3C0000
780000
780000
780000
FFF800
FFF800
7FF800
ENDCHAR
STARTCHAR zacute
ENCODING 378
SWIDTH 292 0
DWIDTH 23 0
BBX 22 66 4 0
BITMAP
000018
00007C
0000FC
0001FC
0003F8
0007F0
000FC0
003F00
007E00
00F800
00E000
000000
000000
03FE00
0FFF00
1FFF00
1FFF00
0FFF00
001E00
001E00
001E00
001E00
003C00
003C00
003C00
007800
007800
007800
007000
00F000
00F000
00F000
01F000
01E000
01E000
03E000
03E000
03E000
07C000
07C000
07C000
07C000
0F8000
0F8000
0F8000
1F8000
1F0000
1F0000
1F0000
3F0000
3E0000
3E0000
3E0000
7E0000
7C0000
7C0000
7C0000
7C0000
F80000
F80000
F80000
F80000
FFF000
FFF000
FFF000
700000
ENDCHAR
STARTCHAR Zdotaccent
ENCODING 379
SWIDTH 261 0
DWIDTH 21 0
BBX 14 70 2 0
BITMAP
01C0
03E0
03E0
03E0
03E0
01C0
0000
0000
0000
00F8
7FFC
7FFC
7FFC
003C
007C
007C
007C
007C
007C
0078
0078
0078
0078
0078
00F8
00F8
00F8
00F8
00F8
00F0
00F0
00F0
01F0
01F0
01F0
01F0
01E0
01E0
01E0
03E0
03E0
03E0
03C0
03C0
03C0
07C0
07C0
0780
0780
0780
0780
0F00
0F00
0F00
0F00
0F00
1E00
1E00
1E00
1E00
3C00
3C00
3C00
3C00
7800
7800
7800
FFF8
FFF8
7FF8
ENDCHAR
STARTCHAR zdotaccent
ENCODING 380
SWIDTH 292 0
DWIDTH 23 0
BBX 16 62 4 0
BITMAP
0070
00F8
01F8
01F8
01F8
00F0
0000
0000
0000
03FE
0FFF
1FFF
1FFF
0FFF
001E
001E
001E
001E
003C
003C
003C
0078
0078
0078
0070
00F0
00F0
00F0
01F0
01E0
01E0
03E0
03E0
03E0
07C0
07C0
07C0
07C0
0F80
0F80
0F80
1F80
1F00
1F00
1F00
3F00
3E00
3E00
3E00
7E00
7C00
7C00
7C00
7C00
F800
F800
F800
F800
FFF0
FFF0
FFF0
7000
ENDCHAR
STARTCHAR Zcaron
ENCODING 381
SWIDTH 261 0
DWIDTH 21 0
BBX 14 79 2 0
BITMAP
180C
3C1C
3C1C
1E3C
1E3C
1E3C
0F38
0F38
0F38
07B8
07F0
03F0
03F0
01F0
01F0
00E0
0060
0000
00F8
7FFC
7FFC
7FFC
003C
007C
007C
007C
007C
007C
0078
0078
0078
0078
0078
00F8
00F8
00F8
00F8
00F8
00F0
00F0
00F0
01F0
01F0
01F0
01F0
01E0
01E0
01E0
03E0
03E0
03E0
03C0
03C0
03C0
07C0
07C0
0780
0780
0780
0780
0F00
0F00
0F00
0F00
0F00
1E00
1E00
1E00
1E00
3C00
3C00
3C00
3C00
7800
7800
7800
FFF8
FFF8
7FF8
ENDCHAR
STARTCHAR zcaron
ENCODING 382
SWIDTH 292 0
DWIDTH 23 0
BBX 16 71 4 0
BITMAP
0607
0E07
0F0F
0F0F
078E
078E
078E
03DE
03DC
03DC
01DC
01FC
00FC
00F8
0078
0038
0038
0000
03FE
0FFF
1FFF
1FFF
0FFF
001E
001E
001E
001E
003C
003C
003C
0078
0078
0078
0070
00F0
00F0
00F0
01F0
01E0
01E0
03E0
03E0
03E0
07C0
07C0
07C0
07C0
0F80
0F80
0F80
1F80
1F00
1F00
1F00
3F00
3E00
3E00
3E00
7E00
7C00
7C00
7C00
7C00
F800
F800
F800
F800
FFF0
FFF0
FFF0
7000
ENDCHAR
STARTCHAR uni018F
ENCODING 399
SWIDTH 446 0
DWIDTH 36 0
BBX 28 62 4 -1
BITMAP
003F8000
00FFE000
03FFF800
0FF3FC00
1F807E00
3E003F00
78001F00
70000F80
60000F80
000007C0
000007C0
000007C0
000003E0
000003E0
000003E0
000003E0
000003E0
000001F0
000001F0
000001F0
000001F0
000001F0
000001F0
000001F0
000001F0
000001F0
000001F0
03FFFFF0
07FFFFF0
1FFFFFF0
1F0003F0
3E0003F0
7C0003F0
7C0003F0
FC0003F0
F80003F0
F80003F0
F80003F0
F80003F0
F80003F0
F80003F0
F80003F0
F80003E0
F80003E0
F80003E0
F80003E0
F80003E0
F80003E0
F80007C0
F80007C0
F80007C0
F8000780
F8000F80
7C000F80
7C001F00
7C003F00
3E007E00
1F00FC00
1FC7F800
07FFF000
03FFE000
007F0000
ENDCHAR
STARTCHAR florin
ENCODING 402
SWIDTH 640 0
DWIDTH 51 0
BBX 25 72 12 -9
BITMAP
00000200
00007F80
0001FF80
0003FF80
0007FF80
0007FC00
000FC000
000F8000
000F0000
000F0000
000F0000
000F0000
000F0000
000F0000
000F0000
001F0000
001F0000
001F0000
001F0000
001F0000
001F0000
001F0000
001F0000
001F0000
001F0000
001F0000
001F0000
001F0000
001F0000
001E0000
001E0000
001E0000
001FF000
007FFC00
03FFFC00
07FFFC00
07FFF000
03FF0000
001E0000
001E0000
001E0000
001E0000
001E0000
003E0000
003E0000
003E0000
003E0000
003E0000
003E0000
003E0000
003E0000
003E0000
003C0000
003C0000
003C0000
003C0000
003C0000
003C0000
003C0000
003C0000
003C0000
003C0000
003C0000
007C0000
007C0000
00F80000
01F80000
0FF80000
7FF00000
FFE00000
FFC00000
7E000000
ENDCHAR
STARTCHAR uni019D
ENCODING 413
SWIDTH 412 0
DWIDTH 33 0
BBX 30 77 -2 -15
BITMAP
00000038
0080007C
01C0007C
01E0007C
01E00078
01F00078
01F00078
01F00078
01F80078
01F80078
01FC0078
01FC0078
01DC0078
01DE0078
03DE0078
03DE0078
03CE0078
03CF0078
03CF0078
03CF0078
03C78078
03C78078
03C78078
03C7C078
03C3C078
03C3C078
03C3C078
03C1E078
03C1E078
03C1E078
03C1E078
03C0F078
03C0F078
03C0F078
03C0F078
03C07878
01C07878
01C07878
01C03878
01C03C78
01C03C78
01C03C78
01C01C78
01E01E78
01E01E78
01E00E78
01E00E78
01E00E78
01E00778
01E00778
01E00778
01E00778
01E003F8
01E003F8
01E003F8
01E001F8
01E001F8
01E000F8
01E000F8
01F000F8
00F00078
00F00070
00E00030
00E00000
01E00000
01E00000
01E00000
01E00000
01E00000
03E00000
07C00000
1FC00000
7F800000
7F000000
FC000000
F8000000
70000000
ENDCHAR
STARTCHAR Ohorn
ENCODING 416
SWIDTH 372 0
DWIDTH 30 0
BBX 24 70 4 -2
BITMAP
00001E
00003F
00001F
00001F
00001F
00001F
01803E
0FFFFE
1FFFFC
1FFFF0
3F7E00
3C1F00
7C0F80
7C0780
780780
F807C0
F803C0
F003C0
F003E0
F001E0
F001E0
F001E0
F001E0
F001E0
F001F0
F000F0
E000F0
E000F0
E000F0
E000F0
E000F0
E000F0
E000F0
E000F0
E000F0
E000F0
E000F0
E000F0
E000F0
E000F0
E000F0
F000F0
F000F0
F000F0
F000F0
F000F0
F000F0
F000F0
F000F0
F000F0
7800F0
7800F0
7800E0
7800E0
7800E0
7800E0
3C00E0
3C01E0
3C01E0
3E01E0
1E01E0
1E01E0
1F03E0
0F03C0
0F87C0
07C780
07FF80
03FF00
01FE00
007800
ENDCHAR
STARTCHAR ohorn
ENCODING 417
SWIDTH 360 0
DWIDTH 29 0
BBX 22 61 4 -2
BITMAP
000078
0000FC
00007C
00007C
00007C
0001FC
0FFFF8
1FFFF0
1FFFE0
3FFF00
3E1F00
3C0780
7C03C0
7803C0
7801C0
7801E0
7801E0
7800F0
F800F0
F800F0
F800F0
F800F0
F800F0
F800F8
F800F8
F800F8
F800F8
F800F8
F000F8
F000F8
F000F8
F000F8
F000F8
F000F8
F00078
F00078
F00078
F00078
F00078
F80078
F80078
F800F8
F800F8
F800F8
7800F8
7800F8
7800F0
7800F0
7800F0
7C00F0
7C01F0
3C01F0
3C01E0
3E03E0
1E03E0
1E07C0
0F07C0
0F9F80
07FF00
03FE00
00F800
ENDCHAR
STARTCHAR Uhorn
ENCODING 431
SWIDTH 426 0
DWIDTH 34 0
BBX 28 68 4 -2
BITMAP
00000040
000001F0
000001F0
000001F0
000001F0
000001F0
000001F0
600033F0
F0007FE0
F8007FC0
F8007F00
F8007C00
F8007800
F8007800
F8007800
F8007800
F8007800
F8007800
F8007800
F8007800
F8007800
F8007800
F8007800
F8007800
F8007800
F8007800
F8007800
F8003800
F8003C00
F8003C00
F8003C00
F8003C00
F8003C00
FC003C00
FC003C00
FC003C00
7C003C00
7C003C00
7C003C00
7C003C00
7C003C00
7C001C00
7C001C00
7C001C00
7C001C00
7E001C00
7E001C00
7E001C00
3E001C00
3E001E00
3E001E00
3E001E00
3E001E00
1E001E00
1F001E00
1F001E00
1F001E00
0F801E00
0F801E00
0F803C00
07C03C00
07E03C00
03E03C00
01F07800
01FEF800
00FFF000
003FE000
000FC000
ENDCHAR
STARTCHAR uhorn
ENCODING 432
SWIDTH 407 0
DWIDTH 33 0
BBX 28 61 4 -1
BITMAP
00000040
000003F0
000001F0
000001F0
000001F0
000001F0
0000F1F0
6000F3E0
E000FFE0
F000FFC0
F000FF00
F000F000
F000F000
F000F000
F000F000
F000F000
F000F000
F000F000
F000F000
F000F000
F000F000
F000F000
F000F000
F000F000
F000F000
F000F000
F000F000
F000F000
F000F000
F000F000
F000F000
F000F000
F000F000
F000F000
F001F000
F001F000
F001E000
F001E000
F001E000
F001E000
F801E000
F801E000
F801E000
F801E000
7801E000
7803E000
7803C000
7803C000
7803C000
7803C000
7803C000
78078000
78078000
3C078000
3C0F0000
3F1F0000
1FFE0000
1FFE0000
0FFC0000
07F80000
01F00000
ENDCHAR
STARTCHAR uni01C4
ENCODING 452
SWIDTH 640 0
DWIDTH 51 0
BBX 43 79 4 0
BITMAP
0000000180C0
00000001C1E0
00000001E1C0
00000001E1C0
00000001E1C0
00000001F3C0
00000000F3C0
00000000F380
000000007B80
000000007B80
000000007B80
000000003B00
000000003F00
000000001F00
000000000F00
000000000F00
000000000600
000000000000
3FC000000F80
FFF80007FFC0
FFFC0007FFC0
FFFE0003FFC0
FFFF000003C0
F8FF800003C0
F83FC00003C0
781FC00003C0
780FE00003C0
7807E00007C0
7803E00007C0
7803F00007C0
7801F00007C0
7801F00007C0
7800F0000780
7800F8000780
7800F8000780
7800F8000780
780078000F80
780078000F80
780078000F80
780078000F80
780078000F00
780078000F00
780078000F00
780078001F00
7C0078001F00
7C0078001F00
7C0078001F00
7C0078001E00
3C0078001E00
3C0078001E00
3C0078003E00
3C0078003E00
3C0078003C00
3C0078003C00
3C0078003C00
3C00F8003C00
3C00F8007C00
3C00F8007800
3C00F0007800
3C00F0007800
3C01F0007800
1C01F000F800
1C01E000F000
1E03E000F000
1E03E000F000
1E03C000F000
1E07C001E000
1E078001E000
1E0F8001E000
1E1F0001E000
1E1F0001C000
3E3E0003C000
3E7C0003C000
3EFC0003C000
3FF800078000
7FF000078000
7FE00007FF80
7FC0000FFFC0
1F000007FF80
ENDCHAR
STARTCHAR uni01C5
ENCODING 453
SWIDTH 671 0
DWIDTH 54 0
BBX 46 72 4 0
BITMAP
00000000180C
000000003C1C
000000003C1C
000000001E3C
000000001E3C
000000001E3C
000000000F38
000000000F38
000000000F38
0000000007B8
0000000007F0
3FC0000003F0
FFF8000003F0
FFFC000001F0
FFFE000001F0
FFFF000000E0
F8FF80000060
F83FC0000000
781FC0000000
780FE0000FF8
7807E0003FFC
7803E0007FFC
7803F0003FFC
7801F0003FFC
7801F000003C
7800F000003C
7800F8000078
7800F8000078
7800F8000078
7800780000F0
7800780000F0
7800780000F0
7800780001E0
7800780001E0
7800780001E0
7800780001C0
7800780003C0
7C00780003C0
7C00780003C0
7C00780007C0
7C0078000780
3C0078000780
3C0078000F80
3C0078000F80
3C0078000F80
3C0078001F00
3C0078001F00
3C0078001F00
3C00F8001F00
3C00F8003E00
3C00F8003E00
3C00F0003E00
3C00F0007E00
3C01F0007C00
1C01F0007C00
1C01E0007C00
1E03E000FC00
1E03E000F800
1E03C000F800
1E07C000F800
1E078001F800
1E0F8001F000
1E1F0001F000
1E1F0001F000
3E3E0001F000
3E7C0001E000
3EFC0003E000
3FF80003E000
7FF00003FFC0
7FE00003FFE0
7FC00003FFC0
1F000001E000
ENDCHAR
STARTCHAR uni01C6
ENCODING 454
SWIDTH 638 0
DWIDTH 51 0
BBX 43 71 5 0
BITMAP
0000000181C0
0000000381C0
00000003C3C0
00000003C3C0
00000001E3C0
00000001E380
00000001E380
00000000F380
00000000F780
00000000F700
000000007F00
000000007F00
000000003F00
000000003E00
000000001E00
000000000E00
000000000E00
000000000000
7C0000007F80
FF000003FFC0
FFC00003FFE0
FFE00003FFE0
F8F00001FFC0
F878000003C0
F83C000003C0
F81E000003C0
F81E00000780
F80F00000780
F80F00000780
F80780000F00
F80780000F00
F807C0000F00
F807C0000E00
7803C0001E00
7803C0001E00
7803E0001E00
7803E0003C00
7803E0003C00
7803E0003C00
7803E0007C00
7803E0007C00
7801E0007800
7801E000F800
7801E000F800
7801E000F800
7801E000F800
7801E001F000
7801E001F000
F801E001F000
F801E003F000
FC01E003E000
FC03E003E000
FC03E003E000
FC03E007E000
FC03C007C000
FC03C007C000
FC03C007C000
FC03C00FC000
FC07C00F8000
FC07C00F8000
FC07800F8000
FC0F801F8000
FC0F801F0000
FC1F001F0000
FC1F001F0000
7C3E001E0000
7CFC001E0000
7FF8001FFC00
7FF0001FFE00
7FE0001FFE00
3F80001E0000
ENDCHAR
STARTCHAR uni01C7
ENCODING 455
SWIDTH 518 0
DWIDTH 41 0
BBX 31 67 5 -6
BITMAP
E0000FFC
F0007FFE
F0007FFE
F0007FFC
F00023C0
F00003C0
F00003C0
F00003C0
F00003C0
F00001C0
F00001E0
F00001E0
F00001E0
F00001E0
F00001E0
F00001E0
F80001E0
F80001E0
F80001E0
F80001E0
F80001E0
F80001E0
F80001E0
F80001E0
F80001E0
F80000E0
F80000E0
F80000E0
F80000E0
780000F0
780000F0
780000F0
780000F0
780000F0
780000F0
780000F0
780000F0
780000F0
780000F0
780000F0
780000F0
780000F0
780000F0
780000F0
780000F0
780000F0
780000F0
780000F0
780000F0
780000F0
780000F0
780000F0
780000F0
780000F0
780000F0
780000F0
7FF001F0
7FF801F0
7FF801F0
7FF803F0
7FF003E0
380007E0
00000FC0
00003FC0
00003F80
00003F00
00003E00
ENDCHAR
STARTCHAR uni01C8
ENCODING 456
SWIDTH 504 0
DWIDTH 40 0
BBX 33 67 5 -6
BITMAP
E000000000
F000000000
F000000000
F000000000
F000000000
F000000000
F000000000
F000000000
F0007FE000
F0007FFF80
F0007FFF80
F0000FFF00
F00001E000
F00001E000
F00001E000
F00001E000
F80001E000
F80001E000
F80001E000
F80001E000
F80001E000
F80001E000
F80001E000
F80001E000
F80001E000
F80001E000
F80001E000
F80001E000
F80001E000
780001F000
780001F000
780001F000
780001F000
780001F000
780001F000
780001F000
780001F000
780001F000
780001F000
780001F000
780001F000
780001F000
780001F000
780001F000
780001F000
780001F000
780001F000
780001F000
780001F000
780001F000
780001F000
780001F000
780001F000
780001F000
780001F000
780001F000
7FF001F000
7FF801F000
7FF801E000
7FF801E000
7FF003E000
380007C000
00000FC000
00001F8000
0000FF0000
0001FE0000
0001F80000
ENDCHAR
STARTCHAR uni01C9
ENCODING 457
SWIDTH 522 0
DWIDTH 42 0
BBX 35 59 5 -6
BITMAP
38001FF800
78003FFFC0
78003FFFE0
780007FFC0
780000F800
780000F800
780000F800
780000F800
780000F800
780000F800
780000F800
780000F800
780000F800
780000F800
780000F800
780000F800
780000F800
780000F800
780000F800
780000F800
780000F800
780000F800
780000F800
780000F800
7800007800
7800007800
7800007800
7800007800
7800007800
7800007800
7800007800
7800007800
7800007800
7800007800
7800007800
F800007800
F800007800
F800007800
F000007800
F000007800
F000007800
F000007800
F000007800
F000007800
F000007800
F000007800
F800007800
F800007800
F800007800
FC00007800
FFFC00F800
FFFE00F800
FFFE00F000
703C01F000
000003E000
00000FE000
00007FC000
0000FF8000
0000FE0000
ENDCHAR
STARTCHAR uni01CA
ENCODING 458
SWIDTH 680 0
DWIDTH 54 0
BBX 45 68 4 -6
BITMAP
00000E000000
20001F003FF0
70001F01FFF8
78001F01FFF8
78001F01FFF0
7C001E008F00
7C001E000F00
7C001E000F00
7E001E000F00
7E001E000F00
7F001E000F00
7F001E000780
77001E000780
77801E000780
F7801E000780
F7801E000780
F3801E000780
F3C01E000780
F3C01E000780
F3C01E000780
F1E01E000780
F1E01E000780
F1E01E000780
F1F01E000780
F0F01E000780
F0F01E000780
F0F01E000780
F0781E000380
F0781E000380
F0781E000380
F0781E000380
F03C1E0003C0
F03C1E0003C0
F03C1E0003C0
F03C1E0003C0
F01E1E0003C0
701E1E0003C0
701E1E0003C0
700E1E0003C0
700F1E0003C0
700F1E0003C0
700F1E0003C0
70071E0003C0
78079E0003C0
78079E0003C0
78039E0003C0
78039E0003C0
78039E0003C0
7801DE0003C0
7801DE0003C0
7801DE0003C0
7801DE0003C0
7800FE0003C0
7800FE0003C0
7800FE0003C0
78007E0003C0
78007E0003C0
78003E0007C0
78003E0007C0
78003E0007C0
7C001E000FC0
78001C000F80
00000C001F80
000000003F00
00000000FF00
00000000FE00
00000000FC00
00000000F800
ENDCHAR
STARTCHAR uni01CB
ENCODING 459
SWIDTH 666 0
DWIDTH 53 0
BBX 47 68 4 -6
BITMAP
00000E000000
20001F000000
70001F000000
78001F000000
78001F000000
7C001E000000
7C001E000000
7C001E000000
7E001E000000
7E001E01FF80
7F001E03FFFE
7F001E01FFFE
77001E007FFC
77801E000780
F7801E000780
F7801E000780
F3801E000780
F3C01E000780
F3C01E000780
F3C01E000780
F1E01E000780
F1E01E000780
F1E01E000780
F1F01E000780
F0F01E000780
F0F01E000780
F0F01E000780
F0781E000780
F0781E000780
F0781E000780
F0781E000780
F03C1E000780
F03C1E0007C0
F03C1E0007C0
F03C1E0007C0
F01E1E0007C0
701E1E0007C0
701E1E0007C0
700E1E0007C0
700F1E0007C0
700F1E0007C0
700F1E0007C0
70071E0007C0
78079E0007C0
78079E0007C0
78039E0007C0
78039E0007C0
78039E0007C0
7801DE0007C0
7801DE0007C0
7801DE0007C0
7801DE0007C0
7800FE0007C0
7800FE0007C0
7800FE0007C0
78007E0007C0
78007E0007C0
78003E0007C0
78003E0007C0
78003E000780
7C001E000F80
78001C000F80
00000C001F00
000000003F00
00000000FE00
00000003FC00
00000007F800
00000007E000
ENDCHAR
STARTCHAR uni01CC
ENCODING 460
SWIDTH 733 0
DWIDTH 59 0
BBX 51 59 6 -6
BITMAP
380001C01FF800
7C0003C03FFFC0
7C0003C03FFFE0
FE0003C007FF80
FE0003C000F000
FF0003C000F000
FF0003C000F000
FF8003C000F000
FF8003C000F000
F7C003C000F000
F7C003C000F000
F7C003C000F800
F3E003C000F800
F3E003C000F800
F1E003C000F800
F1F003C000F800
F1F003C000F800
F0F003C000F800
F0F803C000F800
F0F803C000F800
F07803C000F800
F07C03C000F800
F03C03C000F800
F03C03C000F800
F03E03C000F800
F01E03C000F800
F01E03C000F800
F01E03C000F800
F00F03C000F800
F00F03C000F800
F00F03C0007800
F00783C0007800
F00783C0007800
F00783C0007800
F00387C0007800
F003C7C0007800
F001C780007800
F001C780007800
F001E780007800
F000E780007800
F000E780007800
F000E780007800
F000F780007800
F0007780007800
F0007780007800
F0007F80007800
F0003F80007800
F0003F80007800
F0003F00007800
F8003F0000F800
F8003F0000F800
F8001F0000F800
70001E0001F000
0000000001F000
0000000003E000
000000000FE000
000000007FC000
00000000FF0000
00000000FC0000
ENDCHAR
STARTCHAR uni01CD
ENCODING 461
SWIDTH 350 0
DWIDTH 28 0
BBX 22 79 1 0
BITMAP
006030
00F078
007070
007870
0078F0
0078F0
003CE0
003CE0
003CE0
001EE0
001EC0
000FC0
000FC0
0007C0
0007C0
0003C0
000180
000000
000000
000380
000780
0007C0
000FC0
000FC0
001FC0
001FC0
001FC0
003FC0
003FC0
003FC0
003FC0
007FE0
007FE0
0079E0
0079E0
00F9E0
00F1E0
00F1E0
00F1E0
00F1F0
01F1F0
01E1F0
01E1F0
01E1F0
01E1F0
01E0F0
03C0F0
03C0F0
03C0F0
03C0F8
03C0F8
07C0F8
0780F8
0780F8
0780F8
078078
078078
0F8078
0F8078
0F0078
0F0078
0FC078
0FFFF8
1FFFF8
1FFFFC
1E01FC
1E007C
1E007C
3E007C
3C007C
3C007C
3C007C
3C007C
7C007C
78007C
78007C
F8007C
70007C
000038
ENDCHAR
STARTCHAR uni01CE
ENCODING 462
SWIDTH 299 0
DWIDTH 24 0
BBX 21 73 1 0
BITMAP
01C0E0
01C0E0
01E1E0
01E1C0
01F1C0
00F1C0
00F3C0
00F3C0
007B80
007B80
003B80
003F80
001F00
001F00
000F00
000F00
000600
000000
000000
000000
003C00
007E00
007E00
007E00
007E00
007E00
007E00
00FF00
00FF00
00FF00
00FF00
00FF00
00EF00
00EF00
00E700
01E700
01E780
01E780
01C780
01C780
01C780
03C780
03C780
038780
0383C0
0383C0
0383C0
0783C0
0783C0
0703C0
0703C0
0703C0
0F03C0
0F03C0
0F03E0
0F03E0
0E03E0
1F83E0
1FFFE0
1FFFE0
1E1FE0
3E01E0
3C01F0
3C01F0
3C01F0
7C00F0
7C00F0
7C00F0
7800F8
F800F8
F800F8
F800F8
700070
ENDCHAR
STARTCHAR uni01CF
ENCODING 463
SWIDTH 257 0
DWIDTH 21 0
BBX 15 80 2 0
BITMAP
C060
E0F0
E0E0
F0E0
F1E0
F9E0
79C0
79C0
79C0
3DC0
3DC0
1D80
1F80
0F80
0F80
0780
0300
0000
0000
07F0
3FF8
7FF8
7FF0
3F80
0700
0700
0700
0700
0700
0700
0700
0700
0700
0700
0780
0780
0780
0780
0780
0780
0780
0780
0780
0780
0780
0780
0780
0780
0780
0780
0780
07C0
07C0
07C0
07C0
07C0
07C0
03C0
03C0
03C0
03C0
03C0
03C0
03C0
03C0
03C0
03C0
03C0
03C0
03C0
03C0
03C0
03C0
03C0
03C0
03C0
7FFE
7FFE
7FFE
1FFC
ENDCHAR
STARTCHAR uni01D0
ENCODING 464
SWIDTH 226 0
DWIDTH 18 0
BBX 14 73 2 0
BITMAP
6030
F070
F070
F8F0
78F0
78E0
7CE0
3CE0
3CE0
1DC0
1FC0
1FC0
0FC0
0FC0
0780
0380
0180
0000
0000
0000
07E0
7FF0
FFF0
FFF0
7F00
0E00
0E00
0E00
0E00
0E00
0E00
0E00
0E00
0F00
0F00
0F00
0F00
0F00
0F00
0F00
0F00
0F00
0F00
0F00
0F00
0F00
0F00
0F00
0F00
0F00
0F00
0F00
0F80
0F80
0F80
0F80
0780
0780
0780
0780
0780
0780
0780
0780
0780
0780
0780
0780
0780
FFFC
FFFC
FFFC
3FF8
ENDCHAR
STARTCHAR uni01D1
ENCODING 465
SWIDTH 355 0
DWIDTH 28 0
BBX 20 82 4 -2
BITMAP
180C00
3C1C00
3C1C00
3E3C00
1E3C00
1E3800
1F3800
0F3800
0F3800
077000
07F000
07F000
03F000
03F000
01E000
00E000
006000
000000
03E000
0FF800
1FFC00
3FFE00
3E3F00
7C1F00
7C0F80
780780
780780
F807C0
F803C0
F003C0
F003E0
F001E0
F001E0
F001E0
F001E0
F001E0
F001F0
E000F0
E000F0
E000F0
E000F0
E000F0
E000F0
E000F0
E000F0
E000F0
E000F0
E000F0
E000F0
E000F0
E000F0
E000F0
E000F0
F000F0
F000F0
F000F0
F000F0
F000F0
F000F0
F000F0
F000F0
F000F0
7800F0
7800F0
7800E0
7800E0
7800E0
7800E0
3C00E0
3C01E0
3C01E0
3E01E0
1E01E0
1E01E0
1F03E0
0F03C0
0F87C0
07C780
07FF80
03FF00
01FE00
007800
ENDCHAR
STARTCHAR uni01D2
ENCODING 466
SWIDTH 360 0
DWIDTH 29 0
BBX 21 74 4 -2
BITMAP
180C00
3C1E00
3C1C00
1E1C00
1E3C00
1E3C00
0F3800
0F3800
0F3800
07B800
07B000
03F000
03F000
01F000
01F000
00F000
006000
000000
000000
0FC000
1FF000
1FFC00
3FFE00
3E1F00
3C0780
7C0380
7803C0
7801C0
7801E0
7801E0
7800E0
F800F0
F800F0
F800F0
F800F0
F800F0
F800F8
F800F8
F800F8
F800F8
F800F8
F000F8
F000F8
F000F8
F000F8
F000F8
F000F8
F00078
F00078
F00078
F00078
F00078
F80078
F80078
F800F8
F800F8
F800F8
7800F8
7800F8
7800F0
7800F0
7800F0
7C00F0
7C01F0
3C01F0
3C01E0
3E03E0
1E03E0
1E07C0
0F07C0
0F9F80
07FF00
03FE00
00F800
ENDCHAR
STARTCHAR uni01D3
ENCODING 467
SWIDTH 401 0
DWIDTH 32 0
BBX 23 81 4 -2
BITMAP
060300
0F0780
0F0700
078700
078F00
078F00
03CE00
03CE00
03CE00
01EE00
01EC00
00FC00
00FC00
007C00
007C00
003C00
001800
000000
000000
000000
600030
F00078
F8007C
F8007C
F8007C
F80078
F80078
F80078
F80078
F80078
F80078
F80078
F80078
F80078
F80078
F80078
F80078
F80078
F80078
F80078
F80038
F8003C
F8003C
F8003C
F8003C
F8003C
FC003C
FC003C
FC003C
7C003C
7C003C
7C003C
7C003C
7C003C
7C001C
7C001C
7C001C
7C001C
7E001C
7E001C
7E001C
3E001C
3E001E
3E001E
3E001E
3E001E
1E001E
1F001E
1F001E
1F001E
0F801E
0F801E
0F803C
07C03C
07E03C
03E03C
01F078
01FEF8
00FFF0
003FE0
000FC0
ENDCHAR
STARTCHAR uni01D4
ENCODING 468
SWIDTH 361 0
DWIDTH 29 0
BBX 21 74 4 -1
BITMAP
0C0600
1E0E00
1E0E00
1F1E00
0F1E00
0F1C00
0F9C00
079C00
079C00
03B800
03F800
03F800
01F800
00F800
00F000
007000
003000
000000
000000
0000F0
6000F0
E000F8
F000F8
F000F8
F000F0
F000F0
F000F0
F000F0
F000F0
F000F0
F000F0
F000F0
F000F0
F000F0
F000F0
F000F0
F000F0
F000F0
F000F0
F000F0
F000F0
F000F0
F000F0
F000F0
F000F0
F000F0
F000F0
F001F0
F001F0
F001E0
F001E0
F001E0
F001E0
F801E0
F801E0
F801E0
F801E0
7801E0
7803E0
7803C0
7803C0
7803C0
7803C0
7803C0
780780
780780
3C0780
3C0F00
3F1F00
1FFE00
1FFE00
0FFC00
07F800
01F000
ENDCHAR
STARTCHAR uni01E2
ENCODING 482
SWIDTH 491 0
DWIDTH 39 0
BBX 32 69 4 -1
BITMAP
007FFFFC
007FFFFE
007FFFFE
003FFFFC
00000000
00000000
00000000
00007FE0
0000FFF0
0001FFF0
0001FF80
0001F000
0003F000
0003F000
0003F000
0007F000
0007F000
0007F000
000FF000
000FF000
000EF000
001EF000
001EF000
001EF000
001CF000
003CF000
003CF000
003CF000
0078F000
0078F000
0078F000
00F0F000
00F0F000
00F0F000
00F0F000
01E0F000
01E0F000
01E0F000
03E0F000
03E0F3E0
03C1FFE0
03FFFFF0
07FFFFE0
07C0F000
0780F000
0F80F000
0F80F000
0F00F000
0F00F000
1F007000
1F007000
1E007000
1E007000
3E007000
3E007000
3C007000
3C007000
7C007000
7C007000
78007000
78007000
78007000
7800F000
F800F000
F000F1FE
F000FFFF
F000FFFE
6000FFF8
00006000
ENDCHAR
STARTCHAR uni01E3
ENCODING 483
SWIDTH 438 0
DWIDTH 35 0
BBX 32 69 4 -1
BITMAP
003FFFFE
003FFFFF
003FFFFF
001FFFFE
00000000
00000000
00000000
00007FE0
0000FFF0
0001FFF0
0001FF80
0001F000
0003F000
0003F000
0003F000
0007F000
0007F000
0007F000
000FF000
000FF000
000EF000
001EF000
001EF000
001EF000
001CF000
003CF000
003CF000
003CF000
0078F000
0078F000
0078F000
00F0F000
00F0F000
00F0F000
00F0F000
01E0F000
01E0F000
01E0F000
03E0F000
03E0F3E0
03C1FFE0
03FFFFF0
07FFFFE0
07C0F000
0780F000
0F80F000
0F80F000
0F00F000
0F00F000
1F007000
1F007000
1E007000
1E007000
3E007000
3E007000
3C007000
3C007000
7C007000
7C007000
78007000
78007000
78007000
7800F000
F800F000
F000F1FE
F000FFFF
F000FFFE
6000FFF8
00006000
ENDCHAR
STARTCHAR Gcaron
ENCODING 486
SWIDTH 371 0
DWIDTH 30 0
BBX 24 82 4 -2
BITMAP
1C0E00
1C0E00
1E1E00
1E1C00
1F1C00
0F1C00
0F3C00
0F3C00
07B800
07B800
03B800
03F800
01F000
01F000
00F000
00F000
006000
000000
003F00
00FF00
03FF80
07FF00
0FC000
0F0000
1F0000
1E0000
3E0000
3C0000
7C0000
7C0000
7C0000
780000
780000
F80000
F80000
F80000
F80000
F00000
F00000
F00000
F00000
F00000
F00000
F00000
F00000
F00000
F00000
F00000
F00000
F00000
F00000
F00000
F00000
F00000
F00000
F00000
F00000
F00000
F00000
F00000
F00000
F001F8
F007FC
F00FFC
F00FFC
F007FC
F0003E
78001E
78001E
78001E
78001E
3C001E
3C001E
3E001E
1E001F
1F001F
0F803F
07E0FF
07FFFF
03FFFF
00FFCF
003F0E
ENDCHAR
STARTCHAR gcaron
ENCODING 487
SWIDTH 346 0
DWIDTH 28 0
BBX 21 71 4 0
BITMAP
0E0600
0E0F00
0F0E00
0F0E00
0F0E00
078E00
079E00
079C00
03DC00
03DC00
01DC00
01FC00
00F800
00F800
007800
007800
003000
000000
00FC00
03FE00
07FE00
0FFC00
1F8000
1F0000
3F0000
3E0000
3E0000
7E0000
7C0000
7C0000
7C0000
7C0000
FC0000
F80000
F80000
F80000
F80000
F80000
F80000
F80000
F80000
F80000
F80000
F80000
F80000
F80000
F81FE0
F83FF8
F83FF8
F81FF8
F800F8
F800F8
F800F0
F800F0
F800F0
F800F0
F800F0
F800F0
FC00F0
7C00F0
7C00F0
7C00F0
7E01F0
3E01F0
3F01F0
3F83F0
1FC3F0
0FFFE0
07FFC0
03FF80
00FE00
ENDCHAR
STARTCHAR uni01E8
ENCODING 488
SWIDTH 356 0
DWIDTH 28 0
BBX 21 81 5 -2
BITMAP
0C0600
1E0E00
1E0E00
1F1E00
0F1E00
0F1C00
0F9C00
079C00
079C00
03B800
03F800
03F800
01F800
01F800
00F000
007000
003000
000080
0001E0
4001E0
F003E0
F007C0
F807C0
F80F80
F80F80
F81F00
F81F00
F81E00
F83E00
F83C00
F87C00
787C00
787800
78F800
78F000
79F000
79E000
7BE000
7BC000
7BC000
7FC000
7FC000
7FC000
7FC000
7FC000
7FE000
7CE000
7CE000
78F000
787000
787000
703800
703800
703800
701C00
701C00
701C00
700E00
700E00
700E00
F00F00
F80700
F80700
F80780
F80780
F80380
F80380
F803C0
F803C0
F801C0
F801E0
F801E0
F801E0
F801F0
F800F0
F800F0
F800F8
F000F8
7000F8
000078
000070
ENDCHAR
STARTCHAR uni01E9
ENCODING 489
SWIDTH 350 0
DWIDTH 28 0
BBX 21 72 5 -1
BITMAP
0C0E00
1C0E00
1E1E00
1E1C00
1F1C00
0F1C00
0F1C00
0FBC00
07B800
07B800
03B800
03F800
01F000
01F000
00F000
00F000
007000
000000
3800E0
3C01F0
3C03F0
3C03E0
3C07E0
3C07C0
7C0FC0
7C0F80
7C1F00
7C1F00
7C3E00
783E00
787C00
787800
78F800
78F000
79F000
79E000
7BE000
FBE000
FFE000
FFE000
FFE000
FFE000
FFE000
FCE000
FCF000
FCF000
F8F000
F8F000
F87800
F87800
F87800
F87800
F03C00
F03C00
F03C00
F03E00
F01E00
F01E00
F01F00
F01F00
F00F00
F00F80
F00F80
F007C0
F007C0
F003E0
F003F0
F001F0
F001F8
F000F8
F000F8
700070
ENDCHAR
STARTCHAR uni01EA
ENCODING 490
SWIDTH 355 0
DWIDTH 28 0
BBX 20 76 4 -14
BITMAP
03E000
0FF800
1FFC00
3FFE00
3E3F00
7C1F00
7C0F80
780780
780780
F807C0
F803C0
F003C0
F003E0
F001E0
F001E0
F001E0
F001E0
F001E0
F001F0
E000F0
E000F0
E000F0
E000F0
E000F0
E000F0
E000F0
E000F0
E000F0
E000F0
E000F0
E000F0
E000F0
E000F0
E000F0
E000F0
F000F0
F000F0
F000F0
F000F0
F000F0
F000F0
F000F0
F000F0
F000F0
7800F0
7800F0
7800E0
7800E0
7800E0
7800E0
3C00E0
3C01E0
3C01E0
3E01E0
1E01E0
1E01E0
1F03E0
0F03C0
0F87C0
07C780
07FF80
03FF00
01FE00
007C00
007800
00F000
01E000
01C000
03C000
038000
038000
038400
03DC00
03FC00
01FC00
00F000
ENDCHAR
STARTCHAR uni01EB
ENCODING 491
SWIDTH 360 0
DWIDTH 29 0
BBX 21 67 4 -14
BITMAP
0FC000
1FF000
1FFC00
3FFE00
3E1F00
3C0780
7C0380
7803C0
7801C0
7801E0
7801E0
7800E0
F800F0
F800F0
F800F0
F800F0
F800F0
F800F8
F800F8
F800F8
F800F8
F800F8
F000F8
F000F8
F000F8
F000F8
F000F8
F000F8
F00078
F00078
F00078
F00078
F00078
F80078
F80078
F800F8
F800F8
F800F8
7800F8
7800F8
7800F0
7800F0
7800F0
7C00F0
7C01F0
3C01F0
3C01E0
3E03E0
1E03E0
1E07C0
0F07C0
0F9F80
07FF00
03FE00
00F800
00F000
01E000
01C000
03C000
038000
078000
078000
078400
07DC00
03FC00
03F800
01F000
ENDCHAR
STARTCHAR uni01F0
ENCODING 496
SWIDTH 254 0
DWIDTH 20 0
BBX 18 77 0 -6
BITMAP
0C0600
0E0F00
0F0E00
0F0E00
0F0E00
0F9E00
079E00
079C00
03DC00
03DC00
03DC00
01D800
01F800
00F800
00F800
007800
003000
000000
3FF000
3FFFC0
3FFFC0
07FF80
00F000
00F000
00F000
00F000
00F000
00F000
00F000
00F000
00F000
00F000
00F000
00F000
00F000
00F000
00F000
00F000
00F000
00F800
00F800
00F800
00F800
00F800
00F800
00F800
00F800
00F800
00F800
00F800
00F800
00F800
00F800
00F800
00F800
00F800
00F800
00F800
00F800
00F800
00F800
00F800
00F800
00F800
00F800
00F800
00F800
00F800
00F000
00F000
01F000
03E000
07E000
0FC000
7F8000
FF0000
FC0000
ENDCHAR
STARTCHAR uni01F1
ENCODING 497
SWIDTH 640 0
DWIDTH 51 0
BBX 42 61 4 0
BITMAP
3FC000000F80
FFF80007FFC0
FFFC0007FFC0
FFFE0003FFC0
FFFF000003C0
F8FF800003C0
F83FC00003C0
781FC00003C0
780FE00003C0
7807E00007C0
7803E00007C0
7803F00007C0
7801F00007C0
7801F00007C0
7800F0000780
7800F8000780
7800F8000780
7800F8000780
780078000F80
780078000F80
780078000F80
780078000F80
780078000F00
780078000F00
780078000F00
780078001F00
7C0078001F00
7C0078001F00
7C0078001F00
7C0078001E00
3C0078001E00
3C0078001E00
3C0078003E00
3C0078003E00
3C0078003C00
3C0078003C00
3C0078003C00
3C00F8003C00
3C00F8007C00
3C00F8007800
3C00F0007800
3C00F0007800
3C01F0007800
1C01F000F800
1C01E000F000
1E03E000F000
1E03E000F000
1E03C000F000
1E07C001E000
1E078001E000
1E0F8001E000
1E1F0001E000
1E1F0001C000
3E3E0003C000
3E7C0003C000
3EFC0003C000
3FF800078000
7FF000078000
7FE00007FF80
7FC0000FFFC0
1F000007FF80
ENDCHAR
STARTCHAR uni01F2
ENCODING 498
SWIDTH 671 0
DWIDTH 54 0
BBX 46 61 4 0
BITMAP
3FC000000000
FFF800000000
FFFC00000000
FFFE00000000
FFFF00000000
F8FF80000000
F83FC0000000
781FC0000000
780FE0000FF8
7807E0003FFC
7803E0007FFC
7803F0003FFC
7801F0003FFC
7801F000003C
7800F000003C
7800F8000078
7800F8000078
7800F8000078
7800780000F0
7800780000F0
7800780000F0
7800780001E0
7800780001E0
7800780001E0
7800780001C0
7800780003C0
7C00780003C0
7C00780003C0
7C00780007C0
7C0078000780
3C0078000780
3C0078000F80
3C0078000F80
3C0078000F80
3C0078001F00
3C0078001F00
3C0078001F00
3C00F8001F00
3C00F8003E00
3C00F8003E00
3C00F0003E00
3C00F0007E00
3C01F0007C00
1C01F0007C00
1C01E0007C00
1E03E000FC00
1E03E000F800
1E03C000F800
1E07C000F800
1E078001F800
1E0F8001F000
1E1F0001F000
1E1F0001F000
3E3E0001F000
3E7C0001E000
3EFC0003E000
3FF80003E000
7FF00003FFC0
7FE00003FFE0
7FC00003FFC0
1F000001E000
ENDCHAR
STARTCHAR uni01F3
ENCODING 499
SWIDTH 638 0
DWIDTH 51 0
BBX 43 53 5 0
BITMAP
7C0000007F80
FF000003FFC0
FFC00003FFE0
FFE00003FFE0
F8F00001FFC0
F878000003C0
F83C000003C0
F81E000003C0
F81E00000780
F80F00000780
F80F00000780
F80780000F00
F80780000F00
F807C0000F00
F807C0000E00
7803C0001E00
7803C0001E00
7803E0001E00
7803E0003C00
7803E0003C00
7803E0003C00
7803E0007C00
7803E0007C00
7801E0007800
7801E000F800
7801E000F800
7801E000F800
7801E000F800
7801E001F000
7801E001F000
F801E001F000
F801E003F000
FC01E003E000
FC03E003E000
FC03E003E000
FC03E007E000
FC03C007C000
FC03C007C000
FC03C007C000
FC03C00FC000
FC07C00F8000
FC07C00F8000
FC07800F8000
FC0F801F8000
FC0F801F0000
FC1F001F0000
FC1F001F0000
7C3E001E0000
7CFC001E0000
7FF8001FFC00
7FF0001FFE00
7FE0001FFE00
3F80001E0000
ENDCHAR
STARTCHAR uni01F4
ENCODING 500
SWIDTH 371 0
DWIDTH 30 0
BBX 24 76 4 -2
BITMAP
000060
0000F0
0001F8
0003F8
000FF0
001FC0
003F80
007E00
00F800
01E000
018000
000000
003F00
00FF00
03FF80
07FF00
0FC000
0F0000
1F0000
1E0000
3E0000
3C0000
7C0000
7C0000
7C0000
780000
780000
F80000
F80000
F80000
F80000
F00000
F00000
F00000
F00000
F00000
F00000
F00000
F00000
F00000
F00000
F00000
F00000
F00000
F00000
F00000
F00000
F00000
F00000
F00000
F00000
F00000
F00000
F00000
F00000
F001F8
F007FC
F00FFC
F00FFC
F007FC
F0003E
78001E
78001E
78001E
78001E
3C001E
3C001E
3E001E
1E001F
1F001F
0F803F
07E0FF
07FFFF
03FFFF
00FFCF
003F0E
ENDCHAR
STARTCHAR uni01F5
ENCODING 501
SWIDTH 346 0
DWIDTH 28 0
BBX 22 66 4 0
BITMAP
000038
00007C
0000FC
0001FC
0003F8
000FF0
001FC0
003F00
007C00
00F800
00E000
000000
000000
00FC00
03FE00
07FE00
0FFC00
1F8000
1F0000
3F0000
3E0000
3E0000
7E0000
7C0000
7C0000
7C0000
7C0000
FC0000
F80000
F80000
F80000
F80000
F80000
F80000
F80000
F80000
F80000
F80000
F80000
F80000
F80000
F81FE0
F83FF8
F83FF8
F81FF8
F800F8
F800F8
F800F0
F800F0
F800F0
F800F0
F800F0
F800F0
FC00F0
7C00F0
7C00F0
7C00F0
7E01F0
3E01F0
3F01F0
3F83F0
1FC3F0
0FFFE0
07FFC0
03FF80
00FE00
ENDCHAR
STARTCHAR uni01F8
ENCODING 504
SWIDTH 412 0
DWIDTH 33 0
BBX 24 71 4 -1
BITMAP
180000
3E0000
7F8000
3FE000
0FF800
01FC00
003F00
000780
00000E
20001F
70001F
78001F
78001F
7C001E
7C001E
7C001E
7E001E
7E001E
7F001E
7F001E
77001E
77801E
F7801E
F7801E
F3801E
F3C01E
F3C01E
F3C01E
F1E01E
F1E01E
F1E01E
F1F01E
F0F01E
F0F01E
F0F01E
F0781E
F0781E
F0781E
F0781E
F03C1E
F03C1E
F03C1E
F03C1E
F01E1E
701E1E
701E1E
700E1E
700F1E
700F1E
700F1E
70071E
78079E
78079E
78039E
78039E
78039E
7801DE
7801DE
7801DE
7801DE
7800FE
7800FE
7800FE
78007E
78007E
78003E
78003E
78003E
7C001E
78001C
00000C
ENDCHAR
STARTCHAR uni01F9
ENCODING 505
SWIDTH 479 0
DWIDTH 38 0
BBX 26 64 6 0
BITMAP
18000000
3E000000
7F800000
3FE00000
0FF80000
01FC0000
003F0000
00070000
00000000
00000000
00000000
380001C0
7C0003C0
7C0003C0
FE0003C0
FE0003C0
FF0003C0
FF0003C0
FF8003C0
FF8003C0
F7C003C0
F7C003C0
F7C003C0
F3E003C0
F3E003C0
F1E003C0
F1F003C0
F1F003C0
F0F003C0
F0F803C0
F0F803C0
F07803C0
F07C03C0
F03C03C0
F03C03C0
F03E03C0
F01E03C0
F01E03C0
F01E03C0
F00F03C0
F00F03C0
F00F03C0
F00783C0
F00783C0
F00783C0
F00387C0
F003C7C0
F001C780
F001C780
F001E780
F000E780
F000E780
F000E780
F000F780
F0007780
F0007780
F0007F80
F0003F80
F0003F80
F0003F00
F8003F00
F8003F00
F8001F00
70001E00
ENDCHAR
STARTCHAR Aringacute
ENCODING 506
SWIDTH 350 0
DWIDTH 28 0
BBX 27 87 1 0
BITMAP
000001C0
000003E0
000007E0
00000FE0
00001FC0
00003F80
0000FE00
0001F800
0003F000
0007C000
00070000
00000000
00000000
000FC000
003FF000
007FF800
007CFC00
00F01C00
00F01C00
00E00E00
00E00C00
00E01C00
00703C00
007CF800
007FF800
003FF000
000FC000
00038000
00078000
0007C000
000FC000
000FC000
001FC000
001FC000
001FC000
003FC000
003FC000
003FC000
003FC000
007FE000
007FE000
0079E000
0079E000
00F9E000
00F1E000
00F1E000
00F1E000
00F1F000
01F1F000
01E1F000
01E1F000
01E1F000
01E1F000
01E0F000
03C0F000
03C0F000
03C0F000
03C0F800
03C0F800
07C0F800
0780F800
0780F800
0780F800
07807800
07807800
0F807800
0F807800
0F007800
0F007800
0FC07800
0FFFF800
1FFFF800
1FFFFC00
1E01FC00
1E007C00
1E007C00
3E007C00
3C007C00
3C007C00
3C007C00
3C007C00
7C007C00
78007C00
78007C00
F8007C00
70007C00
00003800
ENDCHAR
STARTCHAR aringacute
ENCODING 507
SWIDTH 299 0
DWIDTH 24 0
BBX 25 84 1 0
BITMAP
00000700
00000F80
00001F80
00003F80
00007F00
0000FE00
0003F800
0007E000
000F8000
001F0000
001C0000
00000000
00000000
00000000
007F0000
00FFC000
01FFE000
03F3E000
03C0F000
03807000
03807000
03807000
03807000
03C0E000
01F7E000
01FFC000
00FF8000
007E0000
00000000
00000000
00000000
003C0000
007E0000
007E0000
007E0000
007E0000
007E0000
007E0000
00FF0000
00FF0000
00FF0000
00FF0000
00FF0000
00EF0000
00EF0000
00E70000
01E70000
01E78000
01E78000
01C78000
01C78000
01C78000
03C78000
03C78000
03878000
0383C000
0383C000
0383C000
0783C000
0783C000
0703C000
0703C000
0703C000
0F03C000
0F03C000
0F03E000
0F03E000
0E03E000
1F83E000
1FFFE000
1FFFE000
1E1FE000
3E01E000
3C01F000
3C01F000
3C01F000
7C00F000
7C00F000
7C00F000
7800F800
F800F800
F800F800
F800F800
70007000
ENDCHAR
STARTCHAR AEacute
ENCODING 508
SWIDTH 491 0
DWIDTH 39 0
BBX 32 74 4 -1
BITMAP
0000000C
0000001E
0000003F
0000007F
000001FE
000003F8
000007F0
00000FC0
00001F00
00003C00
00003000
00000000
00007FE0
0000FFF0
0001FFF0
0001FF80
0001F000
0003F000
0003F000
0003F000
0007F000
0007F000
0007F000
000FF000
000FF000
000EF000
001EF000
001EF000
001EF000
001CF000
003CF000
003CF000
003CF000
0078F000
0078F000
0078F000
00F0F000
00F0F000
00F0F000
00F0F000
01E0F000
01E0F000
01E0F000
03E0F000
03E0F3E0
03C1FFE0
03FFFFF0
07FFFFE0
07C0F000
0780F000
0F80F000
0F80F000
0F00F000
0F00F000
1F007000
1F007000
1E007000
1E007000
3E007000
3E007000
3C007000
3C007000
7C007000
7C007000
78007000
78007000
78007000
7800F000
F800F000
F000F1FE
F000FFFF
F000FFFE
6000FFF8
00006000
ENDCHAR
STARTCHAR aeacute
ENCODING 509
SWIDTH 438 0
DWIDTH 35 0
BBX 33 76 4 -1
BITMAP
0000000700
0000000F00
0000001F80
0000003F80
0000007F00
000001FC00
000003F800
000007E000
00000F8000
00001E0000
0000180000
0000000000
0000000000
0000000000
00007FE000
0000FFF000
0001FFF000
0001FF8000
0001F00000
0003F00000
0003F00000
0003F00000
0007F00000
0007F00000
0007F00000
000FF00000
000FF00000
000EF00000
001EF00000
001EF00000
001EF00000
001CF00000
003CF00000
003CF00000
003CF00000
0078F00000
0078F00000
0078F00000
00F0F00000
00F0F00000
00F0F00000
00F0F00000
01E0F00000
01E0F00000
01E0F00000
03E0F00000
03E0F3E000
03C1FFE000
03FFFFF000
07FFFFE000
07C0F00000
0780F00000
0F80F00000
0F80F00000
0F00F00000
0F00F00000
1F00700000
1F00700000
1E00700000
1E00700000
3E00700000
3E00700000
3C00700000
3C00700000
7C00700000
7C00700000
7800700000
7800700000
7800700000
7800F00000
F800F00000
F000F1FE00
F000FFFF00
F000FFFE00
6000FFF800
0000600000
ENDCHAR
STARTCHAR Oslashacute
ENCODING 510
SWIDTH 356 0
DWIDTH 28 0
BBX 23 85 1 -11
BITMAP
001800
007C00
00FC00
01FC00
03F838
07F078
0FC070
3F0070
7E0070
F80070
E00060
0000E0
007CE0
01FFE0
03FFE0
07FFC0
07C7E0
0F83E0
0F81F0
0F01F0
0F01F8
1F01F8
1F03F8
1E03F8
1E03FC
1E03FC
1E03BC
1E073C
1E073C
1E073C
1E073E
1C071E
1C061E
1C0E1E
1C0E1E
1C0E1E
1C0E1E
1C0C1E
1C0C1E
1C1C1E
1C1C1E
1C1C1E
1C1C1E
1C181E
1C381E
1C381E
1C381E
1E381E
1E301E
1E301E
1E701E
1E701E
1E701E
1E701E
1E601E
1E601E
1FE01E
0FE01E
0FE01C
0FC01C
0FC01C
0FC01C
0FC01C
07C03C
07803C
07C03C
07C03C
03C03C
03E07C
03E078
03F0F8
03F8F0
03FFF0
077FE0
073FC0
070F00
060000
060000
0E0000
0E0000
0E0000
0C0000
0C0000
040000
040000
ENDCHAR
STARTCHAR oslashacute
ENCODING 511
SWIDTH 365 0
DWIDTH 29 0
BBX 21 79 4 -11
BITMAP
000E00
001F00
003F00
007F00
00FE00
03FC00
07F000
0FC300
1F0300
3E0300
380700
000700
000700
000600
000600
0FC600
1FF600
1FFE00
3FFE00
3E1F00
3C0F80
7C0FC0
780FC0
781DE0
781DE0
781DE0
781CF0
F818F0
F818F0
F818F0
F838F0
F838F0
F838F8
F838F8
F830F8
F830F8
F830F8
F070F8
F070F8
F070F8
F060F8
F060F8
F060F8
F0E078
F0E078
F0E078
F0E078
F0C078
F0C078
F8C078
F9C0F8
F9C0F8
F9C0F8
F980F8
7980F8
7980F0
7980F0
7B80F0
7F80F0
7F81F0
3F01F0
3F01E0
3F03E0
1F03E0
1F07C0
0F07C0
0F9F80
07FF00
07FE00
06F800
0E0000
0E0000
0E0000
0C0000
0C0000
0C0000
0C0000
1C0000
040000
ENDCHAR
STARTCHAR uni0200
ENCODING 512
SWIDTH 350 0
DWIDTH 28 0
BBX 26 77 1 0
BITMAP
0C000000
1E004000
1F01E000
0F80E000
07C0F000
03E07800
01F07C00
00F83C00
00781E00
003C0E00
001E0700
000E0780
00070380
000381C0
000180C0
00000040
00000000
00038000
00078000
0007C000
000FC000
000FC000
001FC000
001FC000
001FC000
003FC000
003FC000
003FC000
003FC000
007FE000
007FE000
0079E000
0079E000
00F9E000
00F1E000
00F1E000
00F1E000
00F1F000
01F1F000
01E1F000
01E1F000
01E1F000
01E1F000
01E0F000
03C0F000
03C0F000
03C0F000
03C0F800
03C0F800
07C0F800
0780F800
0780F800
0780F800
07807800
07807800
0F807800
0F807800
0F007800
0F007800
0FC07800
0FFFF800
1FFFF800
1FFFFC00
1E01FC00
1E007C00
1E007C00
3E007C00
3C007C00
3C007C00
3C007C00
3C007C00
7C007C00
78007C00
78007C00
F8007C00
70007C00
00003800
ENDCHAR
STARTCHAR uni0201
ENCODING 513
SWIDTH 299 0
DWIDTH 24 0
BBX 24 69 -2 0
BITMAP
600000
F00200
F80F00
7C0700
3E0780
1F03C0
0F83E0
07C1E0
03C0F0
01E078
00F038
00781C
00381C
001C0E
000406
000002
000780
000FC0
000FC0
000FC0
000FC0
000FC0
000FC0
001FE0
001FE0
001FE0
001FE0
001FE0
001DE0
001DE0
001CE0
003CE0
003CF0
003CF0
0038F0
0038F0
0038F0
0078F0
0078F0
0070F0
007078
007078
007078
00F078
00F078
00E078
00E078
00E078
01E078
01E078
01E07C
01E07C
01C07C
03F07C
03FFFC
03FFFC
03C3FC
07C03C
07803E
07803E
07803E
0F801E
0F801E
0F801E
0F001F
1F001F
1F001F
1F001F
0E000E
ENDCHAR
STARTCHAR uni0202
ENCODING 514
SWIDTH 350 0
DWIDTH 28 0
BBX 22 72 1 0
BITMAP
001FC0
003FE0
007FF0
0078F0
00F0F8
00F078
00F078
00E078
00E078
000000
000000
000000
000380
000780
0007C0
000FC0
000FC0
001FC0
001FC0
001FC0
003FC0
003FC0
003FC0
003FC0
007FE0
007FE0
0079E0
0079E0
00F9E0
00F1E0
00F1E0
00F1E0
00F1F0
01F1F0
01E1F0
01E1F0
01E1F0
01E1F0
01E0F0
03C0F0
03C0F0
03C0F0
03C0F8
03C0F8
07C0F8
0780F8
0780F8
0780F8
078078
078078
0F8078
0F8078
0F0078
0F0078
0FC078
0FFFF8
1FFFF8
1FFFFC
1E01FC
1E007C
1E007C
3E007C
3C007C
3C007C
3C007C
3C007C
7C007C
78007C
78007C
F8007C
70007C
000038
ENDCHAR
STARTCHAR uni0203
ENCODING 515
SWIDTH 299 0
DWIDTH 24 0
BBX 21 65 1 0
BITMAP
003F00
00FF80
00FFC0
01E3E0
01E1E0
03C1F0
03C1E0
03C1F0
0380E0
000000
000000
000000
003C00
007E00
007E00
007E00
007E00
007E00
007E00
00FF00
00FF00
00FF00
00FF00
00FF00
00EF00
00EF00
00E700
01E700
01E780
01E780
01C780
01C780
01C780
03C780
03C780
038780
0383C0
0383C0
0383C0
0783C0
0783C0
0703C0
0703C0
0703C0
0F03C0
0F03C0
0F03E0
0F03E0
0E03E0
1F83E0
1FFFE0
1FFFE0
1E1FE0
3E01E0
3C01F0
3C01F0
3C01F0
7C00F0
7C00F0
7C00F0
7800F8
F800F8
F800F8
F800F8
700070
ENDCHAR
STARTCHAR uni0204
ENCODING 516
SWIDTH 278 0
DWIDTH 22 0
BBX 23 78 -2 0
BITMAP
600000
F00200
F80F00
7C0700
3E0780
1F03C0
0F83E0
07C1E0
03C0F0
01E078
00F038
00781C
00381C
001C0E
000406
000002
000000
003F00
00FFC0
01FFC0
03FFC0
03FF80
03E000
01E000
01E000
01E000
01E000
01E000
01E000
01E000
01F000
01F000
01F000
01F000
01F000
01F000
01F000
01F000
01F000
01F000
01F000
01E000
01E000
01E000
01E700
01FF80
01FF80
01FF80
01FF80
01F000
01F000
01F000
01F000
01F000
01F000
01F000
01F000
01F000
01F000
01F000
01F000
01F000
01F000
01F000
01F000
01F000
01F000
01F000
01F000
01F000
01F000
01F000
01F000
01FFE0
01FFF8
01FFF8
00FFF0
007FC0
ENDCHAR
ENDFONT
